<?xml version="1.0" encoding="UTF-8"?>
<svg xmlns="http://www.w3.org/2000/svg" xmlns:xlink="http://www.w3.org/1999/xlink" width="32px" height="32px" viewBox="0 0 32 32" version="1.1">
<g id="surface1">
<path style=" stroke:none;fill-rule:nonzero;fill:rgb(20.392157%,7.843138%,1.960784%);fill-opacity:1;" d="M 0 0 C 10.558594 0 21.121094 0 32 0 C 32 10.558594 32 21.121094 32 32 C 21.441406 32 10.878906 32 0 32 C 0 21.441406 0 10.878906 0 0 Z M 0 0 "/>
<path style=" stroke:none;fill-rule:nonzero;fill:rgb(78.823531%,55.29412%,20%);fill-opacity:1;" d="M 0 0 C 10.558594 0 21.121094 0 32 0 C 32 5.410156 32 10.824219 32 16.398438 C 31.605469 16.597656 31.605469 16.597656 31.199219 16.800781 C 31.265625 16.933594 31.332031 17.0625 31.398438 17.199219 C 31.003906 17.199219 30.609375 17.199219 30.199219 17.199219 C 30.132812 17.066406 30.066406 16.9375 30 16.800781 C 29.109375 16.996094 29.109375 16.996094 28.199219 17.199219 C 28.183594 16.953125 28.164062 16.707031 28.148438 16.453125 C 28.121094 16.128906 28.089844 15.800781 28.0625 15.476562 C 28.046875 15.234375 28.046875 15.234375 28.03125 14.984375 C 27.921875 13.8125 27.671875 13.207031 26.800781 12.398438 C 26.050781 12.113281 25.25 12.164062 24.457031 12.160156 C 24.304688 12.15625 24.148438 12.15625 23.992188 12.152344 C 23.484375 12.148438 22.972656 12.140625 22.464844 12.136719 C 22.113281 12.132812 21.757812 12.128906 21.40625 12.125 C 20.476562 12.113281 19.550781 12.101562 18.621094 12.09375 C 17.671875 12.082031 16.726562 12.074219 15.777344 12.0625 C 13.917969 12.039062 12.058594 12.019531 10.199219 12 C 10.332031 11.21875 10.421875 10.875 11.054688 10.382812 C 11.191406 10.277344 11.324219 10.167969 11.464844 10.058594 C 11.609375 9.949219 11.75 9.839844 11.898438 9.726562 C 12.046875 9.609375 12.191406 9.496094 12.339844 9.378906 C 12.757812 9.050781 13.179688 8.726562 13.601562 8.398438 C 13.792969 8.25 13.984375 8.097656 14.183594 7.941406 C 14.726562 7.515625 15.265625 7.09375 15.835938 6.703125 C 16.257812 6.40625 16.257812 6.40625 16.398438 5.800781 C 16.714844 5.507812 16.714844 5.507812 17.121094 5.207031 C 17.269531 5.097656 17.414062 4.984375 17.566406 4.871094 C 17.722656 4.757812 17.878906 4.644531 18.039062 4.523438 C 18.339844 4.296875 18.644531 4.070312 18.945312 3.84375 C 19.089844 3.738281 19.238281 3.628906 19.386719 3.515625 C 19.761719 3.230469 20.121094 2.933594 20.480469 2.628906 C 20.953125 2.238281 21.203125 2.070312 21.800781 2 C 21.601562 1.605469 21.601562 1.605469 21.398438 1.199219 C 21.269531 1.199219 21.136719 1.199219 21 1.199219 C 20.886719 1.410156 20.886719 1.410156 20.773438 1.625 C 20.257812 2.417969 19.585938 2.867188 18.824219 3.414062 C 18.542969 3.617188 18.257812 3.824219 17.976562 4.03125 C 17.84375 4.128906 17.707031 4.226562 17.570312 4.328125 C 17.257812 4.558594 16.957031 4.800781 16.660156 5.050781 C 16.199219 5.398438 16.199219 5.398438 15.707031 5.59375 C 15.0625 5.855469 14.636719 6.230469 14.113281 6.6875 C 13.902344 6.867188 13.691406 7.046875 13.476562 7.226562 C 13.3125 7.367188 13.3125 7.367188 13.144531 7.511719 C 12.332031 8.191406 11.492188 8.835938 10.65625 9.488281 C 10.25 9.800781 9.851562 10.121094 9.457031 10.449219 C 9.300781 10.578125 9.148438 10.707031 8.988281 10.835938 C 8.855469 10.949219 8.726562 11.058594 8.59375 11.171875 C 8.101562 11.457031 7.757812 11.445312 7.199219 11.398438 C 7.199219 11.597656 7.199219 11.796875 7.199219 12 C 7.078125 12.011719 6.957031 12.019531 6.835938 12.03125 C 6.675781 12.042969 6.515625 12.058594 6.351562 12.074219 C 6.113281 12.097656 6.113281 12.097656 5.871094 12.117188 C 5.382812 12.203125 5.03125 12.355469 4.601562 12.601562 C 4.46875 12.46875 4.335938 12.335938 4.199219 12.199219 C 4.003906 12.695312 4.003906 12.695312 3.800781 13.199219 C 3.503906 13.101562 3.503906 13.101562 3.199219 13 C 3.199219 13.132812 3.199219 13.265625 3.199219 13.398438 C 2.464844 13.636719 1.765625 13.613281 1 13.601562 C 1 13.46875 1 13.335938 1 13.199219 C 0.503906 13.300781 0.503906 13.300781 0 13.398438 C 0 8.976562 0 4.554688 0 0 Z M 0 0 "/>
<path style=" stroke:none;fill-rule:nonzero;fill:rgb(57.647061%,31.37255%,7.450981%);fill-opacity:1;" d="M 4 12 C 4.199219 12.132812 4.394531 12.265625 4.601562 12.398438 C 4.535156 12.523438 4.472656 12.648438 4.40625 12.777344 C 4.121094 13.636719 4.105469 14.460938 4.074219 15.363281 C 4.050781 15.96875 4.027344 16.574219 4 17.199219 C 5.386719 17.199219 6.773438 17.199219 8.199219 17.199219 C 8.199219 17.726562 8.199219 18.257812 8.199219 18.800781 C 6.8125 18.800781 5.429688 18.800781 4 18.800781 C 4 19.128906 4 19.460938 4 19.800781 C 5.386719 19.800781 6.773438 19.800781 8.199219 19.800781 C 8.199219 20.328125 8.199219 20.855469 8.199219 21.398438 C 6.8125 21.398438 5.429688 21.398438 4 21.398438 C 4 21.664062 4 21.929688 4 22.199219 C 5.386719 22.199219 6.773438 22.199219 8.199219 22.199219 C 8.199219 22.726562 8.199219 23.257812 8.199219 23.800781 C 6.8125 23.800781 5.429688 23.800781 4 23.800781 C 4 24.0625 4 24.328125 4 24.601562 C 5.386719 24.601562 6.773438 24.601562 8.199219 24.601562 C 8.199219 25.128906 8.199219 25.65625 8.199219 26.199219 C 6.8125 26.199219 5.429688 26.199219 4 26.199219 C 4.464844 27.503906 4.464844 27.503906 5.398438 28.199219 C 5.832031 28.289062 5.832031 28.289062 6.292969 28.277344 C 6.472656 28.28125 6.648438 28.285156 6.832031 28.285156 C 7.027344 28.285156 7.222656 28.285156 7.421875 28.285156 C 7.730469 28.285156 7.730469 28.285156 8.042969 28.289062 C 8.722656 28.292969 9.402344 28.292969 10.082031 28.292969 C 10.550781 28.296875 11.023438 28.296875 11.496094 28.296875 C 12.484375 28.300781 13.472656 28.300781 14.464844 28.300781 C 15.730469 28.300781 17 28.304688 18.265625 28.3125 C 19.242188 28.320312 20.214844 28.320312 21.191406 28.316406 C 21.65625 28.320312 22.125 28.320312 22.59375 28.324219 C 23.246094 28.328125 23.898438 28.328125 24.554688 28.324219 C 24.84375 28.328125 24.84375 28.328125 25.140625 28.332031 C 26.066406 28.320312 26.464844 28.304688 27.214844 27.71875 C 27.773438 26.96875 27.828125 26.597656 27.839844 25.671875 C 27.84375 25.433594 27.847656 25.199219 27.851562 24.957031 C 27.855469 24.699219 27.859375 24.445312 27.863281 24.179688 C 27.871094 23.789062 27.871094 23.789062 27.875 23.386719 C 27.886719 22.691406 27.898438 21.996094 27.90625 21.300781 C 27.917969 20.59375 27.925781 19.882812 27.9375 19.175781 C 27.960938 17.785156 27.980469 16.390625 28 15 C 28.066406 15 28.132812 15 28.199219 15 C 28.199219 15.726562 28.199219 16.453125 28.199219 17.199219 C 28.488281 17.097656 28.777344 16.992188 29.074219 16.886719 C 29.566406 16.710938 29.566406 16.710938 30 16.601562 C 30.132812 16.664062 30.265625 16.730469 30.398438 16.800781 C 30.335938 16.933594 30.269531 17.0625 30.199219 17.199219 C 30.53125 17.132812 30.859375 17.066406 31.199219 17 C 31.132812 16.867188 31.066406 16.734375 31 16.601562 C 31.328125 16.535156 31.660156 16.46875 32 16.398438 C 32 21.546875 32 26.695312 32 32 C 21.441406 32 10.878906 32 0 32 C 0 25.863281 0 19.722656 0 13.398438 C 0.328125 13.335938 0.660156 13.269531 1 13.199219 C 1 13.332031 1 13.464844 1 13.601562 C 2.089844 13.5 2.089844 13.5 3.199219 13.398438 C 3.199219 13.269531 3.199219 13.136719 3.199219 13 C 3.398438 13 3.597656 13 3.800781 13 C 3.867188 12.671875 3.933594 12.339844 4 12 Z M 4 12 "/>
<path style=" stroke:none;fill-rule:nonzero;fill:rgb(96.470588%,96.470588%,96.078432%);fill-opacity:1;" d="M 0 0 C 5.542969 0 11.089844 0 16.800781 0 C 16.800781 0.132812 16.800781 0.265625 16.800781 0.398438 C 16.40625 0.738281 16.011719 1.050781 15.601562 1.363281 C 15.339844 1.5625 15.082031 1.761719 14.824219 1.960938 C 14.6875 2.066406 14.550781 2.171875 14.410156 2.277344 C 13.746094 2.800781 13.089844 3.339844 12.4375 3.875 C 11.34375 4.769531 10.238281 5.636719 9.113281 6.488281 C 7.789062 7.488281 6.5 8.53125 5.222656 9.589844 C 4.152344 10.480469 3.058594 11.339844 1.945312 12.183594 C 1.578125 12.464844 1.210938 12.757812 0.851562 13.054688 C 0.398438 13.398438 0.398438 13.398438 0 13.398438 C 0 8.976562 0 4.554688 0 0 Z M 0 0 "/>
<path style=" stroke:none;fill-rule:nonzero;fill:rgb(75.686276%,51.764709%,18.039216%);fill-opacity:1;" d="M 27.601562 0 C 29.050781 0 30.503906 0 32 0 C 32 5.410156 32 10.824219 32 16.398438 C 31.605469 16.597656 31.605469 16.597656 31.199219 16.800781 C 31.265625 16.933594 31.332031 17.0625 31.398438 17.199219 C 31.003906 17.199219 30.609375 17.199219 30.199219 17.199219 C 30.132812 17.066406 30.066406 16.9375 30 16.800781 C 29.109375 16.996094 29.109375 16.996094 28.199219 17.199219 C 28.183594 16.953125 28.164062 16.707031 28.148438 16.453125 C 28.121094 16.128906 28.089844 15.800781 28.0625 15.476562 C 28.046875 15.234375 28.046875 15.234375 28.03125 14.984375 C 27.921875 13.8125 27.671875 13.207031 26.800781 12.398438 C 26.050781 12.113281 25.25 12.164062 24.457031 12.160156 C 24.304688 12.15625 24.148438 12.15625 23.992188 12.152344 C 23.484375 12.148438 22.972656 12.140625 22.464844 12.136719 C 22.113281 12.132812 21.757812 12.128906 21.40625 12.125 C 20.476562 12.113281 19.550781 12.101562 18.621094 12.09375 C 17.671875 12.082031 16.726562 12.074219 15.777344 12.0625 C 13.917969 12.039062 12.058594 12.019531 10.199219 12 C 10.332031 11.21875 10.421875 10.875 11.054688 10.382812 C 11.191406 10.277344 11.324219 10.167969 11.464844 10.058594 C 11.679688 9.894531 11.679688 9.894531 11.898438 9.726562 C 12.046875 9.609375 12.191406 9.496094 12.339844 9.378906 C 12.757812 9.050781 13.179688 8.726562 13.601562 8.398438 C 13.792969 8.25 13.984375 8.097656 14.183594 7.941406 C 14.726562 7.515625 15.265625 7.09375 15.835938 6.703125 C 16.257812 6.40625 16.257812 6.40625 16.398438 5.800781 C 16.53125 5.800781 16.664062 5.800781 16.800781 5.800781 C 16.800781 6.128906 16.800781 6.460938 16.800781 6.800781 C 16.46875 6.933594 16.140625 7.0625 15.800781 7.199219 C 15.800781 7.332031 15.800781 7.464844 15.800781 7.601562 C 15.933594 7.664062 16.0625 7.730469 16.199219 7.800781 C 16.324219 8.210938 16.324219 8.210938 16.398438 8.601562 C 16.664062 8.601562 16.929688 8.601562 17.199219 8.601562 C 17.332031 8.730469 17.464844 8.863281 17.601562 9 C 17.863281 8.867188 18.128906 8.734375 18.398438 8.601562 C 18.597656 8.863281 18.796875 9.128906 19 9.398438 C 19.394531 9.300781 19.394531 9.300781 19.800781 9.199219 C 19.933594 9.53125 20.0625 9.859375 20.199219 10.199219 C 20.464844 10.199219 20.726562 10.199219 21 10.199219 C 21.066406 10.332031 21.132812 10.464844 21.199219 10.601562 C 21.324219 10.5625 21.449219 10.527344 21.574219 10.488281 C 22 10.398438 22 10.398438 22.398438 10.601562 C 22.398438 10.796875 22.398438 10.996094 22.398438 11.199219 C 22.53125 11.066406 22.664062 10.9375 22.800781 10.800781 C 23.332031 10.6875 23.859375 10.652344 24.398438 10.601562 C 24.398438 10.203125 24.398438 9.808594 24.398438 9.398438 C 24.101562 9.5 24.101562 9.5 23.800781 9.601562 C 23.503906 9.402344 23.503906 9.402344 23.199219 9.199219 C 23.164062 8.574219 23.164062 8.574219 23.199219 8 C 23.003906 8 22.804688 8 22.601562 8 C 22.601562 7.867188 22.601562 7.734375 22.601562 7.601562 C 23.175781 7.738281 23.175781 7.738281 23.800781 8 C 24.074219 8.523438 24.074219 8.523438 24.199219 9 C 24.398438 8.800781 24.398438 8.800781 24.601562 8.601562 C 24.304688 8.5 24.304688 8.5 24 8.398438 C 24.066406 8.003906 24.132812 7.609375 24.199219 7.199219 C 24.597656 7.265625 24.992188 7.332031 25.398438 7.398438 C 25.398438 7.863281 25.398438 8.324219 25.398438 8.800781 C 25.53125 8.207031 25.664062 7.613281 25.800781 7 C 25.402344 6.902344 25.402344 6.902344 25 6.800781 C 25.097656 6.601562 25.097656 6.601562 25.199219 6.398438 C 24.902344 6.300781 24.902344 6.300781 24.601562 6.199219 C 24.921875 6.15625 24.921875 6.15625 25.25 6.113281 C 25.785156 6.03125 26.28125 5.945312 26.800781 5.800781 C 26.699219 6.097656 26.699219 6.097656 26.601562 6.398438 C 26.730469 6.398438 26.863281 6.398438 27 6.398438 C 26.800781 6.992188 26.800781 6.992188 26.601562 7.601562 C 26.730469 7.664062 26.863281 7.730469 27 7.800781 C 27.066406 7.601562 27.132812 7.402344 27.199219 7.199219 C 27.464844 7.332031 27.726562 7.464844 28 7.601562 C 27.933594 7.796875 27.867188 7.996094 27.800781 8.199219 C 27.996094 8.199219 28.195312 8.199219 28.398438 8.199219 C 28.464844 7.738281 28.53125 7.277344 28.601562 6.800781 C 28.203125 6.699219 28.203125 6.699219 27.800781 6.601562 C 28.925781 6 28.925781 6 29.601562 6 C 29.601562 5.867188 29.601562 5.734375 29.601562 5.601562 C 29.796875 5.601562 29.996094 5.601562 30.199219 5.601562 C 30.191406 5.398438 30.183594 5.195312 30.175781 4.988281 C 30.199219 4.164062 30.347656 3.578125 30.601562 2.800781 C 30.480469 2.816406 30.363281 2.832031 30.242188 2.851562 C 29.378906 2.960938 28.648438 3.046875 27.800781 2.800781 C 27.546875 1.816406 27.601562 1.09375 27.601562 0 Z M 27.199219 7 C 27.601562 7.199219 27.601562 7.199219 27.601562 7.199219 Z M 27.199219 7 "/>
<path style=" stroke:none;fill-rule:nonzero;fill:rgb(44.705883%,17.647059%,3.921569%);fill-opacity:1;" d="M 15.800781 13 C 16.722656 13 17.648438 13 18.601562 13 C 18.601562 13.660156 18.601562 14.320312 18.601562 15 C 18.800781 15.039062 19.003906 15.074219 19.210938 15.113281 C 20.441406 15.46875 21.25 16.464844 21.886719 17.539062 C 22.355469 18.574219 22.359375 19.691406 22.199219 20.800781 C 22.101562 21.003906 22.003906 21.207031 21.902344 21.417969 C 21.425781 22.453125 21.484375 23.570312 21.460938 24.6875 C 21.441406 25.449219 21.421875 26.214844 21.398438 27 C 18.628906 27 15.855469 27 13 27 C 12.9375 24.710938 12.9375 24.710938 12.921875 24.003906 C 12.882812 22.847656 12.761719 21.859375 12.335938 20.78125 C 11.90625 19.570312 12.214844 18.433594 12.707031 17.292969 C 13.304688 16.289062 14.203125 15.351562 15.355469 15.058594 C 15.503906 15.039062 15.648438 15.019531 15.800781 15 C 15.800781 14.339844 15.800781 13.679688 15.800781 13 Z M 15.800781 13 "/>
<path style=" stroke:none;fill-rule:nonzero;fill:rgb(63.137257%,36.862746%,8.627451%);fill-opacity:1;" d="M 28 15 C 28.066406 15 28.132812 15 28.199219 15 C 28.199219 15.726562 28.199219 16.453125 28.199219 17.199219 C 28.488281 17.097656 28.777344 16.992188 29.074219 16.886719 C 29.566406 16.710938 29.566406 16.710938 30 16.601562 C 30.132812 16.664062 30.265625 16.730469 30.398438 16.800781 C 30.335938 16.933594 30.269531 17.0625 30.199219 17.199219 C 30.53125 17.132812 30.859375 17.066406 31.199219 17 C 31.132812 16.867188 31.066406 16.734375 31 16.601562 C 31.328125 16.535156 31.660156 16.46875 32 16.398438 C 32.015625 18.125 32.023438 19.851562 32.03125 21.578125 C 32.035156 22.382812 32.039062 23.183594 32.046875 23.984375 C 32.050781 24.757812 32.054688 25.53125 32.058594 26.308594 C 32.058594 26.601562 32.058594 26.898438 32.0625 27.191406 C 32.066406 27.605469 32.070312 28.019531 32.066406 28.433594 C 32.070312 28.667969 32.070312 28.90625 32.070312 29.148438 C 31.960938 30.144531 31.621094 30.789062 30.898438 31.476562 C 30.398438 31.800781 30.398438 31.800781 29.800781 31.800781 C 29.867188 31.601562 29.933594 31.402344 30 31.199219 C 29.933594 31.003906 29.867188 30.804688 29.800781 30.601562 C 29.667969 30.535156 29.535156 30.46875 29.398438 30.398438 C 29.425781 29.9375 29.425781 29.9375 29.601562 29.398438 C 30.210938 29.039062 30.210938 29.039062 30.800781 28.800781 C 30.699219 28.699219 30.699219 28.699219 30.601562 28.601562 C 30.375 28.605469 30.144531 28.609375 29.914062 28.613281 C 28.910156 28.628906 27.972656 28.421875 27 28.199219 C 27.128906 28.023438 27.257812 27.851562 27.390625 27.667969 C 28.027344 26.550781 27.921875 25.335938 27.921875 24.082031 C 27.925781 23.820312 27.929688 23.5625 27.933594 23.292969 C 27.941406 22.609375 27.945312 21.921875 27.949219 21.234375 C 27.953125 20.53125 27.960938 19.828125 27.96875 19.125 C 27.984375 17.75 27.992188 16.375 28 15 Z M 28 15 "/>
<path style=" stroke:none;fill-rule:nonzero;fill:rgb(63.921571%,38.431373%,9.803922%);fill-opacity:1;" d="M 4 12 C 4.199219 12.132812 4.394531 12.265625 4.601562 12.398438 C 4.503906 12.640625 4.40625 12.878906 4.304688 13.125 C 3.878906 14.410156 3.90625 15.679688 3.90625 17.023438 C 3.902344 17.292969 3.898438 17.5625 3.894531 17.832031 C 3.886719 18.535156 3.882812 19.238281 3.878906 19.945312 C 3.871094 21.074219 3.859375 22.207031 3.847656 23.335938 C 3.84375 23.730469 3.839844 24.125 3.835938 24.519531 C 3.835938 24.875 3.835938 24.875 3.832031 25.242188 C 3.832031 25.449219 3.828125 25.660156 3.828125 25.875 C 3.800781 26.398438 3.800781 26.398438 3.601562 27 C 3.335938 26.933594 3.070312 26.867188 2.800781 26.800781 C 2.535156 27.128906 2.273438 27.460938 2 27.800781 C 2.199219 27.867188 2.394531 27.933594 2.601562 28 C 2.335938 28 2.070312 28 1.800781 28 C 1.867188 27.207031 1.933594 26.414062 2 25.601562 C 1.164062 25.132812 1.164062 25.132812 0 25 C 0 21.171875 0 17.34375 0 13.398438 C 0.328125 13.335938 0.660156 13.269531 1 13.199219 C 1 13.332031 1 13.464844 1 13.601562 C 2.089844 13.5 2.089844 13.5 3.199219 13.398438 C 3.199219 13.269531 3.199219 13.136719 3.199219 13 C 3.398438 13 3.597656 13 3.800781 13 C 3.867188 12.671875 3.933594 12.339844 4 12 Z M 4 12 "/>
<path style=" stroke:none;fill-rule:nonzero;fill:rgb(44.705883%,17.647059%,3.921569%);fill-opacity:1;" d="M 21 1 C 21.265625 1.132812 21.527344 1.265625 21.800781 1.398438 C 21.800781 1.664062 21.800781 1.929688 21.800781 2.199219 C 21.664062 2.242188 21.527344 2.289062 21.386719 2.332031 C 20.632812 2.675781 20.050781 3.144531 19.414062 3.664062 C 19.292969 3.757812 19.175781 3.851562 19.050781 3.949219 C 18.582031 4.324219 18.113281 4.703125 17.660156 5.09375 C 16.839844 5.800781 16.839844 5.800781 16.398438 5.800781 C 16.378906 5.921875 16.359375 6.039062 16.339844 6.164062 C 16.171875 6.683594 15.996094 6.839844 15.570312 7.175781 C 15.441406 7.28125 15.3125 7.386719 15.175781 7.492188 C 14.964844 7.65625 14.964844 7.65625 14.75 7.824219 C 14.605469 7.9375 14.464844 8.054688 14.316406 8.171875 C 13.625 8.71875 12.925781 9.257812 12.214844 9.785156 C 12.097656 9.875 11.976562 9.964844 11.855469 10.058594 C 11.53125 10.300781 11.203125 10.539062 10.875 10.777344 C 10.371094 11.222656 10.320312 11.371094 10.199219 12 C 10.492188 12 10.492188 12 10.792969 11.996094 C 12.636719 11.988281 14.484375 11.984375 16.328125 11.980469 C 17.277344 11.976562 18.226562 11.972656 19.175781 11.96875 C 20.089844 11.964844 21.003906 11.964844 21.921875 11.960938 C 22.269531 11.960938 22.617188 11.960938 22.96875 11.957031 C 23.457031 11.953125 23.945312 11.953125 24.4375 11.953125 C 24.582031 11.953125 24.722656 11.953125 24.871094 11.949219 C 26.054688 11.953125 26.714844 12.121094 27.5625 12.949219 C 28.039062 13.65625 28.097656 13.96875 28 14.800781 C 27.894531 14.648438 27.785156 14.496094 27.675781 14.335938 C 27.066406 13.648438 26.5 13.265625 25.570312 13.144531 C 25.046875 13.121094 24.53125 13.113281 24.011719 13.117188 C 23.8125 13.113281 23.617188 13.113281 23.414062 13.109375 C 22.761719 13.105469 22.113281 13.105469 21.460938 13.105469 C 21.007812 13.105469 20.558594 13.101562 20.105469 13.101562 C 19.15625 13.097656 18.207031 13.097656 17.257812 13.101562 C 16.046875 13.101562 14.832031 13.09375 13.617188 13.085938 C 12.679688 13.082031 11.746094 13.082031 10.8125 13.082031 C 10.363281 13.082031 9.914062 13.078125 9.46875 13.074219 C 8.84375 13.070312 8.214844 13.074219 7.589844 13.078125 C 7.3125 13.074219 7.3125 13.074219 7.03125 13.070312 C 6.164062 13.082031 5.585938 13.121094 4.902344 13.683594 C 4.652344 13.9375 4.652344 13.9375 4.398438 14.199219 C 4.203125 14.398438 4.203125 14.398438 4 14.601562 C 3.929688 13.84375 3.9375 13.492188 4.363281 12.851562 C 5.167969 12.019531 5.167969 12.019531 5.851562 11.960938 C 6.011719 11.964844 6.171875 11.96875 6.335938 11.976562 C 6.5 11.980469 6.660156 11.980469 6.828125 11.984375 C 6.949219 11.992188 7.074219 11.996094 7.199219 12 C 7.199219 11.800781 7.199219 11.605469 7.199219 11.398438 C 7.371094 11.355469 7.542969 11.308594 7.71875 11.261719 C 8.496094 10.964844 9.066406 10.535156 9.699219 10.011719 C 9.945312 9.8125 10.191406 9.617188 10.4375 9.417969 C 10.5625 9.316406 10.6875 9.214844 10.816406 9.109375 C 11.433594 8.609375 12.0625 8.125 12.6875 7.636719 C 13.40625 7.078125 14.113281 6.511719 14.789062 5.898438 C 15.398438 5.398438 15.398438 5.398438 16.0625 5.128906 C 16.824219 4.816406 17.378906 4.367188 18 3.824219 C 18.65625 3.257812 19.304688 2.707031 20.023438 2.226562 C 20.558594 1.832031 20.792969 1.621094 21 1 Z M 21 1 "/>
<path style=" stroke:none;fill-rule:nonzero;fill:rgb(78.823531%,53.725493%,18.039216%);fill-opacity:1;" d="M 0 0 C 3.167969 0 6.335938 0 9.601562 0 C 8.472656 1.125 8.472656 1.125 7.894531 1.597656 C 7.765625 1.699219 7.636719 1.804688 7.507812 1.910156 C 7.371094 2.019531 7.238281 2.125 7.101562 2.238281 C 6.960938 2.351562 6.816406 2.464844 6.671875 2.582031 C 5.503906 3.523438 4.320312 4.441406 3.125 5.351562 C 2.773438 5.621094 2.417969 5.894531 2.066406 6.167969 C 1.949219 6.261719 1.828125 6.355469 1.703125 6.449219 C 1.472656 6.628906 1.242188 6.808594 1.007812 6.992188 C 0.222656 7.601562 0.222656 7.601562 0 7.601562 C 0 5.09375 0 2.585938 0 0 Z M 0 0 "/>
<path style=" stroke:none;fill-rule:nonzero;fill:rgb(73.725492%,49.019608%,15.686275%);fill-opacity:1;" d="M 30.199219 8.199219 C 30.875 8.261719 30.875 8.261719 31.601562 8.398438 C 32.113281 9.167969 32.050781 9.789062 32.039062 10.675781 C 32.039062 10.839844 32.039062 11.003906 32.039062 11.171875 C 32.035156 11.695312 32.03125 12.214844 32.023438 12.738281 C 32.023438 13.089844 32.019531 13.445312 32.019531 13.796875 C 32.015625 14.664062 32.007812 15.53125 32 16.398438 C 31.734375 16.53125 31.472656 16.664062 31.199219 16.800781 C 31.265625 16.933594 31.332031 17.0625 31.398438 17.199219 C 31.003906 17.199219 30.609375 17.199219 30.199219 17.199219 C 30.132812 17.066406 30.066406 16.9375 30 16.800781 C 29.40625 16.933594 28.8125 17.0625 28.199219 17.199219 C 28.183594 16.953125 28.164062 16.707031 28.148438 16.453125 C 28.121094 16.128906 28.089844 15.800781 28.0625 15.476562 C 28.050781 15.3125 28.042969 15.152344 28.03125 14.984375 C 27.917969 13.804688 27.652344 13.230469 26.800781 12.398438 C 26.371094 12.125 26.371094 12.125 26 12 C 26.199219 12 26.394531 12 26.601562 12 C 26.609375 11.796875 26.609375 11.796875 26.621094 11.589844 C 26.640625 11.324219 26.640625 11.324219 26.664062 11.050781 C 26.675781 10.875 26.6875 10.699219 26.699219 10.515625 C 26.8125 9.933594 27.015625 9.640625 27.398438 9.199219 C 27.929688 9.265625 28.457031 9.332031 29 9.398438 C 29.066406 9.730469 29.132812 10.058594 29.199219 10.398438 C 28.605469 10.300781 28.605469 10.300781 28 10.199219 C 28.066406 10.398438 28.132812 10.597656 28.199219 10.800781 C 28.726562 10.800781 29.257812 10.800781 29.800781 10.800781 C 29.773438 10.589844 29.773438 10.589844 29.75 10.375 C 29.816406 9.613281 30.152344 9.203125 30.601562 8.601562 C 30.46875 8.46875 30.335938 8.335938 30.199219 8.199219 Z M 30.199219 8.199219 "/>
<path style=" stroke:none;fill-rule:nonzero;fill:rgb(74.117649%,50.588238%,18.039216%);fill-opacity:1;" d="M 12.398438 4.800781 C 13.207031 5.117188 14.003906 5.457031 14.800781 5.800781 C 14.535156 6.597656 14.148438 6.789062 13.476562 7.289062 C 13.238281 7.464844 13.003906 7.640625 12.769531 7.820312 C 12.644531 7.914062 12.519531 8.007812 12.390625 8.101562 C 11.714844 8.617188 11.050781 9.152344 10.386719 9.6875 C 10.027344 9.976562 9.664062 10.269531 9.304688 10.558594 C 9.050781 10.757812 8.800781 10.964844 8.546875 11.167969 C 8.085938 11.476562 7.746094 11.445312 7.199219 11.398438 C 7.199219 11.597656 7.199219 11.796875 7.199219 12 C 7.078125 12.011719 6.957031 12.019531 6.835938 12.03125 C 6.675781 12.042969 6.515625 12.058594 6.351562 12.074219 C 6.113281 12.097656 6.113281 12.097656 5.871094 12.117188 C 5.382812 12.203125 5.03125 12.355469 4.601562 12.601562 C 4.46875 12.46875 4.335938 12.335938 4.199219 12.199219 C 4.003906 12.695312 4.003906 12.695312 3.800781 13.199219 C 3.601562 13.132812 3.402344 13.066406 3.199219 13 C 3.199219 13.132812 3.199219 13.265625 3.199219 13.398438 C 2.464844 13.636719 1.765625 13.613281 1 13.601562 C 1 13.46875 1 13.335938 1 13.199219 C 0.867188 13.132812 0.734375 13.066406 0.601562 13 C 0.871094 12.785156 0.871094 12.785156 1.148438 12.566406 C 1.265625 12.476562 1.382812 12.382812 1.503906 12.289062 C 1.761719 12.085938 2.019531 11.886719 2.273438 11.683594 C 2.835938 11.246094 3.390625 10.804688 3.9375 10.347656 C 4.847656 9.59375 5.394531 9.308594 6.601562 9.199219 C 7.1875 9.007812 7.710938 8.78125 8.199219 8.398438 C 8.425781 7.777344 8.425781 7.777344 8.398438 7.199219 C 8.992188 7.265625 9.589844 7.332031 10.199219 7.398438 C 10.199219 6.9375 10.199219 6.476562 10.199219 6 C 10.722656 5.8125 10.929688 5.769531 11.449219 5.988281 C 11.566406 6.058594 11.679688 6.128906 11.800781 6.199219 C 11.996094 5.738281 12.195312 5.277344 12.398438 4.800781 Z M 12.398438 4.800781 "/>
<path style=" stroke:none;fill-rule:nonzero;fill:rgb(51.764709%,24.313726%,6.27451%);fill-opacity:1;" d="M 13 22.601562 C 13.527344 22.996094 14.054688 23.390625 14.601562 23.800781 C 15.761719 24.609375 17.035156 24.523438 18.398438 24.398438 C 19.667969 24.027344 20.277344 23.441406 21.398438 22.601562 C 21.398438 24.050781 21.398438 25.503906 21.398438 27 C 18.628906 27 15.855469 27 13 27 C 13 25.546875 13 24.097656 13 22.601562 Z M 13 22.601562 "/>
<path style=" stroke:none;fill-rule:nonzero;fill:rgb(67.843139%,42.745098%,12.941177%);fill-opacity:1;" d="M 4 12 C 4.199219 12.132812 4.394531 12.265625 4.601562 12.398438 C 4.535156 12.554688 4.535156 12.554688 4.472656 12.710938 C 3.90625 14.203125 3.921875 15.605469 3.945312 17.183594 C 3.941406 17.746094 3.925781 18.25 3.800781 18.800781 C 3.222656 19.34375 3.222656 19.34375 2.601562 19.601562 C 2.125 19.550781 2.125 19.550781 1.800781 19.398438 C 1.734375 19.003906 1.667969 18.609375 1.601562 18.199219 C 1.402344 18.199219 1.203125 18.199219 1 18.199219 C 1 18.332031 1 18.464844 1 18.601562 C 0.800781 18.601562 0.605469 18.601562 0.398438 18.601562 C 0.398438 18.730469 0.398438 18.863281 0.398438 19 C 0.269531 19 0.136719 19 0 19 C 0 17.152344 0 15.304688 0 13.398438 C 0.328125 13.335938 0.660156 13.269531 1 13.199219 C 1 13.332031 1 13.464844 1 13.601562 C 2.089844 13.5 2.089844 13.5 3.199219 13.398438 C 3.199219 13.269531 3.199219 13.136719 3.199219 13 C 3.398438 13 3.597656 13 3.800781 13 C 3.867188 12.671875 3.933594 12.339844 4 12 Z M 4 12 "/>
<path style=" stroke:none;fill-rule:nonzero;fill:rgb(22.745098%,10.196079%,2.745098%);fill-opacity:1;" d="M 21 1 C 21.265625 1.132812 21.527344 1.265625 21.800781 1.398438 C 21.800781 1.664062 21.800781 1.929688 21.800781 2.199219 C 21.664062 2.242188 21.527344 2.289062 21.386719 2.332031 C 20.632812 2.675781 20.050781 3.144531 19.414062 3.664062 C 19.292969 3.757812 19.175781 3.851562 19.050781 3.949219 C 18.582031 4.324219 18.113281 4.703125 17.660156 5.09375 C 16.839844 5.800781 16.839844 5.800781 16.398438 5.800781 C 16.378906 5.921875 16.359375 6.039062 16.339844 6.164062 C 16.171875 6.683594 15.996094 6.839844 15.570312 7.175781 C 15.441406 7.28125 15.3125 7.386719 15.175781 7.492188 C 15.035156 7.601562 14.894531 7.710938 14.75 7.824219 C 14.605469 7.9375 14.464844 8.054688 14.316406 8.171875 C 13.628906 8.71875 12.933594 9.253906 12.214844 9.765625 C 12.097656 9.851562 11.976562 9.9375 11.855469 10.027344 C 11.53125 10.261719 11.203125 10.488281 10.875 10.71875 C 10.25 11.257812 10.25 11.257812 10.199219 12.601562 C 9.210938 12.601562 8.21875 12.601562 7.199219 12.601562 C 7.199219 12.203125 7.199219 11.808594 7.199219 11.398438 C 7.371094 11.355469 7.542969 11.308594 7.71875 11.261719 C 8.496094 10.964844 9.066406 10.535156 9.699219 10.011719 C 9.945312 9.8125 10.191406 9.617188 10.4375 9.417969 C 10.5625 9.316406 10.6875 9.214844 10.816406 9.109375 C 11.433594 8.609375 12.0625 8.125 12.6875 7.636719 C 13.40625 7.078125 14.113281 6.511719 14.789062 5.898438 C 15.398438 5.398438 15.398438 5.398438 16.0625 5.128906 C 16.824219 4.816406 17.378906 4.367188 18 3.824219 C 18.65625 3.257812 19.304688 2.707031 20.023438 2.226562 C 20.558594 1.832031 20.792969 1.621094 21 1 Z M 21 1 "/>
<path style=" stroke:none;fill-rule:nonzero;fill:rgb(60.784316%,34.509805%,8.235294%);fill-opacity:1;" d="M 28 15 C 28.066406 15 28.132812 15 28.199219 15 C 28.265625 18.695312 28.332031 22.390625 28.398438 26.199219 C 28.929688 26.199219 29.457031 26.199219 30 26.199219 C 30 26.53125 30 26.859375 30 27.199219 C 30.269531 26.976562 30.269531 26.976562 30.210938 26.386719 C 30.207031 26.195312 30.203125 26 30.199219 25.800781 C 30.460938 25.726562 30.726562 25.65625 30.988281 25.585938 C 31.132812 25.546875 31.28125 25.507812 31.429688 25.46875 C 31.550781 25.445312 31.675781 25.421875 31.800781 25.398438 C 32.269531 25.867188 32.046875 27.007812 32.050781 27.636719 C 32.054688 27.828125 32.058594 28.015625 32.0625 28.210938 C 32.070312 29.292969 32.015625 30.070312 31.398438 31 C 30.558594 31.800781 30.558594 31.800781 29.800781 31.800781 C 29.867188 31.601562 29.933594 31.402344 30 31.199219 C 29.933594 31.003906 29.867188 30.804688 29.800781 30.601562 C 29.667969 30.535156 29.535156 30.46875 29.398438 30.398438 C 29.425781 29.9375 29.425781 29.9375 29.601562 29.398438 C 30.210938 29.039062 30.210938 29.039062 30.800781 28.800781 C 30.699219 28.699219 30.699219 28.699219 30.601562 28.601562 C 30.375 28.605469 30.144531 28.609375 29.914062 28.613281 C 28.910156 28.628906 27.972656 28.421875 27 28.199219 C 27.128906 28.023438 27.257812 27.851562 27.390625 27.667969 C 28.027344 26.550781 27.921875 25.335938 27.921875 24.082031 C 27.925781 23.820312 27.929688 23.5625 27.933594 23.292969 C 27.941406 22.609375 27.945312 21.921875 27.949219 21.234375 C 27.953125 20.53125 27.960938 19.828125 27.96875 19.125 C 27.984375 17.75 27.992188 16.375 28 15 Z M 28 15 "/>
<path style=" stroke:none;fill-rule:nonzero;fill:rgb(61.960787%,35.294119%,8.235294%);fill-opacity:1;" d="M 3.800781 24.601562 C 5.253906 24.601562 6.703125 24.601562 8.199219 24.601562 C 8.199219 25.128906 8.199219 25.65625 8.199219 26.199219 C 6.8125 26.199219 5.429688 26.199219 4 26.199219 C 4.199219 26.660156 4.394531 27.125 4.601562 27.601562 C 4.601562 27.796875 4.601562 27.996094 4.601562 28.199219 C 4.386719 28.199219 4.171875 28.195312 3.949219 28.191406 C 3.671875 28.191406 3.390625 28.1875 3.113281 28.1875 C 2.898438 28.183594 2.898438 28.183594 2.683594 28.183594 C 2.324219 28.179688 1.960938 28.191406 1.601562 28.199219 C 1.308594 28.488281 1.289062 28.808594 1.199219 29.199219 C 0.9375 29.265625 0.671875 29.332031 0.398438 29.398438 C 0.398438 29.269531 0.398438 29.136719 0.398438 29 C 0.269531 29 0.136719 29 0 29 C 0 27.679688 0 26.359375 0 25 C 1.132812 25 1.351562 25 2.199219 25.601562 C 2.167969 25.824219 2.132812 26.046875 2.101562 26.273438 C 1.992188 26.945312 1.992188 26.945312 2 27.398438 C 2.265625 27.136719 2.527344 26.871094 2.800781 26.601562 C 3.0625 26.730469 3.328125 26.863281 3.601562 27 C 3.664062 26.207031 3.730469 25.414062 3.800781 24.601562 Z M 3.800781 24.601562 "/>
<path style=" stroke:none;fill-rule:nonzero;fill:rgb(50.588238%,27.843139%,6.27451%);fill-opacity:1;" d="M 26.800781 28 C 28.089844 28.101562 29.335938 28.328125 30.601562 28.601562 C 30.664062 28.46875 30.730469 28.335938 30.800781 28.199219 C 30.898438 28.496094 30.898438 28.496094 31 28.800781 C 30.773438 28.914062 30.546875 29.03125 30.3125 29.148438 C 29.726562 29.472656 29.726562 29.472656 29.414062 30.050781 C 29.410156 30.164062 29.402344 30.28125 29.398438 30.398438 C 29.992188 30.5 29.992188 30.5 30.601562 30.601562 C 30.46875 30.730469 30.335938 30.863281 30.199219 31 C 30.199219 31.199219 30.199219 31.394531 30.199219 31.601562 C 31.101562 31.160156 31.414062 30.71875 31.800781 29.800781 C 31.867188 29.800781 31.933594 29.800781 32 29.800781 C 32 30.527344 32 31.253906 32 32 C 30.480469 32 28.964844 32 27.398438 32 C 27.53125 31.734375 27.664062 31.472656 27.800781 31.199219 C 27.75 30.792969 27.75 30.792969 27.601562 30.398438 C 27.378906 29.65625 27.378906 29.65625 27.574219 29.101562 C 27.6875 28.953125 27.6875 28.953125 27.800781 28.800781 C 27.601562 28.867188 27.402344 28.933594 27.199219 29 C 26.933594 29.015625 26.664062 29.023438 26.398438 29.019531 C 26.171875 29.019531 26.171875 29.019531 25.9375 29.015625 C 25.78125 29.015625 25.625 29.015625 25.460938 29.011719 C 25.304688 29.011719 25.144531 29.011719 24.980469 29.007812 C 24.585938 29.007812 24.191406 29.003906 23.800781 29 C 23.800781 28.867188 23.800781 28.734375 23.800781 28.601562 C 17.925781 28.601562 12.050781 28.601562 6 28.601562 C 6 28.535156 6 28.46875 6 28.398438 C 6.257812 28.398438 6.515625 28.394531 6.78125 28.394531 C 9.203125 28.375 11.625 28.355469 14.046875 28.332031 C 15.292969 28.320312 16.539062 28.308594 17.785156 28.300781 C 18.984375 28.292969 20.183594 28.28125 21.386719 28.269531 C 21.84375 28.265625 22.304688 28.261719 22.765625 28.257812 C 23.40625 28.253906 24.046875 28.246094 24.6875 28.242188 C 24.878906 28.238281 25.070312 28.238281 25.269531 28.238281 C 25.527344 28.234375 25.527344 28.234375 25.792969 28.230469 C 25.945312 28.230469 26.097656 28.230469 26.253906 28.226562 C 26.605469 28.238281 26.605469 28.238281 26.800781 28 Z M 26.800781 28 "/>
<path style=" stroke:none;fill-rule:nonzero;fill:rgb(74.901962%,33.725491%,12.54902%);fill-opacity:1;" d="M 17 16.398438 C 16.859375 16.433594 16.714844 16.46875 16.570312 16.503906 C 16.386719 16.550781 16.203125 16.601562 16.011719 16.648438 C 15.738281 16.71875 15.738281 16.71875 15.457031 16.789062 C 14.960938 16.953125 14.960938 16.953125 14.835938 17.421875 C 14.824219 17.546875 14.8125 17.671875 14.800781 17.800781 C 14.800781 17.601562 14.800781 17.402344 14.800781 17.199219 C 14.667969 17.332031 14.535156 17.464844 14.398438 17.601562 C 15.128906 18.125 15.695312 18.492188 16.601562 18.601562 C 16.535156 18.136719 16.46875 17.675781 16.398438 17.199219 C 16.464844 17.464844 16.53125 17.726562 16.601562 18 C 16.863281 18 17.128906 18 17.398438 18 C 17.335938 18.132812 17.269531 18.265625 17.199219 18.398438 C 17.199219 18.597656 17.199219 18.796875 17.199219 19 C 17.003906 19.066406 16.804688 19.132812 16.601562 19.199219 C 16.929688 19.464844 17.261719 19.726562 17.601562 20 C 17.601562 19.140625 17.601562 18.285156 17.601562 17.398438 C 18.027344 18.039062 18.046875 18.203125 18.023438 18.9375 C 18.019531 19.097656 18.019531 19.261719 18.015625 19.425781 C 18.007812 19.550781 18.003906 19.671875 18 19.800781 C 18.132812 19.867188 18.265625 19.933594 18.398438 20 C 18.464844 19.605469 18.53125 19.207031 18.601562 18.800781 C 18.664062 18.800781 18.730469 18.800781 18.800781 18.800781 C 18.800781 19.128906 18.800781 19.460938 18.800781 19.800781 C 19.128906 19.800781 19.460938 19.800781 19.800781 19.800781 C 19.867188 19.339844 19.933594 18.875 20 18.398438 C 19.605469 18.597656 19.605469 18.597656 19.199219 18.800781 C 19.101562 17.511719 19.101562 17.511719 19 16.199219 C 19.398438 16.601562 19.398438 16.601562 19.425781 17.324219 C 19.417969 17.546875 19.410156 17.769531 19.398438 18 C 19.53125 18 19.664062 18 19.800781 18 C 19.800781 17.671875 19.800781 17.339844 19.800781 17 C 19.933594 17.066406 20.0625 17.132812 20.199219 17.199219 C 20.28125 17.789062 20.28125 17.789062 20.324219 18.511719 C 20.339844 18.753906 20.355469 18.992188 20.371094 19.238281 C 20.378906 19.421875 20.390625 19.609375 20.398438 19.800781 C 20.398438 19.074219 20.398438 18.347656 20.398438 17.601562 C 20.53125 17.664062 20.664062 17.730469 20.800781 17.800781 C 20.800781 18.328125 20.800781 18.855469 20.800781 19.398438 C 20.933594 19.464844 21.0625 19.53125 21.199219 19.601562 C 21 21.601562 21 21.601562 20.199219 22.398438 C 20.019531 22.363281 19.835938 22.324219 19.648438 22.289062 C 18.667969 22.15625 18.109375 22.582031 17.324219 23.136719 C 17.21875 23.222656 17.109375 23.3125 17 23.398438 C 17.300781 22.558594 17.847656 22.238281 18.601562 21.800781 C 18.730469 21.800781 18.863281 21.800781 19 21.800781 C 18.933594 21.601562 18.867188 21.402344 18.800781 21.199219 C 18.707031 21.300781 18.609375 21.398438 18.511719 21.5 C 18.199219 21.800781 18.199219 21.800781 18 21.800781 C 18 21.402344 18 21.007812 18 20.601562 C 17.867188 20.601562 17.734375 20.601562 17.601562 20.601562 C 17.46875 20.796875 17.335938 20.996094 17.199219 21.199219 C 17.066406 21.199219 16.9375 21.199219 16.800781 21.199219 C 16.800781 21.003906 16.800781 20.804688 16.800781 20.601562 C 16.46875 20.757812 16.140625 20.914062 15.8125 21.074219 C 15.628906 21.164062 15.445312 21.25 15.257812 21.34375 C 14.773438 21.558594 14.773438 21.558594 14.601562 22 C 14.269531 22 13.941406 22 13.601562 22 C 13.902344 21.394531 14.4375 21.273438 15.039062 21 C 15.433594 20.824219 15.433594 20.824219 15.601562 20.398438 C 15.46875 20.398438 15.335938 20.398438 15.199219 20.398438 C 15.199219 20.269531 15.199219 20.136719 15.199219 20 C 15.464844 20 15.726562 20 16 20 C 16.066406 20.132812 16.132812 20.265625 16.199219 20.398438 C 16.199219 20.203125 16.199219 20.003906 16.199219 19.800781 C 16.003906 19.667969 15.804688 19.535156 15.601562 19.398438 C 15.203125 19.730469 14.808594 20.058594 14.398438 20.398438 C 14.269531 20.335938 14.136719 20.269531 14 20.199219 C 14.328125 19.871094 14.660156 19.539062 15 19.199219 C 14.726562 18.566406 14.601562 18.402344 14 18 C 14.039062 17.53125 14.039062 17.53125 14.199219 17 C 14.628906 16.71875 14.628906 16.71875 15.164062 16.523438 C 15.335938 16.457031 15.511719 16.390625 15.691406 16.320312 C 16.222656 16.195312 16.492188 16.21875 17 16.398438 Z M 17 16.398438 "/>
<path style=" stroke:none;fill-rule:nonzero;fill:rgb(81.176472%,56.862748%,20.392157%);fill-opacity:1;" d="M 2.800781 0 C 5.042969 0 7.289062 0 9.601562 0 C 8.769531 0.828125 7.945312 1.566406 7.039062 2.300781 C 6.835938 2.464844 6.835938 2.464844 6.628906 2.636719 C 5.726562 3.371094 4.800781 4.007812 3.800781 4.601562 C 3.863281 4.480469 3.921875 4.359375 3.988281 4.238281 C 4.21875 3.78125 4.21875 3.78125 4.398438 3.199219 C 4.003906 3.265625 3.609375 3.332031 3.199219 3.398438 C 3.199219 3 3.199219 3 3.601562 2.601562 C 3.472656 2.542969 3.34375 2.484375 3.210938 2.425781 C 2.707031 2.148438 2.652344 1.902344 2.398438 1.398438 C 2.269531 1.335938 2.136719 1.269531 2 1.199219 C 2.265625 1.132812 2.527344 1.066406 2.800781 1 C 2.800781 0.671875 2.800781 0.339844 2.800781 0 Z M 2.800781 0 "/>
<path style=" stroke:none;fill-rule:nonzero;fill:rgb(78.039217%,52.156866%,16.862746%);fill-opacity:1;" d="M 27.601562 0 C 29.050781 0 30.503906 0 32 0 C 32 1.1875 32 2.375 32 3.601562 C 31.867188 3.601562 31.734375 3.601562 31.601562 3.601562 C 31.664062 3.929688 31.730469 4.261719 31.800781 4.601562 C 31.667969 4.601562 31.535156 4.601562 31.398438 4.601562 C 31.269531 4.335938 31.136719 4.070312 31 3.800781 C 30.867188 4.261719 30.734375 4.722656 30.601562 5.199219 C 30.199219 4.601562 30.199219 4.601562 30.25 4.148438 C 30.289062 3.988281 30.332031 3.828125 30.375 3.664062 C 30.414062 3.5 30.457031 3.339844 30.5 3.171875 C 30.546875 2.988281 30.546875 2.988281 30.601562 2.800781 C 30.480469 2.816406 30.363281 2.832031 30.242188 2.851562 C 29.378906 2.960938 28.648438 3.046875 27.800781 2.800781 C 27.546875 1.816406 27.601562 1.09375 27.601562 0 Z M 27.601562 0 "/>
<path style=" stroke:none;fill-rule:nonzero;fill:rgb(77.254903%,53.725493%,18.82353%);fill-opacity:1;" d="M 12.398438 4.800781 C 13.207031 5.117188 14.003906 5.457031 14.800781 5.800781 C 14.535156 6.59375 14.011719 6.898438 13.363281 7.375 C 13.132812 7.546875 12.90625 7.714844 12.679688 7.886719 C 12.566406 7.96875 12.453125 8.054688 12.335938 8.140625 C 12 8.398438 11.6875 8.675781 11.371094 8.957031 C 10.796875 9.402344 10.601562 9.527344 9.898438 9.488281 C 9.746094 9.480469 9.59375 9.46875 9.4375 9.460938 C 8.859375 9.378906 8.339844 9.222656 7.800781 9 C 7.996094 8.703125 7.996094 8.703125 8.199219 8.398438 C 8.277344 8.003906 8.347656 7.601562 8.398438 7.199219 C 8.992188 7.265625 9.589844 7.332031 10.199219 7.398438 C 10.199219 6.9375 10.199219 6.476562 10.199219 6 C 10.722656 5.8125 10.929688 5.769531 11.449219 5.988281 C 11.566406 6.058594 11.679688 6.128906 11.800781 6.199219 C 11.996094 5.738281 12.195312 5.277344 12.398438 4.800781 Z M 12.398438 4.800781 "/>
<path style=" stroke:none;fill-rule:nonzero;fill:rgb(50.588238%,20.784314%,5.490196%);fill-opacity:1;" d="M 16.398438 15.601562 C 16.464844 15.730469 16.53125 15.863281 16.601562 16 C 17.0625 16 17.523438 16 18 16 C 17.933594 16.265625 17.867188 16.527344 17.800781 16.800781 C 17.933594 16.800781 18.0625 16.800781 18.199219 16.800781 C 18.265625 16.535156 18.332031 16.273438 18.398438 16 C 18.53125 16.460938 18.664062 16.925781 18.800781 17.398438 C 18.933594 17.398438 19.0625 17.398438 19.199219 17.398438 C 19.265625 17.796875 19.332031 18.191406 19.398438 18.601562 C 19.597656 18.535156 19.796875 18.46875 20 18.398438 C 20 18.992188 20 19.589844 20 20.199219 C 19.933594 20.066406 19.867188 19.9375 19.800781 19.800781 C 19.324219 19.75 19.324219 19.75 18.800781 19.800781 C 18.601562 19.996094 18.402344 20.195312 18.199219 20.398438 C 18.066406 19.609375 17.9375 18.816406 17.800781 18 C 17.800781 18.726562 17.800781 19.453125 17.800781 20.199219 C 17.339844 19.871094 16.875 19.539062 16.398438 19.199219 C 16.664062 19.132812 16.929688 19.066406 17.199219 19 C 17.066406 18.734375 16.9375 18.472656 16.800781 18.199219 C 16.996094 18.132812 17.195312 18.066406 17.398438 18 C 17.136719 18.066406 16.871094 18.132812 16.601562 18.199219 C 16.601562 18.332031 16.601562 18.464844 16.601562 18.601562 C 15.707031 18.546875 15.296875 18.484375 14.613281 17.886719 C 14.476562 17.726562 14.339844 17.566406 14.199219 17.398438 C 14.859375 17.070312 15.519531 16.738281 16.199219 16.398438 C 15.804688 16.53125 15.40625 16.664062 15 16.800781 C 15 16.601562 15 16.402344 15 16.199219 C 15.460938 16.003906 15.925781 15.804688 16.398438 15.601562 Z M 16.398438 15.601562 "/>
<path style=" stroke:none;fill-rule:nonzero;fill:rgb(66.274512%,40.784314%,11.372549%);fill-opacity:1;" d="M 32 16.398438 C 32 18.3125 32 20.226562 32 22.199219 C 31.867188 21.9375 31.734375 21.671875 31.601562 21.398438 C 31.460938 21.199219 31.320312 20.996094 31.175781 20.789062 C 30.800781 20.199219 30.800781 20.199219 30.800781 19.601562 C 30.601562 19.664062 30.402344 19.730469 30.199219 19.800781 C 29.9375 19.800781 29.671875 19.800781 29.398438 19.800781 C 29.203125 19.867188 29.003906 19.933594 28.800781 20 C 28.601562 19.933594 28.402344 19.867188 28.199219 19.800781 C 28.199219 18.941406 28.199219 18.085938 28.199219 17.199219 C 29.566406 16.710938 29.566406 16.710938 30 16.601562 C 30.132812 16.664062 30.265625 16.730469 30.398438 16.800781 C 30.335938 16.933594 30.269531 17.0625 30.199219 17.199219 C 30.53125 17.132812 30.859375 17.066406 31.199219 17 C 31.132812 16.867188 31.066406 16.734375 31 16.601562 C 31.773438 16.398438 31.773438 16.398438 32 16.398438 Z M 32 16.398438 "/>
<path style=" stroke:none;fill-rule:nonzero;fill:rgb(70.19608%,45.882353%,14.901961%);fill-opacity:1;" d="M 28.398438 12.800781 C 28.597656 12.867188 28.796875 12.933594 29 13 C 29 13.132812 29 13.265625 29 13.398438 C 29.59375 13.5 29.59375 13.5 30.199219 13.601562 C 30.199219 13.796875 30.199219 13.996094 30.199219 14.199219 C 31.039062 14.226562 31.039062 14.226562 32 14 C 32 14.792969 32 15.585938 32 16.398438 C 31.605469 16.597656 31.605469 16.597656 31.199219 16.800781 C 31.265625 16.933594 31.332031 17.0625 31.398438 17.199219 C 31.003906 17.199219 30.609375 17.199219 30.199219 17.199219 C 30.132812 17.066406 30.066406 16.9375 30 16.800781 C 29.40625 16.933594 28.8125 17.0625 28.199219 17.199219 C 28.132812 16.144531 28.066406 15.089844 28 14 C 28.199219 14.296875 28.199219 14.296875 28.398438 14.601562 C 28.585938 13.695312 28.585938 13.695312 28.398438 12.800781 Z M 28.398438 12.800781 "/>
<path style=" stroke:none;fill-rule:nonzero;fill:rgb(82.352942%,60.000002%,23.529412%);fill-opacity:1;" d="M 16.800781 0 C 16.996094 0 17.195312 0 17.398438 0 C 17.398438 0.132812 17.398438 0.265625 17.398438 0.398438 C 17.59375 0.453125 17.789062 0.507812 17.988281 0.5625 C 18.191406 0.640625 18.390625 0.71875 18.601562 0.800781 C 18.800781 1.398438 18.800781 1.398438 18.5625 1.914062 C 18.195312 2.40625 17.964844 2.585938 17.398438 2.800781 C 16.785156 2.242188 16.609375 2.039062 16.398438 1.199219 C 16.398438 1.859375 16.398438 2.519531 16.398438 3.199219 C 16.203125 3.199219 16.003906 3.199219 15.800781 3.199219 C 15.800781 3.398438 15.800781 3.597656 15.800781 3.800781 C 15.667969 3.867188 15.535156 3.933594 15.398438 4 C 15.664062 4.265625 15.929688 4.527344 16.199219 4.800781 C 16.332031 4.734375 16.464844 4.667969 16.601562 4.601562 C 16.46875 4.863281 16.335938 5.128906 16.199219 5.398438 C 16.003906 5.269531 15.804688 5.136719 15.601562 5 C 15.601562 4.867188 15.601562 4.734375 15.601562 4.601562 C 15.476562 4.5625 15.347656 4.523438 15.21875 4.484375 C 15.058594 4.429688 14.894531 4.378906 14.726562 4.324219 C 14.5625 4.273438 14.398438 4.222656 14.234375 4.171875 C 13.800781 4 13.800781 4 13.398438 3.601562 C 13.203125 3.601562 13.003906 3.601562 12.800781 3.601562 C 13.546875 2.835938 14.324219 2.128906 15.136719 1.4375 C 15.253906 1.335938 15.371094 1.238281 15.488281 1.132812 C 16.351562 0.398438 16.351562 0.398438 16.800781 0.398438 C 16.800781 0.269531 16.800781 0.136719 16.800781 0 Z M 16.800781 0 "/>
<path style=" stroke:none;fill-rule:nonzero;fill:rgb(70.19608%,45.490196%,14.509805%);fill-opacity:1;" d="M 4 12 C 4.199219 12.132812 4.394531 12.265625 4.601562 12.398438 C 4.503906 12.640625 4.410156 12.878906 4.3125 13.125 C 3.882812 14.386719 3.855469 15.679688 3.800781 17 C 3.3125 16.925781 3.3125 16.925781 2.800781 16.800781 C 2.734375 16.667969 2.667969 16.535156 2.601562 16.398438 C 2.441406 16.4375 2.285156 16.472656 2.125 16.511719 C 1.601562 16.601562 1.601562 16.601562 1.199219 16.398438 C 1.050781 15.914062 1.050781 15.914062 1 15.398438 C 1.132812 15.269531 1.265625 15.136719 1.398438 15 C 1.203125 14.867188 1.003906 14.734375 0.800781 14.601562 C 0.800781 14.46875 0.800781 14.335938 0.800781 14.199219 C 0.601562 14.265625 0.402344 14.332031 0.199219 14.398438 C 0.265625 14.136719 0.332031 13.871094 0.398438 13.601562 C 0.269531 13.535156 0.136719 13.46875 0 13.398438 C 0.328125 13.335938 0.660156 13.269531 1 13.199219 C 1 13.332031 1 13.464844 1 13.601562 C 2.089844 13.5 2.089844 13.5 3.199219 13.398438 C 3.199219 13.269531 3.199219 13.136719 3.199219 13 C 3.398438 13 3.597656 13 3.800781 13 C 3.867188 12.671875 3.933594 12.339844 4 12 Z M 4 12 "/>
<path style=" stroke:none;fill-rule:nonzero;fill:rgb(61.176473%,26.274511%,8.627451%);fill-opacity:1;" d="M 16.800781 20 C 17.199219 20.398438 17.199219 20.398438 17.199219 21 C 17.332031 20.800781 17.464844 20.605469 17.601562 20.398438 C 18.375 20.75 18.375 20.75 18.601562 21.199219 C 18.664062 21.003906 18.730469 20.804688 18.800781 20.601562 C 18.867188 20.601562 18.933594 20.601562 19 20.601562 C 19.101562 21.136719 19.101562 21.136719 19 21.800781 C 18.621094 22.101562 18.222656 22.320312 17.796875 22.554688 C 17.277344 22.875 17.050781 23.25 16.800781 23.800781 C 16.402344 23.734375 16.007812 23.667969 15.601562 23.601562 C 15.601562 23.402344 15.601562 23.203125 15.601562 23 C 15.441406 22.972656 15.285156 22.941406 15.125 22.914062 C 14.601562 22.800781 14.601562 22.800781 14.199219 22.601562 C 14.199219 22.46875 14.199219 22.335938 14.199219 22.199219 C 14.066406 22.132812 13.9375 22.066406 13.800781 22 C 14.0625 22 14.328125 22 14.601562 22 C 14.664062 21.800781 14.730469 21.605469 14.800781 21.398438 C 15.253906 21.164062 15.714844 20.992188 16.195312 20.8125 C 16.667969 20.625 16.667969 20.625 16.800781 20 Z M 16.800781 20 "/>
<path style=" stroke:none;fill-rule:nonzero;fill:rgb(79.607844%,54.509807%,18.431373%);fill-opacity:1;" d="M 0 0 C 0.925781 0 1.847656 0 2.800781 0 C 2.800781 0.328125 2.800781 0.660156 2.800781 1 C 2.601562 1.066406 2.402344 1.132812 2.199219 1.199219 C 2.199219 1.398438 2.199219 1.597656 2.199219 1.800781 C 2.003906 1.898438 2.003906 1.898438 1.800781 2 C 1.582031 2.59375 1.59375 2.777344 1.800781 3.398438 C 1.667969 3.398438 1.535156 3.398438 1.398438 3.398438 C 1.335938 3.53125 1.269531 3.664062 1.199219 3.800781 C 1.066406 3.734375 0.9375 3.667969 0.800781 3.601562 C 0.734375 3.863281 0.667969 4.128906 0.601562 4.398438 C 0.46875 4.398438 0.335938 4.398438 0.199219 4.398438 C 0.132812 4.53125 0.0664062 4.664062 0 4.800781 C 0 3.214844 0 1.632812 0 0 Z M 0 0 "/>
<path style=" stroke:none;fill-rule:nonzero;fill:rgb(68.235296%,30.19608%,10.588235%);fill-opacity:1;" d="M 19 16.199219 C 19.398438 16.601562 19.398438 16.601562 19.425781 17.324219 C 19.417969 17.546875 19.410156 17.769531 19.398438 18 C 19.53125 18 19.664062 18 19.800781 18 C 19.800781 17.671875 19.800781 17.339844 19.800781 17 C 19.933594 17.066406 20.0625 17.132812 20.199219 17.199219 C 20.28125 17.789062 20.28125 17.789062 20.324219 18.511719 C 20.339844 18.753906 20.355469 18.992188 20.371094 19.238281 C 20.378906 19.421875 20.390625 19.609375 20.398438 19.800781 C 20.398438 19.074219 20.398438 18.347656 20.398438 17.601562 C 20.53125 17.664062 20.664062 17.730469 20.800781 17.800781 C 20.800781 18.328125 20.800781 18.855469 20.800781 19.398438 C 20.933594 19.464844 21.0625 19.53125 21.199219 19.601562 C 21 21.601562 21 21.601562 20.199219 22.398438 C 20.019531 22.363281 19.835938 22.324219 19.648438 22.289062 C 18.667969 22.15625 18.109375 22.582031 17.324219 23.136719 C 17.21875 23.222656 17.109375 23.3125 17 23.398438 C 17.300781 22.558594 17.847656 22.238281 18.601562 21.800781 C 18.730469 21.800781 18.863281 21.800781 19 21.800781 C 18.933594 21.601562 18.867188 21.402344 18.800781 21.199219 C 18.667969 21.332031 18.535156 21.464844 18.398438 21.601562 C 18.335938 21.269531 18.269531 20.941406 18.199219 20.601562 C 18.332031 20.535156 18.464844 20.46875 18.601562 20.398438 C 18.664062 20.203125 18.730469 20.003906 18.800781 19.800781 C 19.128906 19.800781 19.460938 19.800781 19.800781 19.800781 C 19.867188 19.339844 19.933594 18.875 20 18.398438 C 19.605469 18.597656 19.605469 18.597656 19.199219 18.800781 C 19.132812 17.941406 19.066406 17.085938 19 16.199219 Z M 19 16.199219 "/>
<path style=" stroke:none;fill-rule:nonzero;fill:rgb(53.725493%,25.098041%,6.27451%);fill-opacity:1;" d="M 4 24.601562 C 5.386719 24.601562 6.773438 24.601562 8.199219 24.601562 C 8.199219 25.128906 8.199219 25.65625 8.199219 26.199219 C 6.8125 26.199219 5.429688 26.199219 4 26.199219 C 4 25.671875 4 25.144531 4 24.601562 Z M 4 24.601562 "/>
<path style=" stroke:none;fill-rule:nonzero;fill:rgb(63.137257%,27.450982%,9.019608%);fill-opacity:1;" d="M 13.800781 17.398438 C 14.394531 17.960938 14.890625 18.4375 15.199219 19.199219 C 14.9375 19.53125 14.671875 19.859375 14.398438 20.199219 C 14.796875 19.871094 15.191406 19.539062 15.601562 19.199219 C 15.929688 19.53125 16.261719 19.859375 16.601562 20.199219 C 16.203125 20.398438 16.203125 20.398438 15.800781 20.601562 C 15.867188 20.402344 15.933594 20.203125 16 20 C 15.734375 20 15.472656 20 15.199219 20 C 15.199219 20.132812 15.199219 20.265625 15.199219 20.398438 C 15.332031 20.398438 15.464844 20.398438 15.601562 20.398438 C 15.328125 21.214844 14.9375 21.394531 14.199219 21.800781 C 13.761719 21.722656 13.761719 21.722656 13.398438 21.601562 C 13.15625 20.046875 13.234375 18.871094 13.800781 17.398438 Z M 13.800781 17.398438 "/>
<path style=" stroke:none;fill-rule:nonzero;fill:rgb(63.137257%,36.078432%,9.019608%);fill-opacity:1;" d="M 2 29 C 2.066406 29.132812 2.132812 29.265625 2.199219 29.398438 C 2.707031 29.53125 2.707031 29.53125 3.199219 29.601562 C 3.425781 30.351562 3.425781 30.351562 3.199219 30.800781 C 3.398438 30.867188 3.597656 30.933594 3.800781 31 C 3.613281 31.023438 3.613281 31.023438 3.425781 31.050781 C 2.964844 31.164062 2.964844 31.164062 2.75 31.613281 C 2.699219 31.742188 2.652344 31.867188 2.601562 32 C 1.628906 31.777344 1.042969 31.574219 0.398438 30.800781 C 0.550781 30.414062 0.550781 30.414062 0.800781 30 C 1.226562 29.851562 1.226562 29.851562 1.601562 29.800781 C 1.601562 29.601562 1.601562 29.402344 1.601562 29.199219 C 1.730469 29.132812 1.863281 29.066406 2 29 Z M 2 29 "/>
<path style=" stroke:none;fill-rule:nonzero;fill:rgb(80.000001%,54.901963%,19.215687%);fill-opacity:1;" d="M 28.398438 0 C 30.007812 -0.15625 30.007812 -0.15625 30.8125 0.5 C 30.941406 0.664062 31.066406 0.828125 31.199219 1 C 30.140625 1.617188 30.140625 1.617188 29.425781 1.539062 C 29.285156 1.492188 29.144531 1.445312 29 1.398438 C 29.429688 1.871094 29.828125 2.128906 30.398438 2.398438 C 30.074219 2.445312 29.75 2.484375 29.425781 2.523438 C 29.242188 2.546875 29.0625 2.570312 28.875 2.59375 C 28.71875 2.597656 28.5625 2.597656 28.398438 2.601562 C 28 2.199219 28 2.199219 27.960938 1.765625 C 27.964844 1.605469 27.96875 1.441406 27.976562 1.273438 C 27.980469 1.113281 27.980469 0.949219 27.984375 0.78125 C 27.992188 0.65625 27.996094 0.527344 28 0.398438 C 28.132812 0.398438 28.265625 0.398438 28.398438 0.398438 C 28.398438 0.269531 28.398438 0.136719 28.398438 0 Z M 28.398438 0 "/>
<path style=" stroke:none;fill-rule:nonzero;fill:rgb(53.725493%,25.098041%,6.27451%);fill-opacity:1;" d="M 15.800781 13 C 16.722656 13 17.648438 13 18.601562 13 C 18.601562 13.59375 18.601562 14.1875 18.601562 14.800781 C 17.675781 14.800781 16.753906 14.800781 15.800781 14.800781 C 15.800781 14.207031 15.800781 13.613281 15.800781 13 Z M 15.800781 13 "/>
<path style=" stroke:none;fill-rule:nonzero;fill:rgb(80.784315%,36.862746%,14.117648%);fill-opacity:1;" d="M 17 16.398438 C 16.859375 16.433594 16.714844 16.46875 16.570312 16.503906 C 16.386719 16.550781 16.203125 16.601562 16.011719 16.648438 C 15.738281 16.71875 15.738281 16.71875 15.457031 16.789062 C 14.960938 16.953125 14.960938 16.953125 14.835938 17.421875 C 14.824219 17.546875 14.8125 17.671875 14.800781 17.800781 C 14.800781 17.601562 14.800781 17.402344 14.800781 17.199219 C 14.667969 17.332031 14.535156 17.464844 14.398438 17.601562 C 15.128906 18.125 15.695312 18.492188 16.601562 18.601562 C 16.535156 18.136719 16.46875 17.675781 16.398438 17.199219 C 16.464844 17.464844 16.53125 17.726562 16.601562 18 C 16.863281 18 17.128906 18 17.398438 18 C 17.335938 18.132812 17.269531 18.265625 17.199219 18.398438 C 17.199219 18.597656 17.199219 18.796875 17.199219 19 C 17.003906 19.066406 16.804688 19.132812 16.601562 19.199219 C 16.664062 19.332031 16.730469 19.464844 16.800781 19.601562 C 16.601562 19.664062 16.402344 19.730469 16.199219 19.800781 C 16.003906 19.667969 15.804688 19.535156 15.601562 19.398438 C 15.203125 19.730469 14.808594 20.058594 14.398438 20.398438 C 14.269531 20.335938 14.136719 20.269531 14 20.199219 C 14.328125 19.871094 14.660156 19.539062 15 19.199219 C 14.726562 18.566406 14.601562 18.402344 14 18 C 14.039062 17.53125 14.039062 17.53125 14.199219 17 C 14.628906 16.71875 14.628906 16.71875 15.164062 16.523438 C 15.335938 16.457031 15.511719 16.390625 15.691406 16.320312 C 16.222656 16.195312 16.492188 16.21875 17 16.398438 Z M 17 16.398438 "/>
<path style=" stroke:none;fill-rule:nonzero;fill:rgb(54.509807%,22.745098%,6.666667%);fill-opacity:1;" d="M 18.199219 16 C 18.671875 16.472656 18.699219 16.753906 18.800781 17.398438 C 18.933594 17.398438 19.0625 17.398438 19.199219 17.398438 C 19.265625 17.796875 19.332031 18.191406 19.398438 18.601562 C 19.597656 18.535156 19.796875 18.46875 20 18.398438 C 20 18.992188 20 19.589844 20 20.199219 C 19.933594 20.066406 19.867188 19.9375 19.800781 19.800781 C 19.324219 19.75 19.324219 19.75 18.800781 19.800781 C 18.601562 19.996094 18.402344 20.195312 18.199219 20.398438 C 18.066406 19.609375 17.9375 18.816406 17.800781 18 C 17.933594 18.132812 18.0625 18.265625 18.199219 18.398438 C 18.199219 18.070312 18.199219 17.738281 18.199219 17.398438 C 18.066406 17.335938 17.9375 17.269531 17.800781 17.199219 C 17.800781 17.066406 17.800781 16.9375 17.800781 16.800781 C 17.933594 16.800781 18.0625 16.800781 18.199219 16.800781 C 18.199219 16.535156 18.199219 16.273438 18.199219 16 Z M 18.199219 16 "/>
<path style=" stroke:none;fill-rule:nonzero;fill:rgb(79.215688%,53.725493%,18.431373%);fill-opacity:1;" d="M 27.398438 0.398438 C 27.398438 0.867188 27.398438 1.332031 27.398438 1.800781 C 27.464844 2.066406 27.527344 2.335938 27.601562 2.601562 C 27.4375 2.597656 27.277344 2.589844 27.113281 2.585938 C 26.613281 2.539062 26.613281 2.539062 26.398438 2.800781 C 26.066406 2.808594 25.734375 2.808594 25.398438 2.800781 C 25.402344 2.617188 25.410156 2.4375 25.414062 2.25 C 25.402344 1.714844 25.355469 1.304688 25.199219 0.800781 C 25.429688 0.8125 25.429688 0.8125 25.664062 0.824219 C 26.378906 0.792969 26.667969 0.398438 27.398438 0.398438 Z M 27.398438 0.398438 "/>
<path style=" stroke:none;fill-rule:nonzero;fill:rgb(65.098041%,40.392157%,12.941177%);fill-opacity:1;" d="M 28.601562 20.398438 C 29.128906 20.398438 29.65625 20.398438 30.199219 20.398438 C 30.417969 21.058594 30.359375 21.34375 30.199219 22 C 30.066406 22 29.9375 22 29.800781 22 C 29.800781 22.199219 29.800781 22.394531 29.800781 22.601562 C 29.273438 22.535156 28.742188 22.46875 28.199219 22.398438 C 28.199219 21.871094 28.199219 21.34375 28.199219 20.800781 C 28.332031 20.800781 28.464844 20.800781 28.601562 20.800781 C 28.601562 20.667969 28.601562 20.535156 28.601562 20.398438 Z M 28.601562 20.398438 "/>
<path style=" stroke:none;fill-rule:nonzero;fill:rgb(61.56863%,34.901962%,8.235294%);fill-opacity:1;" d="M 6 30.398438 C 6.394531 30.398438 6.792969 30.398438 7.199219 30.398438 C 7.453125 30.980469 7.601562 31.359375 7.601562 32 C 6.542969 32 5.488281 32 4.398438 32 C 4.335938 31.800781 4.269531 31.605469 4.199219 31.398438 C 5.351562 31 5.351562 31 5.800781 31 C 5.867188 30.800781 5.933594 30.605469 6 30.398438 Z M 6 30.398438 "/>
<path style=" stroke:none;fill-rule:nonzero;fill:rgb(66.666669%,41.568628%,13.333334%);fill-opacity:1;" d="M 31.199219 17.601562 C 31.199219 17.730469 31.199219 17.863281 31.199219 18 C 31.066406 18 30.9375 18 30.800781 18 C 30.800781 18.132812 30.800781 18.265625 30.800781 18.398438 C 30.996094 18.464844 31.195312 18.53125 31.398438 18.601562 C 31.335938 18.730469 31.269531 18.863281 31.199219 19 C 31.066406 19 30.9375 19 30.800781 19 C 30.800781 19.199219 30.800781 19.394531 30.800781 19.601562 C 30.601562 19.664062 30.402344 19.730469 30.199219 19.800781 C 29.5625 19.414062 29.5625 19.414062 29 19 C 29.175781 18.050781 29.175781 18.050781 29.398438 17.601562 C 30.09375 17.367188 30.492188 17.457031 31.199219 17.601562 Z M 31.199219 17.601562 "/>
<path style=" stroke:none;fill-rule:nonzero;fill:rgb(54.509807%,25.490198%,6.27451%);fill-opacity:1;" d="M 13 22.601562 C 14.574219 23.773438 14.574219 23.773438 14.800781 24 C 14.835938 24.585938 14.835938 24.585938 14.800781 25.199219 C 14.667969 25.332031 14.535156 25.464844 14.398438 25.601562 C 13.875 25.523438 13.875 25.523438 13.398438 25.398438 C 13.398438 25.203125 13.398438 25.003906 13.398438 24.800781 C 13.269531 24.800781 13.136719 24.800781 13 24.800781 C 13 24.074219 13 23.347656 13 22.601562 Z M 13 22.601562 "/>
<path style=" stroke:none;fill-rule:nonzero;fill:rgb(73.725492%,49.803922%,18.431373%);fill-opacity:1;" d="M 29.800781 11.398438 C 30.0625 11.464844 30.328125 11.53125 30.601562 11.601562 C 30.664062 12.195312 30.730469 12.789062 30.800781 13.398438 C 30.125 13.570312 29.664062 13.621094 29 13.398438 C 29 13.269531 29 13.136719 29 13 C 28.867188 12.933594 28.734375 12.867188 28.601562 12.800781 C 28.960938 12.148438 29.167969 11.820312 29.800781 11.398438 Z M 29.800781 11.398438 "/>
<path style=" stroke:none;fill-rule:nonzero;fill:rgb(58.823532%,30.980393%,5.882353%);fill-opacity:1;" d="M 24.800781 30.800781 C 25.472656 30.785156 26.085938 30.8125 26.75 30.914062 C 27.375 31.058594 27.375 31.058594 27.800781 30.800781 C 27.867188 30.996094 27.933594 31.195312 28 31.398438 C 27.800781 31.699219 27.800781 31.699219 27.398438 32 C 26.835938 32.042969 26.324219 32.054688 25.761719 32.039062 C 25.613281 32.035156 25.460938 32.03125 25.308594 32.03125 C 24.9375 32.023438 24.570312 32.011719 24.199219 32 C 24.398438 31.605469 24.597656 31.207031 24.800781 30.800781 Z M 24.800781 30.800781 "/>
<path style=" stroke:none;fill-rule:nonzero;fill:rgb(52.549022%,21.568628%,5.882353%);fill-opacity:1;" d="M 17.398438 16.398438 C 17.398438 16.597656 17.398438 16.796875 17.398438 17 C 17.136719 17 16.871094 17 16.601562 17 C 16.601562 17.527344 16.601562 18.054688 16.601562 18.601562 C 15.707031 18.546875 15.296875 18.484375 14.613281 17.886719 C 14.476562 17.726562 14.339844 17.566406 14.199219 17.398438 C 14.542969 17.230469 14.890625 17.066406 15.238281 16.898438 C 15.527344 16.761719 15.527344 16.761719 15.820312 16.617188 C 16.398438 16.402344 16.789062 16.355469 17.398438 16.398438 Z M 17.398438 16.398438 "/>
<path style=" stroke:none;fill-rule:nonzero;fill:rgb(61.960787%,35.294119%,7.450981%);fill-opacity:1;" d="M 9.601562 30.199219 C 9.589844 30.347656 9.582031 30.496094 9.574219 30.648438 C 9.566406 31.265625 9.566406 31.265625 10 32 C 9.273438 32 8.546875 32 7.800781 32 C 7.734375 31.539062 7.667969 31.074219 7.601562 30.601562 C 8.324219 30.335938 8.820312 30.199219 9.601562 30.199219 Z M 9.601562 30.199219 "/>
<path style=" stroke:none;fill-rule:nonzero;fill:rgb(82.745099%,59.215689%,23.529412%);fill-opacity:1;" d="M 7.601562 0 C 8.261719 0 8.921875 0 9.601562 0 C 8.804688 0.84375 7.9375 1.523438 7 2.199219 C 6.800781 1.601562 6.800781 1.601562 6.988281 1.164062 C 7.058594 1.042969 7.128906 0.921875 7.199219 0.800781 C 7.046875 0.84375 6.894531 0.890625 6.738281 0.9375 C 6.558594 0.957031 6.382812 0.980469 6.199219 1 C 6.003906 0.800781 5.804688 0.605469 5.601562 0.398438 C 6.261719 0.464844 6.921875 0.53125 7.601562 0.601562 C 7.601562 0.402344 7.601562 0.203125 7.601562 0 Z M 7.601562 0 "/>
<path style=" stroke:none;fill-rule:nonzero;fill:rgb(69.411767%,44.313726%,13.333334%);fill-opacity:1;" d="M 32 14 C 32 14.792969 32 15.585938 32 16.398438 C 31.605469 16.597656 31.605469 16.597656 31.199219 16.800781 C 31.265625 16.933594 31.332031 17.0625 31.398438 17.199219 C 31.003906 17.199219 30.609375 17.199219 30.199219 17.199219 C 30.265625 17.003906 30.332031 16.804688 30.398438 16.601562 C 30.8125 16.460938 30.8125 16.460938 31.199219 16.398438 C 31.132812 16.203125 31.066406 16.003906 31 15.800781 C 31 15.265625 31 14.734375 31 14.199219 C 31.398438 14 31.398438 14 32 14 Z M 32 14 "/>
<path style=" stroke:none;fill-rule:nonzero;fill:rgb(62.352943%,35.686275%,8.235294%);fill-opacity:1;" d="M 6.335938 28.960938 C 6.578125 28.96875 6.578125 28.96875 6.828125 28.980469 C 6.949219 28.984375 7.074219 28.992188 7.199219 29 C 7.066406 29.132812 6.9375 29.265625 6.800781 29.398438 C 6.933594 29.664062 7.0625 29.929688 7.199219 30.199219 C 7.015625 30.191406 6.828125 30.183594 6.636719 30.175781 C 5.96875 30.144531 5.96875 30.144531 5.398438 30.601562 C 5.203125 30.601562 5.003906 30.601562 4.800781 30.601562 C 4.726562 29.699219 4.726562 29.699219 5.042969 29.269531 C 5.503906 28.921875 5.769531 28.9375 6.335938 28.960938 Z M 6.335938 28.960938 "/>
<path style=" stroke:none;fill-rule:nonzero;fill:rgb(83.137256%,59.215689%,21.960784%);fill-opacity:1;" d="M 29 0 C 29.539062 -0.0625 29.539062 -0.0625 30.199219 0 C 30.773438 0.5 30.773438 0.5 31.199219 1 C 30.140625 1.617188 30.140625 1.617188 29.425781 1.539062 C 29.285156 1.492188 29.144531 1.445312 29 1.398438 C 28.773438 0.449219 28.773438 0.449219 29 0 Z M 29 0 "/>
<path style=" stroke:none;fill-rule:nonzero;fill:rgb(28.627452%,28.627452%,28.627452%);fill-opacity:1;" d="M 7.199219 3.601562 C 7.585938 3.75 7.585938 3.75 8 4 C 8.125 4.414062 8.125 4.414062 8.199219 4.800781 C 7.953125 5.039062 7.703125 5.277344 7.449219 5.511719 C 7.3125 5.644531 7.171875 5.777344 7.027344 5.914062 C 6.601562 6.199219 6.601562 6.199219 6.167969 6.167969 C 5.683594 5.945312 5.484375 5.644531 5.199219 5.199219 C 5.597656 5.332031 5.992188 5.464844 6.398438 5.601562 C 6.464844 5.269531 6.53125 4.941406 6.601562 4.601562 C 6.402344 4.664062 6.203125 4.730469 6 4.800781 C 6 4.667969 6 4.535156 6 4.398438 C 6.335938 4.261719 6.335938 4.261719 6.800781 4.199219 C 7.351562 4.488281 7.351562 4.488281 7.800781 4.800781 C 7.503906 4.207031 7.503906 4.207031 7.199219 3.601562 Z M 7.199219 3.601562 "/>
<path style=" stroke:none;fill-rule:nonzero;fill:rgb(64.313728%,39.215687%,11.764706%);fill-opacity:1;" d="M 17.800781 29.199219 C 17.996094 29.265625 18.195312 29.332031 18.398438 29.398438 C 18.550781 29.789062 18.550781 29.789062 18.601562 30.199219 C 18.398438 30.601562 18.398438 30.601562 17.949219 30.835938 C 17.339844 31.019531 17.003906 30.972656 16.398438 30.800781 C 16.199219 30.199219 16.199219 30.199219 16.398438 29.601562 C 16.269531 29.601562 16.136719 29.601562 16 29.601562 C 15.933594 29.796875 15.867188 29.996094 15.800781 30.199219 C 15.800781 29.9375 15.800781 29.671875 15.800781 29.398438 C 16.195312 29.398438 16.59375 29.398438 17 29.398438 C 17.066406 29.597656 17.132812 29.796875 17.199219 30 C 17.332031 29.933594 17.464844 29.867188 17.601562 29.800781 C 17.730469 29.867188 17.863281 29.933594 18 30 C 17.933594 29.734375 17.867188 29.472656 17.800781 29.199219 Z M 17.800781 29.199219 "/>
<path style=" stroke:none;fill-rule:nonzero;fill:rgb(51.764709%,21.176471%,5.490196%);fill-opacity:1;" d="M 16.800781 20 C 17.199219 20.398438 17.199219 20.398438 17.199219 21 C 17.261719 21.335938 17.328125 21.667969 17.398438 22 C 16.578125 22.597656 16.003906 22.660156 15 22.601562 C 14.933594 22.335938 14.867188 22.070312 14.800781 21.800781 C 15.296875 22.097656 15.296875 22.097656 15.800781 22.398438 C 15.800781 22.269531 15.800781 22.136719 15.800781 22 C 15.933594 22 16.0625 22 16.199219 22 C 16.265625 21.867188 16.332031 21.734375 16.398438 21.601562 C 16.269531 21.535156 16.136719 21.46875 16 21.398438 C 15.933594 21.269531 15.867188 21.136719 15.800781 21 C 15.929688 20.945312 16.054688 20.894531 16.1875 20.835938 C 16.667969 20.621094 16.667969 20.621094 16.800781 20 Z M 16.800781 20 "/>
<path style=" stroke:none;fill-rule:nonzero;fill:rgb(48.235294%,19.215687%,4.705882%);fill-opacity:1;" d="M 17.398438 20.398438 C 18.375 20.75 18.375 20.75 18.601562 21.199219 C 18.664062 21.003906 18.730469 20.804688 18.800781 20.601562 C 18.867188 20.601562 18.933594 20.601562 19 20.601562 C 19.101562 21.136719 19.101562 21.136719 19 21.800781 C 18.617188 22.113281 18.226562 22.335938 17.789062 22.566406 C 17.339844 22.800781 17.339844 22.800781 17 23.398438 C 16.734375 23.398438 16.472656 23.398438 16.199219 23.398438 C 16.199219 23.203125 16.199219 23.003906 16.199219 22.800781 C 16.597656 22.601562 16.992188 22.402344 17.398438 22.199219 C 17.398438 21.605469 17.398438 21.011719 17.398438 20.398438 Z M 17.398438 20.398438 "/>
<path style=" stroke:none;fill-rule:nonzero;fill:rgb(64.313728%,38.82353%,11.372549%);fill-opacity:1;" d="M 14.800781 29.199219 C 14.933594 29.199219 15.0625 29.199219 15.199219 29.199219 C 15.425781 30.351562 15.425781 30.351562 15.199219 30.800781 C 14.609375 30.996094 14.273438 31.023438 13.675781 30.851562 C 13.214844 30.609375 12.921875 30.40625 12.601562 30 C 12.601562 29.867188 12.601562 29.734375 12.601562 29.601562 C 12.863281 29.664062 13.128906 29.730469 13.398438 29.800781 C 13.398438 29.667969 13.398438 29.535156 13.398438 29.398438 C 13.597656 29.464844 13.796875 29.53125 14 29.601562 C 13.933594 29.730469 13.867188 29.863281 13.800781 30 C 14.351562 29.902344 14.351562 29.902344 14.800781 29.601562 C 14.800781 29.46875 14.800781 29.335938 14.800781 29.199219 Z M 14.800781 29.199219 "/>
<path style=" stroke:none;fill-rule:nonzero;fill:rgb(81.568629%,58.823532%,22.745098%);fill-opacity:1;" d="M 24 2.398438 C 24 2.597656 24 2.796875 24 3 C 24.132812 3 24.265625 3 24.398438 3 C 24.363281 3.460938 24.363281 3.460938 24.199219 4 C 23.6875 4.363281 23.6875 4.363281 23.199219 4.601562 C 23.199219 4.402344 23.199219 4.203125 23.199219 4 C 23.398438 3.933594 23.597656 3.867188 23.800781 3.800781 C 23.734375 3.667969 23.667969 3.535156 23.601562 3.398438 C 23.46875 3.398438 23.335938 3.398438 23.199219 3.398438 C 23.199219 3.269531 23.199219 3.136719 23.199219 3 C 22.9375 3.066406 22.671875 3.132812 22.398438 3.199219 C 22.398438 2.9375 22.398438 2.671875 22.398438 2.398438 C 22.972656 2.113281 23.386719 2.28125 24 2.398438 Z M 24 2.398438 "/>
<path style=" stroke:none;fill-rule:nonzero;fill:rgb(18.039216%,18.039216%,18.039216%);fill-opacity:1;" d="M 4.398438 6.199219 C 4.796875 6.199219 5.191406 6.199219 5.601562 6.199219 C 5.601562 6.464844 5.601562 6.726562 5.601562 7 C 5.265625 7.296875 5.265625 7.296875 4.824219 7.574219 C 4.074219 8.097656 3.777344 8.472656 3.601562 9.398438 C 3.46875 9.335938 3.335938 9.269531 3.199219 9.199219 C 3.074219 8.585938 3.074219 8.585938 3 8 C 3.195312 7.921875 3.386719 7.84375 3.585938 7.761719 C 4.242188 7.464844 4.242188 7.464844 4.375 6.875 C 4.394531 6.539062 4.394531 6.539062 4.398438 6.199219 Z M 4.398438 6.199219 "/>
<path style=" stroke:none;fill-rule:nonzero;fill:rgb(74.509805%,33.333334%,12.54902%);fill-opacity:1;" d="M 19 16.199219 C 19.398438 16.601562 19.398438 16.601562 19.425781 17.324219 C 19.417969 17.546875 19.410156 17.769531 19.398438 18 C 19.53125 18 19.664062 18 19.800781 18 C 19.800781 17.671875 19.800781 17.339844 19.800781 17 C 19.933594 17.066406 20.0625 17.132812 20.199219 17.199219 C 20.265625 18.652344 20.332031 20.105469 20.398438 21.601562 C 20.335938 21.601562 20.269531 21.601562 20.199219 21.601562 C 20.015625 20.523438 19.976562 19.492188 20 18.398438 C 19.605469 18.597656 19.605469 18.597656 19.199219 18.800781 C 19.132812 17.941406 19.066406 17.085938 19 16.199219 Z M 19 16.199219 "/>
<path style=" stroke:none;fill-rule:nonzero;fill:rgb(64.313728%,39.607844%,12.156863%);fill-opacity:1;" d="M 10.199219 29.199219 C 10.925781 29.199219 11.652344 29.199219 12.398438 29.199219 C 12.398438 29.464844 12.398438 29.726562 12.398438 30 C 12.269531 30 12.136719 30 12 30 C 12 30.132812 12 30.265625 12 30.398438 C 11.601562 30.398438 11.199219 30.398438 10.800781 30.398438 C 10.800781 30.269531 10.800781 30.136719 10.800781 30 C 10.601562 29.933594 10.402344 29.867188 10.199219 29.800781 C 10.199219 29.601562 10.199219 29.402344 10.199219 29.199219 Z M 10.199219 29.199219 "/>
<path style=" stroke:none;fill-rule:nonzero;fill:rgb(60.000002%,25.490198%,8.235294%);fill-opacity:1;" d="M 13.800781 17.398438 C 14.300781 17.851562 14.300781 17.851562 14.800781 18.398438 C 14.800781 18.664062 14.800781 18.929688 14.800781 19.199219 C 14.667969 19.199219 14.535156 19.199219 14.398438 19.199219 C 14.335938 19.398438 14.269531 19.597656 14.199219 19.800781 C 14.066406 19.734375 13.9375 19.667969 13.800781 19.601562 C 13.601562 19.796875 13.402344 19.996094 13.199219 20.199219 C 13.28125 19.207031 13.359375 18.3125 13.800781 17.398438 Z M 13.800781 17.398438 "/>
<path style=" stroke:none;fill-rule:nonzero;fill:rgb(65.490198%,41.176471%,13.725491%);fill-opacity:1;" d="M 2.398438 23 C 2.53125 23 2.664062 23 2.800781 23 C 2.667969 23.800781 2.535156 24.601562 2.398438 25.398438 C 2.863281 25.464844 3.324219 25.53125 3.800781 25.601562 C 3.734375 25.730469 3.667969 25.863281 3.601562 26 C 3.203125 25.867188 2.808594 25.734375 2.398438 25.601562 C 2.398438 25.929688 2.398438 26.261719 2.398438 26.601562 C 2.335938 26.601562 2.269531 26.601562 2.199219 26.601562 C 2.183594 26.441406 2.167969 26.285156 2.148438 26.125 C 2.054688 25.585938 2.054688 25.585938 1.664062 25.351562 C 1.113281 25.171875 0.570312 25.078125 0 25 C 0 24.933594 0 24.867188 0 24.800781 C 1.484375 24.742188 1.484375 24.742188 2.199219 25.199219 C 2.195312 25.023438 2.191406 24.84375 2.1875 24.664062 C 2.199219 24.074219 2.265625 23.570312 2.398438 23 Z M 2.398438 23 "/>
<path style=" stroke:none;fill-rule:nonzero;fill:rgb(18.431373%,18.039216%,18.039216%);fill-opacity:1;" d="M 11.398438 0.800781 C 11.597656 0.867188 11.796875 0.933594 12 1 C 11.933594 1.265625 11.867188 1.527344 11.800781 1.800781 C 11.667969 1.800781 11.535156 1.800781 11.398438 1.800781 C 11.398438 1.996094 11.398438 2.195312 11.398438 2.398438 C 11.269531 2.398438 11.136719 2.398438 11 2.398438 C 11.042969 2.519531 11.082031 2.640625 11.125 2.761719 C 11.199219 3.199219 11.199219 3.199219 10.800781 3.800781 C 10.273438 3.835938 10.273438 3.835938 9.800781 3.800781 C 9.800781 3.667969 9.800781 3.535156 9.800781 3.398438 C 9.929688 3.378906 10.054688 3.359375 10.1875 3.335938 C 10.390625 3.269531 10.390625 3.269531 10.601562 3.199219 C 10.664062 3.003906 10.730469 2.804688 10.800781 2.601562 C 10.667969 2.601562 10.535156 2.601562 10.398438 2.601562 C 10.398438 2.46875 10.398438 2.335938 10.398438 2.199219 C 10.597656 2.132812 10.796875 2.066406 11 2 C 11.246094 1.398438 11.246094 1.398438 11.398438 0.800781 Z M 11.398438 0.800781 "/>
<path style=" stroke:none;fill-rule:nonzero;fill:rgb(0%,0%,0%);fill-opacity:1;" d="M 31.800781 29.800781 C 31.867188 29.800781 31.933594 29.800781 32 29.800781 C 32 30.527344 32 31.253906 32 32 C 31.273438 32 30.546875 32 29.800781 32 C 29.996094 31.867188 30.195312 31.734375 30.398438 31.601562 C 31.152344 31.066406 31.527344 30.6875 31.800781 29.800781 Z M 31.800781 29.800781 "/>
<path style=" stroke:none;fill-rule:nonzero;fill:rgb(78.431374%,35.686275%,13.725491%);fill-opacity:1;" d="M 17.601562 17.398438 C 18.027344 18.039062 18.046875 18.203125 18.023438 18.9375 C 18.019531 19.097656 18.019531 19.261719 18.015625 19.425781 C 18.007812 19.550781 18.003906 19.671875 18 19.800781 C 18.132812 19.867188 18.265625 19.933594 18.398438 20 C 18.464844 19.605469 18.53125 19.207031 18.601562 18.800781 C 18.664062 18.800781 18.730469 18.800781 18.800781 18.800781 C 18.800781 19.328125 18.800781 19.855469 18.800781 20.398438 C 18.601562 20.464844 18.402344 20.53125 18.199219 20.601562 C 18.199219 20.996094 18.199219 21.390625 18.199219 21.800781 C 18.132812 21.800781 18.066406 21.800781 18 21.800781 C 18 21.402344 18 21.007812 18 20.601562 C 17.800781 20.535156 17.605469 20.46875 17.398438 20.398438 C 17.53125 20.335938 17.664062 20.269531 17.800781 20.199219 C 17.734375 19.277344 17.667969 18.351562 17.601562 17.398438 Z M 17.601562 17.398438 "/>
<path style=" stroke:none;fill-rule:nonzero;fill:rgb(68.235296%,44.313726%,16.078432%);fill-opacity:1;" d="M 31.199219 17.601562 C 31.199219 17.730469 31.199219 17.863281 31.199219 18 C 31.066406 18 30.9375 18 30.800781 18 C 30.800781 18.132812 30.800781 18.265625 30.800781 18.398438 C 30.996094 18.464844 31.195312 18.53125 31.398438 18.601562 C 31.335938 18.730469 31.269531 18.863281 31.199219 19 C 30.8125 18.9375 30.8125 18.9375 30.398438 18.800781 C 30.335938 18.601562 30.269531 18.402344 30.199219 18.199219 C 29.871094 18.199219 29.539062 18.199219 29.199219 18.199219 C 29.265625 18.003906 29.332031 17.804688 29.398438 17.601562 C 30.09375 17.367188 30.492188 17.457031 31.199219 17.601562 Z M 31.199219 17.601562 "/>
<path style=" stroke:none;fill-rule:nonzero;fill:rgb(0%,0%,0%);fill-opacity:1;" d="M 0 30.199219 C 0.210938 30.429688 0.210938 30.429688 0.425781 30.664062 C 0.992188 31.191406 1.492188 31.488281 2.199219 31.800781 C 2.199219 31.867188 2.199219 31.933594 2.199219 32 C 1.472656 32 0.746094 32 0 32 C 0 31.40625 0 30.8125 0 30.199219 Z M 0 30.199219 "/>
<path style=" stroke:none;fill-rule:nonzero;fill:rgb(74.901962%,33.725491%,12.54902%);fill-opacity:1;" d="M 17.398438 21.199219 C 17.464844 21.199219 17.53125 21.199219 17.601562 21.199219 C 17.664062 21.664062 17.664062 21.664062 17.601562 22.199219 C 17.125 22.5625 16.808594 22.800781 16.199219 22.800781 C 16.199219 22.996094 16.199219 23.195312 16.199219 23.398438 C 16.464844 23.464844 16.726562 23.53125 17 23.601562 C 16.375 23.808594 16.203125 23.785156 15.601562 23.601562 C 15.601562 23.402344 15.601562 23.203125 15.601562 23 C 15.335938 22.933594 15.070312 22.867188 14.800781 22.800781 C 14.800781 22.734375 14.800781 22.667969 14.800781 22.601562 C 14.941406 22.574219 15.078125 22.546875 15.222656 22.519531 C 15.496094 22.464844 15.496094 22.464844 15.773438 22.414062 C 15.957031 22.378906 16.136719 22.34375 16.324219 22.308594 C 16.800781 22.21875 16.800781 22.21875 17.199219 22 C 17.332031 21.59375 17.332031 21.59375 17.398438 21.199219 Z M 17.398438 21.199219 "/>
<path style=" stroke:none;fill-rule:nonzero;fill:rgb(0%,0%,0%);fill-opacity:1;" d="M 30.199219 0 C 30.792969 0 31.386719 0 32 0 C 32 0.726562 32 1.453125 32 2.199219 C 31.867188 2.003906 31.734375 1.804688 31.601562 1.601562 C 31.15625 1.027344 30.714844 0.515625 30.199219 0 Z M 30.199219 0 "/>
<path style=" stroke:none;fill-rule:nonzero;fill:rgb(80.000001%,43.137255%,21.960784%);fill-opacity:1;" d="M 20 24.199219 C 20.335938 24.257812 20.667969 24.324219 21 24.398438 C 21 24.730469 21 25.058594 21 25.398438 C 20.523438 25.523438 20.523438 25.523438 20 25.601562 C 19.867188 25.46875 19.734375 25.335938 19.601562 25.199219 C 19.707031 24.492188 19.707031 24.492188 20 24.199219 Z M 20 24.199219 "/>
<path style=" stroke:none;fill-rule:nonzero;fill:rgb(49.019608%,19.607843%,4.705882%);fill-opacity:1;" d="M 15.601562 19.199219 C 15.929688 19.53125 16.261719 19.859375 16.601562 20.199219 C 16.203125 20.398438 16.203125 20.398438 15.800781 20.601562 C 15.867188 20.402344 15.933594 20.203125 16 20 C 15.734375 20 15.472656 20 15.199219 20 C 15.199219 20.132812 15.199219 20.265625 15.199219 20.398438 C 15.332031 20.398438 15.464844 20.398438 15.601562 20.398438 C 15.535156 20.597656 15.46875 20.796875 15.398438 21 C 15.269531 21 15.136719 21 15 21 C 14.675781 20.601562 14.675781 20.601562 14.398438 20.199219 C 14.796875 19.871094 15.191406 19.539062 15.601562 19.199219 Z M 15.601562 19.199219 "/>
<path style=" stroke:none;fill-rule:nonzero;fill:rgb(77.64706%,41.960785%,21.960784%);fill-opacity:1;" d="M 23.398438 26 C 23.730469 26 24.058594 26 24.398438 26 C 24.523438 26.476562 24.523438 26.476562 24.601562 27 C 24.46875 27.132812 24.335938 27.265625 24.199219 27.398438 C 23.773438 27.324219 23.773438 27.324219 23.398438 27.199219 C 23.175781 26.449219 23.175781 26.449219 23.398438 26 Z M 23.398438 26 "/>
<path style=" stroke:none;fill-rule:nonzero;fill:rgb(77.254903%,41.568628%,21.960784%);fill-opacity:1;" d="M 10 26 C 10.328125 26 10.660156 26 11 26 C 11.125 26.476562 11.125 26.476562 11.199219 27 C 11.066406 27.132812 10.9375 27.265625 10.800781 27.398438 C 10.375 27.324219 10.375 27.324219 10 27.199219 C 9.773438 26.449219 9.773438 26.449219 10 26 Z M 10 26 "/>
<path style=" stroke:none;fill-rule:nonzero;fill:rgb(80.392158%,43.529412%,22.352941%);fill-opacity:1;" d="M 13.601562 24.199219 C 13.933594 24.257812 14.269531 24.324219 14.601562 24.398438 C 14.726562 24.773438 14.726562 24.773438 14.800781 25.199219 C 14.667969 25.332031 14.535156 25.464844 14.398438 25.601562 C 13.875 25.523438 13.875 25.523438 13.398438 25.398438 C 13.390625 25.066406 13.390625 24.734375 13.398438 24.398438 C 13.464844 24.335938 13.53125 24.269531 13.601562 24.199219 Z M 13.601562 24.199219 "/>
<path style=" stroke:none;fill-rule:nonzero;fill:rgb(0%,0%,0%);fill-opacity:1;" d="M 0 0 C 0.59375 0 1.1875 0 1.800781 0 C 1.199219 0.601562 0.601562 1.199219 0 1.800781 C 0 1.207031 0 0.613281 0 0 Z M 0 0 "/>
<path style=" stroke:none;fill-rule:nonzero;fill:rgb(59.607846%,31.37255%,5.882353%);fill-opacity:1;" d="M 7 30.398438 C 7.390625 30.984375 7.492188 31.324219 7.601562 32 C 6.941406 32 6.28125 32 5.601562 32 C 5.863281 31.800781 6.128906 31.605469 6.398438 31.398438 C 6.605469 31.203125 6.804688 31.003906 7 30.800781 C 6.734375 30.867188 6.472656 30.933594 6.199219 31 C 6.199219 30.867188 6.199219 30.734375 6.199219 30.601562 C 6.464844 30.535156 6.726562 30.46875 7 30.398438 Z M 7 30.398438 "/>
<path style=" stroke:none;fill-rule:nonzero;fill:rgb(54.509807%,22.745098%,6.666667%);fill-opacity:1;" d="M 18.398438 22.199219 C 18.53125 22.265625 18.664062 22.332031 18.800781 22.398438 C 18.867188 22.597656 18.933594 22.796875 19 23 C 18.761719 23.300781 18.761719 23.300781 18.398438 23.601562 C 17.863281 23.636719 17.863281 23.636719 17.398438 23.601562 C 17.398438 23.402344 17.398438 23.203125 17.398438 23 C 17.898438 22.5625 17.898438 22.5625 18.398438 22.199219 Z M 18.398438 22.199219 "/>
<path style=" stroke:none;fill-rule:nonzero;fill:rgb(46.666667%,18.431373%,4.313726%);fill-opacity:1;" d="M 17.398438 16.398438 C 17.398438 16.597656 17.398438 16.796875 17.398438 17 C 17.136719 17 16.871094 17 16.601562 17 C 16.601562 17.527344 16.601562 18.054688 16.601562 18.601562 C 16.402344 18.601562 16.203125 18.601562 16 18.601562 C 16.066406 18.269531 16.132812 17.941406 16.199219 17.601562 C 16.066406 17.601562 15.9375 17.601562 15.800781 17.601562 C 15.734375 17.335938 15.667969 17.070312 15.601562 16.800781 C 16.226562 16.429688 16.675781 16.359375 17.398438 16.398438 Z M 17.398438 16.398438 "/>
<path style=" stroke:none;fill-rule:nonzero;fill:rgb(61.960787%,34.901962%,8.627451%);fill-opacity:1;" d="M 28 28.800781 C 28.230469 28.847656 28.230469 28.847656 28.460938 28.898438 C 29.007812 29.019531 29.007812 29.019531 29.601562 29 C 29.535156 29.199219 29.46875 29.394531 29.398438 29.601562 C 29.203125 29.664062 29.003906 29.730469 28.800781 29.800781 C 28.527344 30.058594 28.257812 30.324219 28 30.601562 C 28 30 28 29.398438 28 28.800781 Z M 28 28.800781 "/>
<path style=" stroke:none;fill-rule:nonzero;fill:rgb(63.921571%,38.039216%,10.196079%);fill-opacity:1;" d="M 0 26.199219 C 0.0664062 26.332031 0.132812 26.464844 0.199219 26.601562 C 0.398438 26.601562 0.597656 26.601562 0.800781 26.601562 C 1.023438 27.550781 1.023438 27.550781 0.800781 28 C 0.667969 28 0.535156 28 0.398438 28 C 0.335938 28.199219 0.269531 28.394531 0.199219 28.601562 C 0.132812 28.601562 0.0664062 28.601562 0 28.601562 C 0 27.808594 0 27.015625 0 26.199219 Z M 0 26.199219 "/>
<path style=" stroke:none;fill-rule:nonzero;fill:rgb(82.745099%,58.823532%,21.568628%);fill-opacity:1;" d="M 2.800781 0 C 2.996094 0 3.195312 0 3.398438 0 C 3.597656 0.609375 3.597656 0.988281 3.398438 1.601562 C 3.070312 1.664062 2.738281 1.730469 2.398438 1.800781 C 2.398438 1.667969 2.398438 1.535156 2.398438 1.398438 C 2.269531 1.335938 2.136719 1.269531 2 1.199219 C 2.265625 1.132812 2.527344 1.066406 2.800781 1 C 2.800781 0.671875 2.800781 0.339844 2.800781 0 Z M 2.800781 0 "/>
<path style=" stroke:none;fill-rule:nonzero;fill:rgb(78.039217%,56.470591%,24.705882%);fill-opacity:1;" d="M 7.398438 7.601562 C 7.464844 7.796875 7.53125 7.996094 7.601562 8.199219 C 7.402344 8.300781 7.402344 8.300781 7.199219 8.398438 C 7.054688 8.863281 6.917969 9.328125 6.800781 9.800781 C 6.734375 9.601562 6.667969 9.402344 6.601562 9.199219 C 6.203125 9.265625 5.808594 9.332031 5.398438 9.398438 C 6.035156 8.746094 6.679688 8.15625 7.398438 7.601562 Z M 7.398438 7.601562 "/>
<path style=" stroke:none;fill-rule:nonzero;fill:rgb(63.529414%,27.450982%,9.019608%);fill-opacity:1;" d="M 16.398438 15.601562 C 16.464844 15.730469 16.53125 15.863281 16.601562 16 C 17.0625 16 17.523438 16 18 16 C 17.867188 16.265625 17.734375 16.527344 17.601562 16.800781 C 17.601562 16.601562 17.601562 16.402344 17.601562 16.199219 C 17.277344 16.261719 16.957031 16.324219 16.636719 16.386719 C 16.371094 16.441406 16.371094 16.441406 16.097656 16.492188 C 15.578125 16.59375 15.578125 16.59375 15 16.800781 C 15 16.601562 15 16.402344 15 16.199219 C 15.460938 16.003906 15.925781 15.804688 16.398438 15.601562 Z M 16.398438 15.601562 "/>
<path style=" stroke:none;fill-rule:nonzero;fill:rgb(71.372551%,46.27451%,14.509805%);fill-opacity:1;" d="M 26.601562 11.199219 C 26.730469 11.199219 26.863281 11.199219 27 11.199219 C 27 11.332031 27 11.464844 27 11.601562 C 27.265625 11.601562 27.527344 11.601562 27.800781 11.601562 C 27.800781 11.796875 27.800781 11.996094 27.800781 12.199219 C 27.667969 12.199219 27.535156 12.199219 27.398438 12.199219 C 27.335938 12.398438 27.269531 12.597656 27.199219 12.800781 C 27.066406 12.667969 26.9375 12.535156 26.800781 12.398438 C 26.535156 12.261719 26.269531 12.125 26 12 C 26.199219 12 26.394531 12 26.601562 12 C 26.601562 11.734375 26.601562 11.472656 26.601562 11.199219 Z M 26.601562 11.199219 "/>
<path style=" stroke:none;fill-rule:nonzero;fill:rgb(62.352943%,35.294119%,9.019608%);fill-opacity:1;" d="M 12.199219 31 C 12.398438 31.066406 12.597656 31.132812 12.800781 31.199219 C 12.867188 31.464844 12.933594 31.726562 13 32 C 12.339844 32 11.679688 32 11 32 C 11.160156 31.871094 11.320312 31.746094 11.488281 31.613281 C 11.855469 31.320312 11.855469 31.320312 12.199219 31 Z M 12.199219 31 "/>
<path style=" stroke:none;fill-rule:nonzero;fill:rgb(58.431375%,31.37255%,5.882353%);fill-opacity:1;" d="M 3.398438 31 C 3.8125 31.148438 3.8125 31.148438 4.199219 31.398438 C 4.265625 31.597656 4.332031 31.796875 4.398438 32 C 3.804688 32 3.210938 32 2.601562 32 C 3 31.199219 3 31.199219 3.398438 31 Z M 3.398438 31 "/>
<path style=" stroke:none;fill-rule:nonzero;fill:rgb(83.92157%,63.137257%,28.627452%);fill-opacity:1;" d="M 15.398438 1.199219 C 15.601562 2 15.601562 2 15.398438 2.601562 C 15.023438 2.761719 15.023438 2.761719 14.601562 2.800781 C 14.402344 2.667969 14.203125 2.535156 14 2.398438 C 14.460938 2.003906 14.925781 1.609375 15.398438 1.199219 Z M 15.398438 1.199219 "/>
<path style=" stroke:none;fill-rule:nonzero;fill:rgb(46.27451%,18.431373%,4.313726%);fill-opacity:1;" d="M 14.800781 18.601562 C 14.933594 18.664062 15.0625 18.730469 15.199219 18.800781 C 14.945312 19.371094 14.703125 19.8125 14.199219 20.199219 C 13.9375 20.199219 13.671875 20.199219 13.398438 20.199219 C 13.460938 19.824219 13.460938 19.824219 13.601562 19.398438 C 13.796875 19.269531 13.996094 19.136719 14.199219 19 C 14.199219 19.199219 14.199219 19.394531 14.199219 19.601562 C 14.265625 19.46875 14.332031 19.335938 14.398438 19.199219 C 14.53125 19.199219 14.664062 19.199219 14.800781 19.199219 C 14.800781 19.003906 14.800781 18.804688 14.800781 18.601562 Z M 14.800781 18.601562 "/>
<path style=" stroke:none;fill-rule:nonzero;fill:rgb(79.607844%,55.686277%,19.215687%);fill-opacity:1;" d="M 12.199219 4.601562 C 12.066406 5.0625 11.9375 5.523438 11.800781 6 C 11.402344 5.867188 11.007812 5.734375 10.601562 5.601562 C 10.800781 5 10.800781 5 11.175781 4.761719 C 11.601562 4.601562 11.601562 4.601562 12.199219 4.601562 Z M 12.199219 4.601562 "/>
<path style=" stroke:none;fill-rule:nonzero;fill:rgb(78.823531%,56.470591%,22.352941%);fill-opacity:1;" d="M 20.601562 6.601562 C 20.863281 6.601562 21.128906 6.601562 21.398438 6.601562 C 21.398438 6.796875 21.398438 6.996094 21.398438 7.199219 C 21.53125 7.265625 21.664062 7.332031 21.800781 7.398438 C 21.601562 7.695312 21.601562 7.695312 21.398438 8 C 21 7.800781 21 7.800781 20.800781 7.199219 C 20.601562 7.464844 20.402344 7.726562 20.199219 8 C 20.175781 7.523438 20.175781 7.523438 20.199219 7 C 20.332031 6.867188 20.464844 6.734375 20.601562 6.601562 Z M 20.601562 6.601562 "/>
<path style=" stroke:none;fill-rule:nonzero;fill:rgb(80.000001%,55.686277%,18.82353%);fill-opacity:1;" d="M 13.398438 3.398438 C 13.53125 3.464844 13.664062 3.53125 13.800781 3.601562 C 13.800781 3.730469 13.800781 3.863281 13.800781 4 C 13.996094 4 14.195312 4 14.398438 4 C 14.398438 4.132812 14.398438 4.265625 14.398438 4.398438 C 14.136719 4.335938 13.871094 4.269531 13.601562 4.199219 C 13.601562 4.398438 13.601562 4.597656 13.601562 4.800781 C 13.335938 4.800781 13.070312 4.800781 12.800781 4.800781 C 13.175781 3.625 13.175781 3.625 13.398438 3.398438 Z M 13.398438 3.398438 "/>
<path style=" stroke:none;fill-rule:nonzero;fill:rgb(81.176472%,55.686277%,19.215687%);fill-opacity:1;" d="M 29.398438 0 C 30.351562 0.175781 30.351562 0.175781 30.800781 0.398438 C 30.800781 0.53125 30.800781 0.664062 30.800781 0.800781 C 30.339844 0.867188 29.875 0.933594 29.398438 1 C 29.398438 0.671875 29.398438 0.339844 29.398438 0 Z M 29.398438 0 "/>
<path style=" stroke:none;fill-rule:nonzero;fill:rgb(73.725492%,50.196081%,16.470589%);fill-opacity:1;" d="M 8.601562 9.199219 C 9.195312 9.265625 9.789062 9.332031 10.398438 9.398438 C 10.136719 9.800781 10.136719 9.800781 9.800781 10.199219 C 9.601562 10.199219 9.402344 10.199219 9.199219 10.199219 C 8.863281 9.699219 8.863281 9.699219 8.601562 9.199219 Z M 8.601562 9.199219 "/>
<path style=" stroke:none;fill-rule:nonzero;fill:rgb(59.607846%,32.156864%,6.27451%);fill-opacity:1;" d="M 2.601562 30 C 2.601562 30.460938 2.601562 30.925781 2.601562 31.398438 C 2.335938 31.464844 2.070312 31.53125 1.800781 31.601562 C 1.867188 31.46875 1.933594 31.335938 2 31.199219 C 2.023438 30.953125 2.023438 30.953125 1.699219 30.6875 C 1.601562 30.59375 1.503906 30.496094 1.398438 30.398438 C 2 30 2 30 2.601562 30 Z M 2.601562 30 "/>
<path style=" stroke:none;fill-rule:nonzero;fill:rgb(80.392158%,54.901963%,18.039216%);fill-opacity:1;" d="M 24.800781 0 C 25.65625 0 26.515625 0 27.398438 0 C 27.398438 0.0664062 27.398438 0.132812 27.398438 0.199219 C 26.542969 0.332031 25.683594 0.464844 24.800781 0.601562 C 24.800781 0.402344 24.800781 0.203125 24.800781 0 Z M 24.800781 0 "/>
<path style=" stroke:none;fill-rule:nonzero;fill:rgb(63.529414%,37.64706%,9.411765%);fill-opacity:1;" d="M 2.199219 25.601562 C 2.132812 25.863281 2.066406 26.128906 2 26.398438 C 1.40625 26.300781 1.40625 26.300781 0.800781 26.199219 C 0.867188 26.003906 0.933594 25.804688 1 25.601562 C 1.601562 25.398438 1.601562 25.398438 2.199219 25.601562 Z M 2.199219 25.601562 "/>
<path style=" stroke:none;fill-rule:nonzero;fill:rgb(71.372551%,31.764707%,11.372549%);fill-opacity:1;" d="M 18.199219 16 C 18.601562 16.398438 18.601562 16.398438 18.640625 16.921875 C 18.632812 17.121094 18.628906 17.320312 18.625 17.523438 C 18.621094 17.726562 18.617188 17.925781 18.613281 18.132812 C 18.605469 18.363281 18.605469 18.363281 18.601562 18.601562 C 18.535156 18.601562 18.46875 18.601562 18.398438 18.601562 C 18.375 18.40625 18.351562 18.210938 18.324219 18.011719 C 18.285156 17.808594 18.242188 17.609375 18.199219 17.398438 C 18.066406 17.335938 17.9375 17.269531 17.800781 17.199219 C 17.800781 17.066406 17.800781 16.9375 17.800781 16.800781 C 17.933594 16.800781 18.0625 16.800781 18.199219 16.800781 C 18.199219 16.535156 18.199219 16.273438 18.199219 16 Z M 18.199219 16 "/>
<path style=" stroke:none;fill-rule:nonzero;fill:rgb(25.882354%,25.882354%,25.882354%);fill-opacity:1;" d="M 4.398438 6.199219 C 4.796875 6.199219 5.191406 6.199219 5.601562 6.199219 C 5.601562 6.464844 5.601562 6.726562 5.601562 7 C 5.269531 7.066406 4.941406 7.132812 4.601562 7.199219 C 4.535156 6.871094 4.46875 6.539062 4.398438 6.199219 Z M 4.398438 6.199219 "/>
<path style=" stroke:none;fill-rule:nonzero;fill:rgb(83.137256%,59.607846%,22.352941%);fill-opacity:1;" d="M 22.398438 0 C 22.53125 0.460938 22.664062 0.925781 22.800781 1.398438 C 22.601562 1.335938 22.402344 1.269531 22.199219 1.199219 C 22.199219 1.066406 22.199219 0.9375 22.199219 0.800781 C 21.871094 0.800781 21.539062 0.800781 21.199219 0.800781 C 21.199219 0.667969 21.199219 0.535156 21.199219 0.398438 C 21.949219 0 21.949219 0 22.398438 0 Z M 22.398438 0 "/>
<path style=" stroke:none;fill-rule:nonzero;fill:rgb(69.411767%,44.705883%,12.941177%);fill-opacity:1;" d="M 30 15 C 30.199219 15 30.394531 15 30.601562 15 C 30.601562 15.328125 30.601562 15.660156 30.601562 16 C 30.269531 15.933594 29.941406 15.867188 29.601562 15.800781 C 29.730469 15.535156 29.863281 15.273438 30 15 Z M 30 15 "/>
<path style=" stroke:none;fill-rule:nonzero;fill:rgb(80.000001%,58.039218%,25.098041%);fill-opacity:1;" d="M 2.199219 5.199219 C 2.398438 5.332031 2.597656 5.464844 2.800781 5.601562 C 2.339844 5.929688 1.875 6.261719 1.398438 6.601562 C 1.398438 6.269531 1.398438 5.941406 1.398438 5.601562 C 1.664062 5.601562 1.929688 5.601562 2.199219 5.601562 C 2.199219 5.46875 2.199219 5.335938 2.199219 5.199219 Z M 2.199219 5.199219 "/>
<path style=" stroke:none;fill-rule:nonzero;fill:rgb(65.490198%,40.784314%,13.333334%);fill-opacity:1;" d="M 28.199219 23.199219 C 28.398438 23.199219 28.597656 23.199219 28.800781 23.199219 C 28.734375 23.726562 28.667969 24.257812 28.601562 24.800781 C 28.46875 24.800781 28.335938 24.800781 28.199219 24.800781 C 28.199219 24.273438 28.199219 23.742188 28.199219 23.199219 Z M 28.199219 23.199219 "/>
<path style=" stroke:none;fill-rule:nonzero;fill:rgb(46.27451%,18.431373%,4.313726%);fill-opacity:1;" d="M 14.199219 20.601562 C 14.398438 20.796875 14.597656 20.996094 14.800781 21.199219 C 14.601562 21.398438 14.402344 21.597656 14.199219 21.800781 C 14.003906 21.734375 13.804688 21.667969 13.601562 21.601562 C 13.976562 20.824219 13.976562 20.824219 14.199219 20.601562 Z M 14.199219 20.601562 "/>
<path style=" stroke:none;fill-rule:nonzero;fill:rgb(63.137257%,36.862746%,8.627451%);fill-opacity:1;" d="M 29.601562 20.800781 C 29.601562 20.933594 29.601562 21.0625 29.601562 21.199219 C 29.46875 21.199219 29.335938 21.199219 29.199219 21.199219 C 29.265625 21.398438 29.332031 21.597656 29.398438 21.800781 C 29.203125 21.800781 29.003906 21.800781 28.800781 21.800781 C 28.800781 21.601562 28.800781 21.402344 28.800781 21.199219 C 28.667969 21.132812 28.535156 21.066406 28.398438 21 C 28.800781 20.800781 28.800781 20.800781 29.601562 20.800781 Z M 29.601562 20.800781 "/>
<path style=" stroke:none;fill-rule:nonzero;fill:rgb(81.568629%,57.647061%,19.607843%);fill-opacity:1;" d="M 17.199219 1.199219 C 17.265625 1.332031 17.332031 1.464844 17.398438 1.601562 C 17.53125 1.601562 17.664062 1.601562 17.800781 1.601562 C 17.867188 1.46875 17.933594 1.335938 18 1.199219 C 17.933594 1.53125 17.867188 1.859375 17.800781 2.199219 C 17.601562 2.199219 17.402344 2.199219 17.199219 2.199219 C 17.085938 1.8125 17.085938 1.8125 17 1.398438 C 17.066406 1.335938 17.132812 1.269531 17.199219 1.199219 Z M 17.199219 1.199219 "/>
<path style=" stroke:none;fill-rule:nonzero;fill:rgb(47.058824%,18.82353%,4.313726%);fill-opacity:1;" d="M 19.398438 20.199219 C 19.664062 20.199219 19.929688 20.199219 20.199219 20.199219 C 20.199219 20.660156 20.199219 21.125 20.199219 21.601562 C 19.398438 20.648438 19.398438 20.648438 19.398438 20.199219 Z M 19.398438 20.199219 "/>
<path style=" stroke:none;fill-rule:nonzero;fill:rgb(47.058824%,18.82353%,4.313726%);fill-opacity:1;" d="M 18.800781 18.398438 C 18.933594 18.398438 19.0625 18.398438 19.199219 18.398438 C 19.265625 18.863281 19.332031 19.324219 19.398438 19.800781 C 19.203125 19.800781 19.003906 19.800781 18.800781 19.800781 C 18.800781 19.339844 18.800781 18.875 18.800781 18.398438 Z M 18.800781 18.398438 "/>
<path style=" stroke:none;fill-rule:nonzero;fill:rgb(75.686276%,53.333336%,21.960784%);fill-opacity:1;" d="M 4.601562 9.800781 C 4.730469 9.867188 4.863281 9.933594 5 10 C 4.933594 10.328125 4.867188 10.660156 4.800781 11 C 4.601562 11.066406 4.402344 11.132812 4.199219 11.199219 C 4.0625 10.835938 4.0625 10.835938 4 10.398438 C 4.289062 10.050781 4.289062 10.050781 4.601562 9.800781 Z M 4.601562 9.800781 "/>
<path style=" stroke:none;fill-rule:nonzero;fill:rgb(77.64706%,52.941179%,17.647059%);fill-opacity:1;" d="M 25.199219 4.800781 C 25.332031 4.800781 25.464844 4.800781 25.601562 4.800781 C 25.601562 4.933594 25.601562 5.0625 25.601562 5.199219 C 25.730469 5.199219 25.863281 5.199219 26 5.199219 C 26 5.398438 26 5.597656 26 5.800781 C 25.671875 5.800781 25.339844 5.800781 25 5.800781 C 25.066406 5.46875 25.132812 5.140625 25.199219 4.800781 Z M 25.199219 4.800781 "/>
<path style=" stroke:none;fill-rule:nonzero;fill:rgb(32.549021%,32.549021%,32.549021%);fill-opacity:1;" d="M 10.800781 2.800781 C 10.933594 2.800781 11.0625 2.800781 11.199219 2.800781 C 11.066406 3.128906 10.9375 3.460938 10.800781 3.800781 C 10.46875 3.800781 10.140625 3.800781 9.800781 3.800781 C 9.800781 3.667969 9.800781 3.535156 9.800781 3.398438 C 9.929688 3.375 10.054688 3.351562 10.1875 3.324219 C 10.390625 3.261719 10.390625 3.261719 10.601562 3.199219 C 10.664062 3.066406 10.730469 2.9375 10.800781 2.800781 Z M 10.800781 2.800781 "/>
</g>
</svg>
