<?xml version="1.0" encoding="UTF-8"?>
<svg version="1.1" xmlns="http://www.w3.org/2000/svg" width="160" height="160">
<path d="M0 0 C52.8 0 105.6 0 160 0 C160 52.8 160 105.6 160 160 C107.2 160 54.4 160 0 160 C0 107.2 0 54.4 0 0 Z " fill="#341405" transform="translate(0,0)"/>
<path d="M0 0 C52.8 0 105.6 0 160 0 C160 27.06 160 54.12 160 82 C158.02 82.99 158.02 82.99 156 84 C156.33 84.66 156.66 85.32 157 86 C155.02 86 153.04 86 151 86 C150.67 85.34 150.34 84.68 150 84 C145.545 84.99 145.545 84.99 141 86 C140.91363281 84.77023438 140.82726562 83.54046875 140.73828125 82.2734375 C140.5975129 80.64052469 140.45552095 79.00771705 140.3125 77.375 C140.23225586 76.16263672 140.23225586 76.16263672 140.15039062 74.92578125 C139.60175757 69.0577929 138.35677708 66.04421181 134 62 C130.25990904 60.57519861 126.24370759 60.82606232 122.29394531 60.79467773 C121.52282913 60.78477814 120.75171295 60.77487854 119.95722961 60.76467896 C117.41422573 60.73314922 114.87120318 60.70834032 112.328125 60.68359375 C110.56263754 60.66301686 108.79715493 60.64202019 107.03167725 60.62062073 C102.38913909 60.56547601 97.74655702 60.51603325 93.10394287 60.46777344 C88.36482851 60.41750289 83.62577775 60.36184583 78.88671875 60.30664062 C69.5912002 60.19915202 60.29562637 60.09768644 51 60 C51.66822635 56.09384003 52.11463629 54.38304737 55.28125 51.9140625 C55.95446289 51.37894043 56.62767578 50.84381836 57.32128906 50.29248047 C58.04026367 49.74221191 58.75923828 49.19194336 59.5 48.625 C60.22670898 48.05281738 60.95341797 47.48063477 61.70214844 46.89111328 C63.79254404 45.24892611 65.89493415 43.62330949 68 42 C68.96421875 41.24203125 69.9284375 40.4840625 70.921875 39.703125 C73.63265183 37.57452843 76.33070996 35.45983596 79.171875 33.5078125 C81.28169722 32.03933295 81.28169722 32.03933295 82 29 C83.57885742 27.54541016 83.57885742 27.54541016 85.60546875 26.0390625 C86.34216797 25.48476563 87.07886719 24.93046875 87.83789062 24.359375 C88.61326172 23.78703125 89.38863281 23.2146875 90.1875 22.625 C91.70273983 21.49341425 93.21707853 20.36062074 94.73046875 19.2265625 C95.4584668 18.68314209 96.18646484 18.13972168 96.93652344 17.57983398 C98.8074404 16.14742702 100.61093049 14.66654184 102.40234375 13.13671875 C104.76732766 11.19138612 106.01080155 10.34490751 109 10 C108.01 8.02 108.01 8.02 107 6 C106.34 6 105.68 6 105 6 C104.43925781 7.04994141 104.43925781 7.04994141 103.8671875 8.12109375 C101.29294205 12.09017094 97.93645369 14.33267506 94.125 17.0625 C92.71046985 18.09441134 91.29639692 19.12694976 89.8828125 20.16015625 C89.21024414 20.64629395 88.53767578 21.13243164 87.84472656 21.63330078 C86.29071805 22.78461624 84.79045005 24.0079583 83.3046875 25.24609375 C81 27 81 27 78.52734375 27.97265625 C75.30589903 29.28214614 73.1882155 31.16139433 70.5625 33.4375 C69.50671014 34.34030094 68.44935325 35.24127177 67.390625 36.140625 C66.56401367 36.84348633 66.56401367 36.84348633 65.72070312 37.56054688 C61.65742661 40.95967831 57.45636011 44.18787959 53.2734375 47.4375 C51.24801657 49.01191627 49.26415427 50.61073075 47.2890625 52.25 C46.51304688 52.889375 45.73703125 53.52875 44.9375 54.1875 C44.28652344 54.73792969 43.63554688 55.28835937 42.96484375 55.85546875 C40.50898736 57.28601731 38.79524245 57.21799984 36 57 C36 57.99 36 58.98 36 60 C35.39671875 60.04898438 34.7934375 60.09796875 34.171875 60.1484375 C33.37265625 60.22320312 32.5734375 60.29796875 31.75 60.375 C30.56664062 60.47941406 30.56664062 60.47941406 29.359375 60.5859375 C26.914123 61.01507113 25.15163097 61.78600638 23 63 C22.34 62.34 21.68 61.68 21 61 C20.01 63.475 20.01 63.475 19 66 C17.515 65.505 17.515 65.505 16 65 C16 65.66 16 66.32 16 67 C12.32589215 68.17571451 8.83070817 68.07366746 5 68 C5 67.34 5 66.68 5 66 C2.525 66.495 2.525 66.495 0 67 C0 44.89 0 22.78 0 0 Z " fill="#C98D33" transform="translate(0,0)"/>
<path d="M0 0 C0.99 0.66 1.98 1.32 3 2 C2.68289062 2.62261719 2.36578125 3.24523438 2.0390625 3.88671875 C0.60472714 8.18433259 0.53672405 12.3106695 0.375 16.8125 C0.25125 19.844375 0.1275 22.87625 0 26 C6.93 26 13.86 26 21 26 C21 28.64 21 31.28 21 34 C14.07 34 7.14 34 0 34 C0 35.65 0 37.3 0 39 C6.93 39 13.86 39 21 39 C21 41.64 21 44.28 21 47 C14.07 47 7.14 47 0 47 C0 48.32 0 49.64 0 51 C6.93 51 13.86 51 21 51 C21 53.64 21 56.28 21 59 C14.07 59 7.14 59 0 59 C0 60.32 0 61.64 0 63 C6.93 63 13.86 63 21 63 C21 65.64 21 68.28 21 71 C14.07 71 7.14 71 0 71 C2.32200193 77.51692764 2.32200193 77.51692764 7 81 C9.15588964 81.45022628 9.15588964 81.45022628 11.47154236 81.39440918 C12.36171555 81.40575897 13.25188873 81.41710876 14.16903687 81.42880249 C15.13797882 81.42587189 16.10692078 81.42294128 17.10522461 81.41992188 C18.64487129 81.43262619 18.64487129 81.43262619 20.21562195 81.44558716 C23.61132164 81.46900163 27.00656941 81.46997825 30.40234375 81.46875 C32.76119672 81.47584874 35.12004795 81.48354731 37.47889709 81.49182129 C42.4243754 81.50527626 47.36969404 81.50683018 52.31518555 81.50097656 C58.65527496 81.4950789 64.99459903 81.52567105 71.33454037 81.56609344 C76.20642735 81.5919319 81.07812909 81.59485133 85.95007515 81.59120178 C88.28768399 81.59289656 90.62530106 81.60257322 92.96284294 81.62034607 C96.23087801 81.64245917 99.49735154 81.63287163 102.76538086 81.61523438 C104.21575745 81.63512924 104.21575745 81.63512924 105.69543457 81.65542603 C110.32501907 81.59731572 112.33202478 81.52390005 116.0771637 78.58654785 C118.85881884 74.84473991 119.13648331 72.97897751 119.20532227 68.35693359 C119.22526749 67.17586029 119.24521271 65.99478699 119.26576233 64.77792358 C119.28247482 63.49769318 119.29918732 62.21746277 119.31640625 60.8984375 C119.3475779 58.93833237 119.3475779 58.93833237 119.37937927 56.93862915 C119.43459294 53.463311 119.48400525 49.98793347 119.53222656 46.51251221 C119.58244677 42.966621 119.63813012 39.4208161 119.69335938 35.875 C119.80093228 28.9167415 119.90237917 21.95840504 120 15 C120.33 15 120.66 15 121 15 C121 18.63 121 22.26 121 26 C122.44375 25.484375 123.8875 24.96875 125.375 24.4375 C127.8359375 23.55859375 127.8359375 23.55859375 130 23 C130.66 23.33 131.32 23.66 132 24 C131.67 24.66 131.34 25.32 131 26 C132.65 25.67 134.3 25.34 136 25 C135.67 24.34 135.34 23.68 135 23 C136.65 22.67 138.3 22.34 140 22 C140 47.74 140 73.48 140 100 C87.2 100 34.4 100 -20 100 C-20 69.31 -20 38.62 -20 7 C-18.35 6.67 -16.7 6.34 -15 6 C-15 6.66 -15 7.32 -15 8 C-9.555 7.505 -9.555 7.505 -4 7 C-4 6.34 -4 5.68 -4 5 C-3.01 5 -2.02 5 -1 5 C-0.67 3.35 -0.34 1.7 0 0 Z " fill="#935013" transform="translate(20,60)"/>
<path d="M0 0 C27.72 0 55.44 0 84 0 C84 0.66 84 1.32 84 2 C82.03606564 3.68468744 80.0619654 5.25513095 78 6.8125 C76.7033852 7.80984487 75.40785284 8.8085982 74.11328125 9.80859375 C73.43475098 10.33179199 72.7562207 10.85499023 72.05712891 11.39404297 C68.72130405 13.99825088 65.45804296 16.68962672 62.1875 19.375 C56.72782226 23.84255058 51.18789549 28.18081073 45.5625 32.4375 C38.94109717 37.44933883 32.5052444 42.64934941 26.12036133 47.95825195 C20.75456219 52.40978965 15.28729152 56.69902483 9.734375 60.9140625 C7.88089812 62.32800058 6.05819767 63.78304136 4.265625 65.2734375 C2 67 2 67 0 67 C0 44.89 0 22.78 0 0 Z " fill="#F6F6F5" transform="translate(0,0)"/>
<path d="M0 0 C7.26 0 14.52 0 22 0 C22 27.06 22 54.12 22 82 C20.02 82.99 20.02 82.99 18 84 C18.33 84.66 18.66 85.32 19 86 C17.02 86 15.04 86 13 86 C12.67 85.34 12.34 84.68 12 84 C7.545 84.99 7.545 84.99 3 86 C2.91363281 84.77023438 2.82726562 83.54046875 2.73828125 82.2734375 C2.5975129 80.64052469 2.45552095 79.00771705 2.3125 77.375 C2.23225586 76.16263672 2.23225586 76.16263672 2.15039062 74.92578125 C1.60175757 69.0577929 0.35677708 66.04421181 -4 62 C-7.74009096 60.57519861 -11.75629241 60.82606232 -15.70605469 60.79467773 C-16.47717087 60.78477814 -17.24828705 60.77487854 -18.04277039 60.76467896 C-20.58577427 60.73314922 -23.12879682 60.70834032 -25.671875 60.68359375 C-27.43736246 60.66301686 -29.20284507 60.64202019 -30.96832275 60.62062073 C-35.61086091 60.56547601 -40.25344298 60.51603325 -44.89605713 60.46777344 C-49.63517149 60.41750289 -54.37422225 60.36184583 -59.11328125 60.30664062 C-68.4087998 60.19915202 -77.70437363 60.09768644 -87 60 C-86.33177365 56.09384003 -85.88536371 54.38304737 -82.71875 51.9140625 C-82.04553711 51.37894043 -81.37232422 50.84381836 -80.67871094 50.29248047 C-79.60024902 49.46707764 -79.60024902 49.46707764 -78.5 48.625 C-77.77329102 48.05281738 -77.04658203 47.48063477 -76.29785156 46.89111328 C-74.20745596 45.24892611 -72.10506585 43.62330949 -70 42 C-69.03578125 41.24203125 -68.0715625 40.4840625 -67.078125 39.703125 C-64.36734817 37.57452843 -61.66929004 35.45983596 -58.828125 33.5078125 C-56.71830278 32.03933295 -56.71830278 32.03933295 -56 29 C-55.34 29 -54.68 29 -54 29 C-54 30.65 -54 32.3 -54 34 C-55.65 34.66 -57.3 35.32 -59 36 C-59 36.66 -59 37.32 -59 38 C-58.34 38.33 -57.68 38.66 -57 39 C-56.375 41.0625 -56.375 41.0625 -56 43 C-54.68 43 -53.36 43 -52 43 C-51.34 43.66 -50.68 44.32 -50 45 C-48.68 44.34 -47.36 43.68 -46 43 C-45.01 44.32 -44.02 45.64 -43 47 C-41.02 46.505 -41.02 46.505 -39 46 C-38.34 47.65 -37.68 49.3 -37 51 C-35.68 51 -34.36 51 -33 51 C-32.67 51.66 -32.34 52.32 -32 53 C-31.38125 52.814375 -30.7625 52.62875 -30.125 52.4375 C-28 52 -28 52 -26 53 C-26 53.99 -26 54.98 -26 56 C-25.34 55.34 -24.68 54.68 -24 54 C-21.34462628 53.43479997 -18.70855287 53.26211802 -16 53 C-16 51.02 -16 49.04 -16 47 C-17.485 47.495 -17.485 47.495 -19 48 C-20.485 47.01 -20.485 47.01 -22 46 C-22.1875 42.875 -22.1875 42.875 -22 40 C-22.99 40 -23.98 40 -25 40 C-25 39.34 -25 38.68 -25 38 C-22.125 38.6875 -22.125 38.6875 -19 40 C-17.625 42.625 -17.625 42.625 -17 45 C-16.01 44.01 -16.01 44.01 -15 43 C-16.485 42.505 -16.485 42.505 -18 42 C-17.67 40.02 -17.34 38.04 -17 36 C-15.02 36.33 -13.04 36.66 -11 37 C-11 39.31 -11 41.62 -11 44 C-10.34 41.03 -9.68 38.06 -9 35 C-10.98 34.505 -10.98 34.505 -13 34 C-12.505 33.01 -12.505 33.01 -12 32 C-13.485 31.505 -13.485 31.505 -15 31 C-13.39125 30.7834375 -13.39125 30.7834375 -11.75 30.5625 C-9.08337051 30.16250558 -6.58600271 29.72408076 -4 29 C-4.495 30.485 -4.495 30.485 -5 32 C-4.34 32 -3.68 32 -3 32 C-3.99 34.97 -3.99 34.97 -5 38 C-4.34 38.33 -3.68 38.66 -3 39 C-2.67 38.01 -2.34 37.02 -2 36 C-0.68 36.66 0.64 37.32 2 38 C1.67 38.99 1.34 39.98 1 41 C1.99 41 2.98 41 4 41 C4.33 38.69 4.66 36.38 5 34 C3.02 33.505 3.02 33.505 1 33 C6.625 30 6.625 30 10 30 C10 29.34 10 28.68 10 28 C10.99 28 11.98 28 13 28 C12.95875 26.989375 12.9175 25.97875 12.875 24.9375 C13.00573843 20.81923948 13.73250786 17.88169467 15 14 C14.40832031 14.08378906 13.81664062 14.16757813 13.20703125 14.25390625 C8.90060543 14.80889424 5.24447356 15.23226652 1 14 C-0.27138808 9.07337118 0 5.46314577 0 0 Z M-2 35 C0 36 0 36 0 36 Z " fill="#C1842E" transform="translate(138,0)"/>
<path d="M0 0 C4.62 0 9.24 0 14 0 C14 3.3 14 6.6 14 10 C15.010625 10.185625 16.02125 10.37125 17.0625 10.5625 C23.21454926 12.34335636 27.25697334 17.32316101 30.4375 22.6875 C32.77279591 27.86138836 32.79494485 33.44970936 32 39 C31.51015625 40.0209375 31.0203125 41.041875 30.515625 42.09375 C28.13218475 47.26367571 28.42960456 52.84338858 28.3125 58.4375 C28.209375 62.253125 28.10625 66.06875 28 70 C14.14 70 0.28 70 -14 70 C-14.3125 58.5625 -14.3125 58.5625 -14.38793945 55.01391602 C-14.58874353 49.24043229 -15.19577418 44.30195915 -17.32519531 38.91162109 C-19.46648591 32.84566402 -17.93036362 27.16074202 -15.46875 21.47265625 C-12.47960072 16.44039164 -7.98476076 11.76607464 -2.21484375 10.28515625 C-1.48394531 10.19105469 -0.75304687 10.09695312 0 10 C0 6.7 0 3.4 0 0 Z " fill="#722D0A" transform="translate(79,65)"/>
<path d="M0 0 C0.33 0 0.66 0 1 0 C1 3.63 1 7.26 1 11 C2.44375 10.484375 3.8875 9.96875 5.375 9.4375 C7.8359375 8.55859375 7.8359375 8.55859375 10 8 C10.66 8.33 11.32 8.66 12 9 C11.67 9.66 11.34 10.32 11 11 C12.65 10.67 14.3 10.34 16 10 C15.67 9.34 15.34 8.68 15 8 C16.65 7.67 18.3 7.34 20 7 C20.06961416 15.63205 20.12286902 24.26400285 20.15543652 32.89627266 C20.17106997 36.90490789 20.19226548 40.91335057 20.22631836 44.921875 C20.25899512 48.79278319 20.27687047 52.66350657 20.28463173 56.53454208 C20.29016037 58.00888858 20.30095651 59.48322534 20.31719017 60.95749283 C20.33907587 63.02803386 20.34196241 65.09781831 20.34057617 67.16845703 C20.34723801 68.34538116 20.35389984 69.5223053 20.36076355 70.7348938 C19.81062776 75.71392169 18.11224415 78.94336806 14.5 82.375 C12 84 12 84 9 84 C9.33 83.01 9.66 82.02 10 81 C9.67 80.01 9.34 79.02 9 78 C8.34 77.67 7.68 77.34 7 77 C7.125 74.6875 7.125 74.6875 8 72 C11.0625 70.1875 11.0625 70.1875 14 69 C13.505 68.505 13.505 68.505 13 68 C11.865625 68.020625 10.73125 68.04125 9.5625 68.0625 C4.54860111 68.14439672 -0.13308477 67.11699694 -5 66 C-4.35256836 65.12529053 -3.70513672 64.25058105 -3.03808594 63.34936523 C0.133824 57.75849377 -0.3967584 51.67228479 -0.390625 45.41015625 C-0.37408875 44.11049423 -0.35755249 42.81083221 -0.34051514 41.4717865 C-0.29703866 38.0375781 -0.27688698 34.60362417 -0.26177979 31.16918945 C-0.24213686 27.65626093 -0.20017533 24.1436044 -0.16015625 20.63085938 C-0.08506855 13.75400928 -0.03464786 6.87716962 0 0 Z " fill="#A15E16" transform="translate(140,75)"/>
<path d="M0 0 C0.99 0.66 1.98 1.32 3 2 C2.5148291 3.19383301 2.0296582 4.38766602 1.52978516 5.61767578 C-0.60061528 12.04518984 -0.45947977 18.40335885 -0.4765625 25.1171875 C-0.49090154 26.46478814 -0.50666369 27.81237431 -0.52377319 29.15994263 C-0.56532667 32.68006536 -0.59052467 36.20009825 -0.61126709 39.72039795 C-0.64730594 45.37465364 -0.70813645 51.02868826 -0.76975632 56.68271255 C-0.78879431 58.65194666 -0.80004668 60.62125104 -0.81118774 62.59054565 C-0.82658096 64.37853073 -0.82658096 64.37853073 -0.84228516 66.20263672 C-0.84878082 67.25248749 -0.85527649 68.30233826 -0.86196899 69.38400269 C-1 72 -1 72 -2 75 C-3.32 74.67 -4.64 74.34 -6 74 C-7.32 75.65 -8.64 77.3 -10 79 C-9.01 79.33 -8.02 79.66 -7 80 C-8.32 80 -9.64 80 -11 80 C-10.67 76.04 -10.34 72.08 -10 68 C-14.17155008 65.66915342 -14.17155008 65.66915342 -20 65 C-20 45.86 -20 26.72 -20 7 C-18.35 6.67 -16.7 6.34 -15 6 C-15 6.66 -15 7.32 -15 8 C-9.555 7.505 -9.555 7.505 -4 7 C-4 6.34 -4 5.68 -4 5 C-3.01 5 -2.02 5 -1 5 C-0.67 3.35 -0.34 1.7 0 0 Z " fill="#A36219" transform="translate(20,60)"/>
<path d="M0 0 C1.32 0.66 2.64 1.32 4 2 C4 3.32 4 4.64 4 6 C3.31808594 6.22042969 2.63617188 6.44085937 1.93359375 6.66796875 C-1.83180258 8.37768932 -4.73926853 10.72017675 -7.9375 13.3125 C-8.53240234 13.78623047 -9.12730469 14.25996094 -9.74023438 14.74804688 C-12.08994927 16.6252508 -14.42825109 18.50771062 -16.70751953 20.47021484 C-20.80714663 24 -20.80714663 24 -23 24 C-23.10022461 24.60054199 -23.20044922 25.20108398 -23.30371094 25.81982422 C-24.13381566 28.41899504 -25.01895013 29.20672458 -27.140625 30.8828125 C-27.79345459 31.40560791 -28.44628418 31.92840332 -29.11889648 32.46704102 C-30.17379272 33.28773071 -30.17379272 33.28773071 -31.25 34.125 C-31.96422119 34.69468506 -32.67844238 35.26437012 -33.41430664 35.85131836 C-36.87551627 38.60007293 -40.37305669 41.29376562 -43.91796875 43.93359375 C-44.51383789 44.38009277 -45.10970703 44.8265918 -45.72363281 45.28662109 C-47.34760215 46.49557604 -48.98401859 47.68775831 -50.62109375 48.87890625 C-53.13603835 51.12129528 -53.4073221 51.84962247 -54 55 C-52.53207756 54.99333817 -52.53207756 54.99333817 -51.03450012 54.98654175 C-41.8090497 54.9459869 -32.58361739 54.91601137 -23.35809803 54.89637566 C-18.61524043 54.88594137 -13.87245483 54.87178859 -9.12963867 54.84912109 C-4.55200684 54.82738014 0.02555576 54.8154287 4.60323524 54.81024551 C6.34912519 54.80655202 8.09501137 54.79933955 9.84087181 54.78853989 C12.28747096 54.77400834 14.73378452 54.77202275 17.18041992 54.77294922 C17.90115189 54.76575867 18.62188385 54.75856812 19.36445618 54.75115967 C25.26399945 54.77531093 28.57871584 55.61029993 32.8125 59.75 C35.18902785 63.28084138 35.49405138 64.8499684 35 69 C34.46375 68.236875 33.9275 67.47375 33.375 66.6875 C30.33462528 63.24707598 27.49820552 61.32493605 22.84341431 60.71949768 C20.24161016 60.59585227 17.65553433 60.57180582 15.05078125 60.58007812 C14.06467865 60.57160858 13.07857605 60.56313904 12.06259155 60.55441284 C8.81242883 60.53106901 5.56274011 60.53001996 2.3125 60.53125 C0.04858206 60.52414778 -2.21533407 60.51644869 -4.47924805 60.50817871 C-9.22026578 60.49474056 -13.961117 60.49316262 -18.70214844 60.49902344 C-24.77529615 60.50492424 -30.84764576 60.47430826 -36.92063904 60.43390656 C-41.59440409 60.40805153 -46.26797627 60.40515008 -50.94180298 60.40879822 C-53.18089812 60.40710548 -55.42000203 60.39744828 -57.6590271 60.37965393 C-60.79015521 60.35750435 -63.91965842 60.36714612 -67.05078125 60.38476562 C-68.43494736 60.36487076 -68.43494736 60.36487076 -69.84707642 60.34457397 C-74.18767439 60.40129084 -77.07010068 60.6015855 -80.49682617 63.41345215 C-81.73589722 64.69379333 -81.73589722 64.69379333 -83 66 C-83.99 66.99 -83.99 66.99 -85 68 C-85.35098791 64.22687995 -85.30640454 62.46488965 -83.1875 59.25 C-79.15229915 55.0995077 -79.15229915 55.0995077 -75.73828125 54.8046875 C-74.93777344 54.82789063 -74.13726562 54.85109375 -73.3125 54.875 C-72.50425781 54.89304688 -71.69601563 54.91109375 -70.86328125 54.9296875 C-70.24839844 54.95289063 -69.63351563 54.97609375 -69 55 C-69 54.01 -69 53.02 -69 52 C-68.1440625 51.77183594 -67.288125 51.54367188 -66.40625 51.30859375 C-62.52061449 49.8158324 -59.66898458 47.68071188 -56.5 45.0625 C-55.26977006 44.07001642 -54.03929393 43.07783793 -52.80859375 42.0859375 C-52.18194824 41.57643555 -51.55530273 41.06693359 -50.90966797 40.54199219 C-47.82478705 38.05105536 -44.69056043 35.62380619 -41.5625 33.1875 C-37.97190225 30.38652968 -34.44202526 27.55515119 -31.0625 24.5 C-28 22 -28 22 -24.68359375 20.6484375 C-20.87777224 19.08189354 -18.10482317 16.84172027 -15 14.125 C-11.72642049 11.29144525 -8.47821756 8.53719586 -4.875 6.125 C-2.20861839 4.1541962 -1.03313042 3.09939125 0 0 Z " fill="#722D0A" transform="translate(105,5)"/>
<path d="M0 0 C15.84 0 31.68 0 48 0 C42.36961451 5.63038549 42.36961451 5.63038549 39.46875 7.98046875 C38.82977783 8.49955811 38.19080566 9.01864746 37.5324707 9.5534668 C36.86175537 10.09269775 36.19104004 10.63192871 35.5 11.1875 C34.79512451 11.75702393 34.09024902 12.32654785 33.36401367 12.91333008 C27.52052651 17.61803909 21.60048477 22.21308082 15.62939453 26.75439453 C13.85935391 28.10751818 12.09891818 29.47249792 10.33984375 30.83984375 C9.73938232 31.30559814 9.1389209 31.77135254 8.52026367 32.2512207 C7.361561 33.15040977 6.20411948 34.05122689 5.0480957 34.95385742 C1.11213782 38 1.11213782 38 0 38 C0 25.46 0 12.92 0 0 Z " fill="#C9892E" transform="translate(0,0)"/>
<path d="M0 0 C3.375 0.3125 3.375 0.3125 7 1 C9.55781522 4.83672283 9.25306456 7.94535987 9.1953125 12.38671875 C9.1924826 13.20372757 9.18965271 14.02073639 9.18673706 14.86250305 C9.17554541 17.47098459 9.1504429 20.0791223 9.125 22.6875 C9.11496888 24.45637525 9.10584326 26.22525588 9.09765625 27.99414062 C9.07560942 32.32955949 9.0410867 36.66472145 9 41 C7.68 41.66 6.36 42.32 5 43 C5.33 43.66 5.66 44.32 6 45 C4.02 45 2.04 45 0 45 C-0.33 44.34 -0.66 43.68 -1 43 C-3.97 43.66 -6.94 44.32 -10 45 C-10.08636719 43.77023438 -10.17273438 42.54046875 -10.26171875 41.2734375 C-10.4024871 39.64052469 -10.54447905 38.00771705 -10.6875 36.375 C-10.74099609 35.56675781 -10.79449219 34.75851563 -10.84960938 33.92578125 C-11.40085998 28.02979656 -12.74522283 25.15100212 -17 21 C-19.14980497 19.62745412 -19.14980497 19.62745412 -21 19 C-20.01 19 -19.02 19 -18 19 C-17.94392578 17.98679687 -17.94392578 17.98679687 -17.88671875 16.953125 C-17.78810547 15.61507812 -17.78810547 15.61507812 -17.6875 14.25 C-17.62949219 13.36828125 -17.57148438 12.4865625 -17.51171875 11.578125 C-16.9358819 8.67696226 -15.92403852 7.20774393 -14 5 C-11.36 5.33 -8.72 5.66 -6 6 C-5.67 7.65 -5.34 9.3 -5 11 C-7.97 10.505 -7.97 10.505 -11 10 C-10.67 10.99 -10.34 11.98 -10 13 C-7.36 13 -4.72 13 -2 13 C-2.12375 11.948125 -2.12375 11.948125 -2.25 10.875 C-1.9191745 7.07050673 -0.24686686 5.01922734 2 2 C1.34 1.34 0.68 0.68 0 0 Z " fill="#BC7D28" transform="translate(151,41)"/>
<path d="M0 0 C4.03520597 1.58962659 8.01811282 3.28232318 12 5 C10.67287174 8.98138478 8.73745389 9.9463389 5.375 12.4375 C4.19549305 13.32142207 3.01715666 14.20690775 1.83984375 15.09375 C1.21706543 15.56167969 0.59428711 16.02960937 -0.04736328 16.51171875 C-3.43405144 19.09302045 -6.74629736 21.76663677 -10.0625 24.4375 C-11.86730133 25.89107306 -13.67262738 27.34378737 -15.48388672 28.78930664 C-16.7480288 29.79878822 -18.0056976 30.81636938 -19.26171875 31.8359375 C-21.57572513 33.38554177 -23.27754803 33.226871 -26 33 C-26 33.99 -26 34.98 -26 36 C-26.60328125 36.04898438 -27.2065625 36.09796875 -27.828125 36.1484375 C-28.62734375 36.22320312 -29.4265625 36.29796875 -30.25 36.375 C-31.43335938 36.47941406 -31.43335938 36.47941406 -32.640625 36.5859375 C-35.085877 37.01507113 -36.84836903 37.78600638 -39 39 C-39.66 38.34 -40.32 37.68 -41 37 C-41.99 39.475 -41.99 39.475 -43 42 C-43.99 41.67 -44.98 41.34 -46 41 C-46 41.66 -46 42.32 -46 43 C-49.67410785 44.17571451 -53.16929183 44.07366746 -57 44 C-57 43.34 -57 42.68 -57 42 C-57.66 41.67 -58.32 41.34 -59 41 C-57.64068359 39.93072266 -57.64068359 39.93072266 -56.25390625 38.83984375 C-55.66810791 38.37884277 -55.08230957 37.9178418 -54.47875977 37.44287109 C-53.19555834 36.43481656 -51.91087472 35.42864609 -50.62475586 34.42431641 C-47.82094632 32.23285745 -45.03952668 30.03314956 -42.3125 27.74609375 C-37.75995136 23.96020695 -35.02473932 22.54770357 -29 22 C-26.06169939 21.02935851 -23.44531109 19.91449965 -21 18 C-19.86521065 14.87866256 -19.86521065 14.87866256 -20 12 C-17.03 12.33 -14.06 12.66 -11 13 C-11 10.69 -11 8.38 -11 6 C-8.39417629 5.06934867 -7.35801776 4.85082593 -4.75 5.9375 C-4.1725 6.288125 -3.595 6.63875 -3 7 C-2.01 4.69 -1.02 2.38 0 0 Z " fill="#BD812E" transform="translate(62,24)"/>
<path d="M0 0 C2.64 1.98 5.28 3.96 8 6 C13.81306393 10.05562599 20.17476267 9.61581089 27 9 C33.3366132 7.13017971 36.37927052 4.21554711 42 0 C42 7.26 42 14.52 42 22 C28.14 22 14.28 22 0 22 C0 14.74 0 7.48 0 0 Z " fill="#843E10" transform="translate(65,113)"/>
<path d="M0 0 C0.99 0.66 1.98 1.32 3 2 C2.68059448 2.76896606 2.68059448 2.76896606 2.35473633 3.5534668 C-0.46615759 11.01180807 -0.3879699 18.02167069 -0.26367188 25.91210938 C-0.29864216 28.7226157 -0.37810036 31.25803989 -1 34 C-3.89453125 36.71484375 -3.89453125 36.71484375 -7 38 C-9.375 37.75 -9.375 37.75 -11 37 C-11.33 35.02 -11.66 33.04 -12 31 C-12.99 31 -13.98 31 -15 31 C-15 31.66 -15 32.32 -15 33 C-15.99 33 -16.98 33 -18 33 C-18 33.66 -18 34.32 -18 35 C-18.66 35 -19.32 35 -20 35 C-20 25.76 -20 16.52 -20 7 C-18.35 6.67 -16.7 6.34 -15 6 C-15 6.66 -15 7.32 -15 8 C-9.555 7.505 -9.555 7.505 -4 7 C-4 6.34 -4 5.68 -4 5 C-3.01 5 -2.02 5 -1 5 C-0.67 3.35 -0.34 1.7 0 0 Z " fill="#AD6D21" transform="translate(20,60)"/>
<path d="M0 0 C1.32 0.66 2.64 1.32 4 2 C4 3.32 4 4.64 4 6 C3.31808594 6.22042969 2.63617188 6.44085937 1.93359375 6.66796875 C-1.83180258 8.37768932 -4.73926853 10.72017675 -7.9375 13.3125 C-8.53240234 13.78623047 -9.12730469 14.25996094 -9.74023438 14.74804688 C-12.08994927 16.6252508 -14.42825109 18.50771062 -16.70751953 20.47021484 C-20.80714663 24 -20.80714663 24 -23 24 C-23.10022461 24.60054199 -23.20044922 25.20108398 -23.30371094 25.81982422 C-24.13381566 28.41899504 -25.01895013 29.20672458 -27.140625 30.8828125 C-27.79345459 31.40536621 -28.44628418 31.92791992 -29.11889648 32.46630859 C-29.82216064 33.01367676 -30.5254248 33.56104492 -31.25 34.125 C-31.96422119 34.69686035 -32.67844238 35.2687207 -33.41430664 35.85791016 C-36.85733678 38.6002548 -40.33677799 41.268689 -43.91796875 43.828125 C-44.51383789 44.26108887 -45.10970703 44.69405273 -45.72363281 45.14013672 C-47.34311843 46.30699687 -48.98160781 47.44734972 -50.62109375 48.5859375 C-53.74731365 51.28022849 -53.74731365 51.28022849 -54 58 C-58.95 58 -63.9 58 -69 58 C-69 56.02 -69 54.04 -69 52 C-68.1440625 51.77183594 -67.288125 51.54367188 -66.40625 51.30859375 C-62.52061449 49.8158324 -59.66898458 47.68071188 -56.5 45.0625 C-55.26977006 44.07001642 -54.03929393 43.07783793 -52.80859375 42.0859375 C-52.18194824 41.57643555 -51.55530273 41.06693359 -50.90966797 40.54199219 C-47.82478705 38.05105536 -44.69056043 35.62380619 -41.5625 33.1875 C-37.97190225 30.38652968 -34.44202526 27.55515119 -31.0625 24.5 C-28 22 -28 22 -24.68359375 20.6484375 C-20.87777224 19.08189354 -18.10482317 16.84172027 -15 14.125 C-11.72642049 11.29144525 -8.47821756 8.53719586 -4.875 6.125 C-2.20861839 4.1541962 -1.03313042 3.09939125 0 0 Z " fill="#3A1A07" transform="translate(105,5)"/>
<path d="M0 0 C0.33 0 0.66 0 1 0 C1.33 18.48 1.66 36.96 2 56 C4.64 56 7.28 56 10 56 C10 57.65 10 59.3 10 61 C11.35618499 59.87465895 11.35618499 59.87465895 11.0625 56.9375 C11.041875 55.968125 11.02125 54.99875 11 54 C12.31057393 53.63877119 13.62353624 53.28619689 14.9375 52.9375 C15.66839844 52.74027344 16.39929688 52.54304688 17.15234375 52.33984375 C17.76207031 52.22769531 18.37179688 52.11554688 19 52 C21.34069545 54.34069545 20.233241 60.04728168 20.25 63.1875 C20.270625 64.13431641 20.29125 65.08113281 20.3125 66.05664062 C20.34271358 71.46864846 20.08730776 75.34698615 17 80 C12.78947368 84 12.78947368 84 9 84 C9.33 83.01 9.66 82.02 10 81 C9.67 80.01 9.34 79.02 9 78 C8.34 77.67 7.68 77.34 7 77 C7.125 74.6875 7.125 74.6875 8 72 C11.0625 70.1875 11.0625 70.1875 14 69 C13.505 68.505 13.505 68.505 13 68 C11.865625 68.020625 10.73125 68.04125 9.5625 68.0625 C4.54860111 68.14439672 -0.13308477 67.11699694 -5 66 C-4.35256836 65.12529053 -3.70513672 64.25058105 -3.03808594 63.34936523 C0.133824 57.75849377 -0.3967584 51.67228479 -0.390625 45.41015625 C-0.37408875 44.11049423 -0.35755249 42.81083221 -0.34051514 41.4717865 C-0.29703866 38.0375781 -0.27688698 34.60362417 -0.26177979 31.16918945 C-0.24213686 27.65626093 -0.20017533 24.1436044 -0.16015625 20.63085938 C-0.08506855 13.75400928 -0.03464786 6.87716962 0 0 Z " fill="#9B5815" transform="translate(140,75)"/>
<path d="M0 0 C7.26 0 14.52 0 22 0 C22 2.64 22 5.28 22 8 C15.07 8 8.14 8 1 8 C1.99 10.31 2.98 12.62 4 15 C4 15.99 4 16.98 4 18 C2.92878906 17.98839844 1.85757812 17.97679687 0.75390625 17.96484375 C-0.64322743 17.95546701 -2.04036299 17.94636669 -3.4375 17.9375 C-4.49807617 17.92493164 -4.49807617 17.92493164 -5.58007812 17.91210938 C-7.38693559 17.90346412 -9.19387603 17.94779989 -11 18 C-12.44754255 19.44754255 -12.55733561 21.03962913 -13 23 C-14.32 23.33 -15.64 23.66 -17 24 C-17 23.34 -17 22.68 -17 22 C-17.66 22 -18.32 22 -19 22 C-19 15.4 -19 8.8 -19 2 C-13.34185541 2 -12.24244468 2.00533317 -8 5 C-8.165 6.11375 -8.33 7.2275 -8.5 8.375 C-9.0455458 11.72032033 -9.0455458 11.72032033 -9 14 C-7.68 12.68 -6.36 11.36 -5 10 C-3.68 10.66 -2.36 11.32 -1 12 C-0.67 8.04 -0.34 4.08 0 0 Z " fill="#9E5A15" transform="translate(19,123)"/>
<path d="M0 0 C6.44675319 0.51164708 12.68268273 1.64157896 19 3 C19.33 2.34 19.66 1.68 20 1 C20.495 2.485 20.495 2.485 21 4 C19.865625 4.5775 18.73125 5.155 17.5625 5.75 C14.62689703 7.35492635 14.62689703 7.35492635 13.0625 10.25 C13.041875 10.8275 13.02125 11.405 13 12 C15.97 12.495 15.97 12.495 19 13 C18.34 13.66 17.68 14.32 17 15 C17 15.99 17 16.98 17 18 C21.51135667 15.80528594 23.06273348 13.58826282 25 9 C25.33 9 25.66 9 26 9 C26 12.63 26 16.26 26 20 C18.41 20 10.82 20 3 20 C3.66 18.68 4.32 17.36 5 16 C4.74276031 13.97080157 4.74276031 13.97080157 4 12 C2.90277778 8.27777778 2.90277778 8.27777778 3.875 5.5 C4.431875 4.7575 4.431875 4.7575 5 4 C4.01 4.33 3.02 4.66 2 5 C0.66474283 5.07973476 -0.67412083 5.10771338 -2.01171875 5.09765625 C-3.14770508 5.09282227 -3.14770508 5.09282227 -4.30664062 5.08789062 C-5.09232422 5.07951172 -5.87800781 5.07113281 -6.6875 5.0625 C-7.48478516 5.05798828 -8.28207031 5.05347656 -9.10351562 5.04882812 C-11.06904257 5.0370585 -13.03453085 5.01912348 -15 5 C-15 4.34 -15 3.68 -15 3 C-44.37 3 -73.74 3 -104 3 C-104 2.67 -104 2.34 -104 2 C-102.71182877 1.98969254 -101.42365753 1.97938507 -100.09645081 1.96876526 C-87.98532537 1.87121426 -75.87425341 1.76849805 -63.76321507 1.66066074 C-57.53609086 1.60538186 -51.308962 1.55195407 -45.08178711 1.50268555 C-39.07768959 1.45511506 -33.07365122 1.40277518 -27.06962395 1.34705925 C-24.77340089 1.32660243 -22.47716159 1.307895 -20.18091011 1.29092598 C-16.97674786 1.26695535 -13.7726986 1.23689113 -10.56860352 1.20532227 C-9.60907272 1.1995668 -8.64954193 1.19381134 -7.66093445 1.18788147 C-6.35888565 1.17319824 -6.35888565 1.17319824 -5.03053284 1.15821838 C-4.27189721 1.15176583 -3.51326159 1.14531328 -2.731637 1.1386652 C-0.96977847 1.18591441 -0.96977847 1.18591441 0 0 Z " fill="#814710" transform="translate(134,140)"/>
<path d="M0 0 C-0.71027344 0.17015625 -1.42054687 0.3403125 -2.15234375 0.515625 C-3.07144531 0.75796875 -3.99054688 1.0003125 -4.9375 1.25 C-6.31228516 1.59804687 -6.31228516 1.59804687 -7.71484375 1.953125 C-10.19151441 2.76632566 -10.19151441 2.76632566 -10.81640625 5.109375 C-10.87699219 5.73328125 -10.93757813 6.3571875 -11 7 C-11 6.01 -11 5.02 -11 4 C-11.66 4.66 -12.32 5.32 -13 6 C-9.34666857 8.63379708 -6.51478398 10.46884894 -2 11 C-2.33 8.69 -2.66 6.38 -3 4 C-2.67 5.32 -2.34 6.64 -2 8 C-0.68 8 0.64 8 2 8 C1.67 8.66 1.34 9.32 1 10 C1 10.99 1 11.98 1 13 C0.01 13.33 -0.98 13.66 -2 14 C-0.35 15.32 1.3 16.64 3 18 C3 13.71 3 9.42 3 5 C5.13586678 8.20380017 5.23132175 9.01939967 5.125 12.6875 C5.10695313 13.49574219 5.08890625 14.30398437 5.0703125 15.13671875 C5.04710938 15.75160156 5.02390625 16.36648437 5 17 C5.66 17.33 6.32 17.66 7 18 C7.33 16.02 7.66 14.04 8 12 C8.33 12 8.66 12 9 12 C9 13.65 9 15.3 9 17 C10.65 17 12.3 17 14 17 C14.33 14.69 14.66 12.38 15 10 C13.02 10.99 13.02 10.99 11 12 C10.505 5.565 10.505 5.565 10 -1 C12 1 12 1 12.125 4.625 C12.08375 5.73875 12.0425 6.8525 12 8 C12.66 8 13.32 8 14 8 C14 6.35 14 4.7 14 3 C14.66 3.33 15.32 3.66 16 4 C16.4140625 6.94140625 16.4140625 6.94140625 16.625 10.5625 C16.69976562 11.76003906 16.77453125 12.95757812 16.8515625 14.19140625 C16.90054688 15.11824219 16.94953125 16.04507813 17 17 C17 13.37 17 9.74 17 6 C17.66 6.33 18.32 6.66 19 7 C19 9.64 19 12.28 19 15 C19.66 15.33 20.32 15.66 21 16 C20 26 20 26 16 30 C15.0925 29.814375 14.185 29.62875 13.25 29.4375 C8.33593861 28.77599174 5.53762268 30.90747862 1.625 33.6875 C1.08875 34.120625 0.5525 34.55375 0 35 C1.5027258 30.79236776 4.23332995 29.1972242 8 27 C8.66 27 9.32 27 10 27 C9.67 26.01 9.34 25.02 9 24 C8.525625 24.495 8.05125 24.99 7.5625 25.5 C6 27 6 27 5 27 C5 25.02 5 23.04 5 21 C4.34 21 3.68 21 3 21 C2.34 21.99 1.68 22.98 1 24 C0.34 24 -0.32 24 -1 24 C-1 23.01 -1 22.02 -1 21 C-2.64936913 21.78427352 -4.29441127 22.57765259 -5.9375 23.375 C-6.85402344 23.81585938 -7.77054688 24.25671875 -8.71484375 24.7109375 C-11.12903802 25.79199162 -11.12903802 25.79199162 -12 28 C-13.65 28 -15.3 28 -17 28 C-15.48162587 24.96325174 -12.81572994 24.37290511 -9.8125 23 C-7.82798477 22.12855431 -7.82798477 22.12855431 -7 20 C-7.66 20 -8.32 20 -9 20 C-9 19.34 -9 18.68 -9 18 C-7.68 18 -6.36 18 -5 18 C-4.67 18.66 -4.34 19.32 -4 20 C-4 19.01 -4 18.02 -4 17 C-4.99 16.34 -5.98 15.68 -7 15 C-8.98 16.65 -10.96 18.3 -13 20 C-13.66 19.67 -14.32 19.34 -15 19 C-13.35 17.35 -11.7 15.7 -10 14 C-11.36983503 10.83884224 -11.9890638 10.0072908 -15 8 C-14.80078125 5.6484375 -14.80078125 5.6484375 -14 3 C-11.85546875 1.6015625 -11.85546875 1.6015625 -9.1875 0.625 C-8.31480469 0.28726563 -7.44210938 -0.05046875 -6.54296875 -0.3984375 C-3.88818054 -1.02645192 -2.5343996 -0.90978447 0 0 Z " fill="#BF5620" transform="translate(85,82)"/>
<path d="M0 0 C11.22 0 22.44 0 34 0 C29.85417368 4.14582632 25.71938662 7.82503644 21.1875 11.5 C20.17719727 12.33337891 20.17719727 12.33337891 19.14648438 13.18359375 C14.64106641 16.84828779 9.99760903 20.04265714 5 23 C5.309375 22.401875 5.61875 21.80375 5.9375 21.1875 C7.10209704 18.91043228 7.10209704 18.91043228 8 16 C6.02 16.33 4.04 16.66 2 17 C2 15 2 15 4 13 C3.360625 12.71125 2.72125 12.4225 2.0625 12.125 C-0.46603342 10.74579995 -0.74083967 9.51832066 -2 7 C-2.66 6.67 -3.32 6.34 -4 6 C-2.68 5.67 -1.36 5.34 0 5 C0 3.35 0 1.7 0 0 Z " fill="#CF9134" transform="translate(14,0)"/>
<path d="M0 0 C7.26 0 14.52 0 22 0 C22 5.94 22 11.88 22 18 C21.34 18 20.68 18 20 18 C20.33 19.65 20.66 21.3 21 23 C20.34 23 19.68 23 19 23 C18.34 21.68 17.68 20.36 17 19 C16.34 21.31 15.68 23.62 15 26 C13 23 13 23 13.2421875 20.73828125 C13.45101562 19.93777344 13.65984375 19.13726563 13.875 18.3125 C14.07867187 17.50425781 14.28234375 16.69601563 14.4921875 15.86328125 C14.74355469 14.94095703 14.74355469 14.94095703 15 14 C14.40832031 14.08378906 13.81664062 14.16757813 13.20703125 14.25390625 C8.90060543 14.80889424 5.24447356 15.23226652 1 14 C-0.27138808 9.07337118 0 5.46314577 0 0 Z " fill="#C7852B" transform="translate(138,0)"/>
<path d="M0 0 C4.03520597 1.58962659 8.01811282 3.28232318 12 5 C10.67389358 8.97831925 8.06672991 10.48545521 4.8125 12.875 C3.67224575 13.72531503 2.53291873 14.57687489 1.39453125 15.4296875 C0.82879395 15.84887451 0.26305664 16.26806152 -0.31982422 16.69995117 C-1.99762393 17.9981615 -3.56262304 19.38049692 -5.14453125 20.79296875 C-8.01150554 23.00889279 -8.98576883 23.63485719 -12.5 23.4375 C-13.26183594 23.39496094 -14.02367187 23.35242188 -14.80859375 23.30859375 C-17.69799597 22.90170823 -20.30466648 22.10577786 -23 21 C-22.01 19.515 -22.01 19.515 -21 18 C-20.60986284 16.0103005 -20.26797351 14.00980131 -20 12 C-17.03 12.33 -14.06 12.66 -11 13 C-11 10.69 -11 8.38 -11 6 C-8.39417629 5.06934867 -7.35801776 4.85082593 -4.75 5.9375 C-4.1725 6.288125 -3.595 6.63875 -3 7 C-2.01 4.69 -1.02 2.38 0 0 Z " fill="#C58930" transform="translate(62,24)"/>
<path d="M0 0 C0.33 0.66 0.66 1.32 1 2 C3.31 2 5.62 2 8 2 C7.67 3.32 7.34 4.64 7 6 C7.66 6 8.32 6 9 6 C9.33 4.68 9.66 3.36 10 2 C10.66 4.31 11.32 6.62 12 9 C12.66 9 13.32 9 14 9 C14.33 10.98 14.66 12.96 15 15 C15.99 14.67 16.98 14.34 18 14 C18 16.97 18 19.94 18 23 C17.67 22.34 17.34 21.68 17 21 C14.62570704 20.74930087 14.62570704 20.74930087 12 21 C11.01 21.99 10.02 22.98 9 24 C8.34 20.04 7.68 16.08 7 12 C7 15.63 7 19.26 7 23 C4.69 21.35 2.38 19.7 0 18 C1.32 17.67 2.64 17.34 4 17 C3.34 15.68 2.68 14.36 2 13 C2.99 12.67 3.98 12.34 5 12 C3.68 12.33 2.36 12.66 1 13 C1 13.66 1 14.32 1 15 C-3.4571874 14.73781251 -5.51522698 14.42288711 -8.9375 11.4375 C-9.618125 10.633125 -10.29875 9.82875 -11 9 C-7.7 7.35 -4.4 5.7 -1 4 C-2.98 4.66 -4.96 5.32 -7 6 C-7 5.01 -7 4.02 -7 3 C-4.69 2.01 -2.38 1.02 0 0 Z " fill="#81350E" transform="translate(82,78)"/>
<path d="M0 0 C0 9.57 0 19.14 0 29 C-0.66 27.68 -1.32 26.36 -2 25 C-2.70125 23.989375 -3.4025 22.97875 -4.125 21.9375 C-6 19 -6 19 -6 16 C-6.99 16.33 -7.98 16.66 -9 17 C-10.32 17 -11.64 17 -13 17 C-13.99 17.33 -14.98 17.66 -16 18 C-16.99 17.67 -17.98 17.34 -19 17 C-19 12.71 -19 8.42 -19 4 C-12.1640625 1.55859375 -12.1640625 1.55859375 -10 1 C-9.34 1.33 -8.68 1.66 -8 2 C-8.33 2.66 -8.66 3.32 -9 4 C-7.35 3.67 -5.7 3.34 -4 3 C-4.33 2.34 -4.66 1.68 -5 1 C-1.125 0 -1.125 0 0 0 Z " fill="#A9681D" transform="translate(160,82)"/>
<path d="M0 0 C0.99 0.33 1.98 0.66 3 1 C3 1.66 3 2.32 3 3 C5.97 3.495 5.97 3.495 9 4 C9 4.99 9 5.98 9 7 C13.19611614 7.13074409 13.19611614 7.13074409 18 6 C18 9.96 18 13.92 18 18 C16.02 18.99 16.02 18.99 14 20 C14.33 20.66 14.66 21.32 15 22 C13.02 22 11.04 22 9 22 C8.67 21.34 8.34 20.68 8 20 C5.03 20.66 2.06 21.32 -1 22 C-1.33 16.72 -1.66 11.44 -2 6 C-1.01 7.485 -1.01 7.485 0 9 C0.93380961 4.46859347 0.93380961 4.46859347 0 0 Z " fill="#B37526" transform="translate(142,64)"/>
<path d="M0 0 C0.99 0 1.98 0 3 0 C3 0.66 3 1.32 3 2 C3.969375 2.268125 4.93875 2.53625 5.9375 2.8125 C6.948125 3.204375 7.95875 3.59625 9 4 C10 7 10 7 8.8125 9.5625 C6.97998043 12.02692286 5.82554579 12.92824125 3 14 C-0.08236365 11.21592961 -0.95206337 10.19174654 -2 6 C-2 9.3 -2 12.6 -2 16 C-2.99 16 -3.98 16 -5 16 C-5 16.99 -5 17.98 -5 19 C-5.66 19.33 -6.32 19.66 -7 20 C-5.68 21.32 -4.36 22.64 -3 24 C-2.34 23.67 -1.68 23.34 -1 23 C-1.66 24.32 -2.32 25.64 -3 27 C-3.99 26.34 -4.98 25.68 -6 25 C-6 24.34 -6 23.68 -6 23 C-6.62648438 22.80664062 -7.25296875 22.61328125 -7.8984375 22.4140625 C-8.71570313 22.15367188 -9.53296875 21.89328125 -10.375 21.625 C-11.18710938 21.36976562 -11.99921875 21.11453125 -12.8359375 20.8515625 C-15 20 -15 20 -17 18 C-17.99 18 -18.98 18 -20 18 C-16.27366298 14.17578546 -12.38347874 10.64068582 -8.3125 7.1875 C-7.73177734 6.68541016 -7.15105469 6.18332031 -6.55273438 5.66601562 C-2.23830782 2 -2.23830782 2 0 2 C0 1.34 0 0.68 0 0 Z " fill="#D2993C" transform="translate(84,0)"/>
<path d="M0 0 C0.99 0.66 1.98 1.32 3 2 C2.525625 3.19625 2.05125 4.3925 1.5625 5.625 C-0.57734901 11.93351712 -0.7273652 18.39095639 -1 25 C-3.4375 24.625 -3.4375 24.625 -6 24 C-6.33 23.34 -6.66 22.68 -7 22 C-7.78375 22.185625 -8.5675 22.37125 -9.375 22.5625 C-12 23 -12 23 -14 22 C-14.75 19.5625 -14.75 19.5625 -15 17 C-14.34 16.34 -13.68 15.68 -13 15 C-13.99 14.34 -14.98 13.68 -16 13 C-16 12.34 -16 11.68 -16 11 C-16.99 11.33 -17.98 11.66 -19 12 C-18.67 10.68 -18.34 9.36 -18 8 C-18.66 7.67 -19.32 7.34 -20 7 C-18.35 6.67 -16.7 6.34 -15 6 C-15 6.66 -15 7.32 -15 8 C-9.555 7.505 -9.555 7.505 -4 7 C-4 6.34 -4 5.68 -4 5 C-3.01 5 -2.02 5 -1 5 C-0.67 3.35 -0.34 1.7 0 0 Z " fill="#B37425" transform="translate(20,60)"/>
<path d="M0 0 C2 2 2 2 2 5 C2.66 4.01 3.32 3.02 4 2 C7.875 3.75 7.875 3.75 9 6 C9.33 5.01 9.66 4.02 10 3 C10.33 3 10.66 3 11 3 C11.5 5.6875 11.5 5.6875 11 9 C9.09904482 10.51544678 7.11332771 11.60293374 4.98046875 12.765625 C2.39392529 14.37775071 1.25347702 16.25801902 0 19 C-1.98 18.67 -3.96 18.34 -6 18 C-6 17.01 -6 16.02 -6 15 C-6.78375 14.855625 -7.5675 14.71125 -8.375 14.5625 C-11 14 -11 14 -13 13 C-13 12.34 -13 11.68 -13 11 C-13.66 10.67 -14.32 10.34 -15 10 C-13.68 10 -12.36 10 -11 10 C-10.67 9.01 -10.34 8.02 -10 7 C-7.73587514 5.81568853 -5.41866912 4.96911486 -3.03125 4.0625 C-0.65380285 3.11816821 -0.65380285 3.11816821 0 0 Z " fill="#9C4316" transform="translate(84,100)"/>
<path d="M0 0 C4.62 0 9.24 0 14 0 C14 1.65 14 3.3 14 5 C13.01 5.33 12.02 5.66 11 6 C11 6.99 11 7.98 11 9 C10.01 9.495 10.01 9.495 9 10 C7.90963072 12.9737344 7.96135834 13.88407501 9 17 C8.34 17 7.68 17 7 17 C6.67 17.66 6.34 18.32 6 19 C5.34 18.67 4.68 18.34 4 18 C3.67 19.32 3.34 20.64 3 22 C2.34 22 1.68 22 1 22 C0.67 22.66 0.34 23.32 0 24 C0 16.08 0 8.16 0 0 Z " fill="#CB8B2F" transform="translate(0,0)"/>
<path d="M0 0 C2 2 2 2 2.125 5.625 C2.08375 6.73875 2.0425 7.8525 2 9 C2.66 9 3.32 9 4 9 C4 7.35 4 5.7 4 4 C4.66 4.33 5.32 4.66 6 5 C6.4140625 7.94140625 6.4140625 7.94140625 6.625 11.5625 C6.69976562 12.76003906 6.77453125 13.95757812 6.8515625 15.19140625 C6.90054688 16.11824219 6.94953125 17.04507813 7 18 C7 14.37 7 10.74 7 7 C7.66 7.33 8.32 7.66 9 8 C9 10.64 9 13.28 9 16 C9.66 16.33 10.32 16.66 11 17 C10 27 10 27 6 31 C5.0925 30.814375 4.185 30.62875 3.25 30.4375 C-1.66406139 29.77599174 -4.46237732 31.90747862 -8.375 34.6875 C-8.91125 35.120625 -9.4475 35.55375 -10 36 C-8.4972742 31.79236776 -5.76667005 30.1972242 -2 28 C-1.34 28 -0.68 28 0 28 C-0.33 27.01 -0.66 26.02 -1 25 C-1.66 25.66 -2.32 26.32 -3 27 C-3.33 25.35 -3.66 23.7 -4 22 C-3.34 21.67 -2.68 21.34 -2 21 C-1.67 20.01 -1.34 19.02 -1 18 C0.65 18 2.3 18 4 18 C4.33 15.69 4.66 13.38 5 11 C3.02 11.99 3.02 11.99 1 13 C0.67 8.71 0.34 4.42 0 0 Z " fill="#AE4D1B" transform="translate(95,81)"/>
<path d="M0 0 C6.93 0 13.86 0 21 0 C21 2.64 21 5.28 21 8 C14.07 8 7.14 8 0 8 C0 5.36 0 2.72 0 0 Z " fill="#894010" transform="translate(20,123)"/>
<path d="M0 0 C2.96404505 2.80804268 5.44499019 5.18315774 7 9 C5.68 10.65 4.36 12.3 3 14 C4.98 12.35 6.96 10.7 9 9 C10.65 10.65 12.3 12.3 14 14 C12.02 14.99 12.02 14.99 10 16 C10.33 15.01 10.66 14.02 11 13 C9.68 13 8.36 13 7 13 C7 13.66 7 14.32 7 15 C7.66 15 8.32 15 9 15 C7.64486335 19.06540996 5.69203082 19.97300269 2 22 C-0.19921875 21.609375 -0.19921875 21.609375 -2 21 C-3.22657444 13.22676923 -2.82633445 7.36124396 0 0 Z " fill="#A14617" transform="translate(69,87)"/>
<path d="M0 0 C0.33 0.66 0.66 1.32 1 2 C3.52733235 2.65555119 3.52733235 2.65555119 6 3 C7.125 6.75 7.125 6.75 6 9 C6.99 9.33 7.98 9.66 9 10 C8.071875 10.12375 8.071875 10.12375 7.125 10.25 C4.81562433 10.81258459 4.81562433 10.81258459 3.75 13.0625 C3.5025 13.701875 3.255 14.34125 3 15 C-1.85077588 13.88059018 -4.777893 12.8665284 -8 9 C-7.25 7.0625 -7.25 7.0625 -6 5 C-3.875 4.25 -3.875 4.25 -2 4 C-2 3.01 -2 2.02 -2 1 C-1.34 0.67 -0.68 0.34 0 0 Z " fill="#A15C17" transform="translate(10,145)"/>
<path d="M0 0 C8.03501094 -0.78774617 8.03501094 -0.78774617 12.0625 2.5 C12.701875 3.325 13.34125 4.15 14 5 C8.70769231 8.07692308 8.70769231 8.07692308 5.125 7.6875 C4.42375 7.460625 3.7225 7.23375 3 7 C5.14072301 9.35479531 7.1394109 10.64062915 10 12 C8.37675914 12.22162329 6.751279 12.42689803 5.125 12.625 C4.22007812 12.74101562 3.31515625 12.85703125 2.3828125 12.9765625 C1.59648437 12.98429688 0.81015625 12.99203125 0 13 C-2 11 -2 11 -2.1953125 8.8359375 C-2.17210937 8.02382812 -2.14890625 7.21171875 -2.125 6.375 C-2.10695312 5.55773437 -2.08890625 4.74046875 -2.0703125 3.8984375 C-2.04710937 3.27195313 -2.02390625 2.64546875 -2 2 C-1.34 2 -0.68 2 0 2 C0 1.34 0 0.68 0 0 Z " fill="#CC8C31" transform="translate(142,0)"/>
<path d="M0 0 C4.62 0 9.24 0 14 0 C14 2.97 14 5.94 14 9 C9.38 9 4.76 9 0 9 C0 6.03 0 3.06 0 0 Z " fill="#894010" transform="translate(79,65)"/>
<path d="M0 0 C-0.71027344 0.17015625 -1.42054687 0.3403125 -2.15234375 0.515625 C-3.07144531 0.75796875 -3.99054688 1.0003125 -4.9375 1.25 C-6.31228516 1.59804687 -6.31228516 1.59804687 -7.71484375 1.953125 C-10.19151441 2.76632566 -10.19151441 2.76632566 -10.81640625 5.109375 C-10.87699219 5.73328125 -10.93757813 6.3571875 -11 7 C-11 6.01 -11 5.02 -11 4 C-11.66 4.66 -12.32 5.32 -13 6 C-9.34666857 8.63379708 -6.51478398 10.46884894 -2 11 C-2.33 8.69 -2.66 6.38 -3 4 C-2.67 5.32 -2.34 6.64 -2 8 C-0.68 8 0.64 8 2 8 C1.67 8.66 1.34 9.32 1 10 C1 10.99 1 11.98 1 13 C0.01 13.33 -0.98 13.66 -2 14 C-1.67 14.66 -1.34 15.32 -1 16 C-1.99 16.33 -2.98 16.66 -4 17 C-4.99 16.34 -5.98 15.68 -7 15 C-8.98 16.65 -10.96 18.3 -13 20 C-13.66 19.67 -14.32 19.34 -15 19 C-13.35 17.35 -11.7 15.7 -10 14 C-11.36983503 10.83884224 -11.9890638 10.0072908 -15 8 C-14.80078125 5.6484375 -14.80078125 5.6484375 -14 3 C-11.85546875 1.6015625 -11.85546875 1.6015625 -9.1875 0.625 C-8.31480469 0.28726563 -7.44210938 -0.05046875 -6.54296875 -0.3984375 C-3.88818054 -1.02645192 -2.5343996 -0.90978447 0 0 Z " fill="#CE5E24" transform="translate(85,82)"/>
<path d="M0 0 C2.35953094 2.35953094 2.49141413 3.77895617 3 7 C3.66 7 4.32 7 5 7 C5.33 8.98 5.66 10.96 6 13 C6.99 12.67 7.98 12.34 9 12 C9 14.97 9 17.94 9 21 C8.67 20.34 8.34 19.68 8 19 C5.62570704 18.74930087 5.62570704 18.74930087 3 19 C2.01 19.99 1.02 20.98 0 22 C-0.66 18.04 -1.32 14.08 -2 10 C-1.34 10.66 -0.68 11.32 0 12 C0 10.35 0 8.7 0 7 C-0.66 6.67 -1.32 6.34 -2 6 C-2 5.34 -2 4.68 -2 4 C-1.34 4 -0.68 4 0 4 C0 2.68 0 1.36 0 0 Z " fill="#8B3A11" transform="translate(91,80)"/>
<path d="M0 0 C0 2.33333333 0 4.66666667 0 7 C0.31478446 8.33783393 0.64587656 9.67203709 1 11 C0.195625 10.979375 -0.60875 10.95875 -1.4375 10.9375 C-3.93354885 10.70366379 -3.93354885 10.70366379 -5 12 C-6.66617115 12.04063832 -8.33388095 12.042721 -10 12 C-9.979375 11.0925 -9.95875 10.185 -9.9375 9.25 C-9.9889755 6.57327412 -10.2215017 4.53011948 -11 2 C-9.8553125 2.061875 -9.8553125 2.061875 -8.6875 2.125 C-5.10544534 1.95839281 -3.65741967 0 0 0 Z " fill="#CA892F" transform="translate(137,2)"/>
<path d="M0 0 C2.64 0 5.28 0 8 0 C9.09658936 3.28976808 8.79953138 4.71303767 8 8 C7.34 8 6.68 8 6 8 C6 8.99 6 9.98 6 11 C3.36 10.67 0.72 10.34 -2 10 C-2 7.36 -2 4.72 -2 2 C-1.34 2 -0.68 2 0 2 C0 1.34 0 0.68 0 0 Z " fill="#A66721" transform="translate(143,102)"/>
<path d="M0 0 C1.98 0 3.96 0 6 0 C7.25664978 2.90600261 8 4.79604584 8 8 C2.72 8 -2.56 8 -8 8 C-8.33 7.01 -8.66 6.02 -9 5 C-3.25 3 -3.25 3 -1 3 C-0.67 2.01 -0.34 1.02 0 0 Z " fill="#9D5915" transform="translate(30,152)"/>
<path d="M0 0 C0 0.66 0 1.32 0 2 C-0.66 2 -1.32 2 -2 2 C-2 2.66 -2 3.32 -2 4 C-1.01 4.33 -0.02 4.66 1 5 C0.67 5.66 0.34 6.32 0 7 C-0.66 7 -1.32 7 -2 7 C-2 7.99 -2 8.98 -2 10 C-2.99 10.33 -3.98 10.66 -5 11 C-8.1875 9.0625 -8.1875 9.0625 -11 7 C-10.125 2.25 -10.125 2.25 -9 0 C-5.52176885 -1.15941038 -3.54104422 -0.70820884 0 0 Z " fill="#AA6A22" transform="translate(156,88)"/>
<path d="M0 0 C7.875 5.875 7.875 5.875 9 7 C9.1875 9.9375 9.1875 9.9375 9 13 C8.34 13.66 7.68 14.32 7 15 C4.375 14.625 4.375 14.625 2 14 C2 13.01 2 12.02 2 11 C1.34 11 0.68 11 0 11 C0 7.37 0 3.74 0 0 Z " fill="#8B4110" transform="translate(65,113)"/>
<path d="M0 0 C1.32 0.33 2.64 0.66 4 1 C4.33 3.97 4.66 6.94 5 10 C1.62182575 10.84454356 -0.67465243 11.10844919 -4 10 C-4 9.34 -4 8.68 -4 8 C-4.66 7.67 -5.32 7.34 -6 7 C-4.19587357 3.73539027 -3.16605307 2.11070205 0 0 Z " fill="#BC7F2F" transform="translate(149,57)"/>
<path d="M0 0 C3.35664834 -0.08186947 6.42021211 0.06303182 9.75 0.5625 C12.8804951 1.29414542 12.8804951 1.29414542 15 0 C15.33 0.99 15.66 1.98 16 3 C15.01171875 4.48828125 15.01171875 4.48828125 13 6 C10.18872957 6.21714241 7.6116655 6.28284276 4.8125 6.1875 C4.06291016 6.17396484 3.31332031 6.16042969 2.54101562 6.14648438 C0.69370233 6.11118539 -1.15324066 6.05737917 -3 6 C-2.01 4.02 -1.02 2.04 0 0 Z " fill="#964F0F" transform="translate(124,154)"/>
<path d="M0 0 C0 0.99 0 1.98 0 3 C-1.32 3 -2.64 3 -4 3 C-4 5.64 -4 8.28 -4 11 C-8.4571874 10.73781251 -10.51522698 10.42288711 -13.9375 7.4375 C-14.618125 6.633125 -15.29875 5.82875 -16 5 C-14.27656245 4.15488176 -12.54595947 3.32436646 -10.8125 2.5 C-9.36810547 1.80390625 -9.36810547 1.80390625 -7.89453125 1.09375 C-5.01077307 0.00407079 -3.04645139 -0.22277524 0 0 Z " fill="#86370F" transform="translate(87,82)"/>
<path d="M0 0 C-0.04125 0.7425 -0.0825 1.485 -0.125 2.25 C-0.17133967 5.33421811 -0.17133967 5.33421811 2 9 C-1.63 9 -5.26 9 -9 9 C-9.33 6.69 -9.66 4.38 -10 2 C-6.38026598 0.68373308 -3.90432869 0 0 0 Z " fill="#9E5A13" transform="translate(48,151)"/>
<path d="M0 0 C3.3 0 6.6 0 10 0 C6.0299782 4.21814817 1.69159716 7.61227103 -3 11 C-4 8 -4 8 -3.0625 5.8125 C-2.711875 5.214375 -2.36125 4.61625 -2 4 C-2.763125 4.226875 -3.52625 4.45375 -4.3125 4.6875 C-5.199375 4.790625 -6.08625 4.89375 -7 5 C-7.99 4.01 -8.98 3.02 -10 2 C-6.7 2.33 -3.4 2.66 0 3 C0 2.01 0 1.02 0 0 Z " fill="#D3973C" transform="translate(38,0)"/>
<path d="M0 0 C0 3.96 0 7.92 0 12 C-1.98 12.99 -1.98 12.99 -4 14 C-3.67 14.66 -3.34 15.32 -3 16 C-4.98 16 -6.96 16 -9 16 C-8.67 15.01 -8.34 14.02 -8 13 C-5.9375 12.3125 -5.9375 12.3125 -4 12 C-4.33 11.01 -4.66 10.02 -5 9 C-5 6.33333333 -5 3.66666667 -5 1 C-3 0 -3 0 0 0 Z " fill="#B17122" transform="translate(160,70)"/>
<path d="M0 0 C1.21236328 0.04060547 1.21236328 0.04060547 2.44921875 0.08203125 C3.06410156 0.11683594 3.67898437 0.15164062 4.3125 0.1875 C3.6525 0.8475 2.9925 1.5075 2.3125 2.1875 C2.9725 3.5075 3.6325 4.8275 4.3125 6.1875 C3.384375 6.14625 2.45625 6.105 1.5 6.0625 C-1.84559719 5.91613661 -1.84559719 5.91613661 -4.6875 8.1875 C-5.6775 8.1875 -6.6675 8.1875 -7.6875 8.1875 C-8.05266854 3.68375468 -8.05266854 3.68375468 -6.46875 1.53125 C-4.16764554 -0.20467091 -2.84767456 -0.12381194 0 0 Z " fill="#9F5B15" transform="translate(31.6875,144.8125)"/>
<path d="M0 0 C2.6875 -0.3125 2.6875 -0.3125 6 0 C8.875 2.5 8.875 2.5 11 5 C5.70769231 8.07692308 5.70769231 8.07692308 2.125 7.6875 C1.42375 7.460625 0.7225 7.23375 0 7 C-1.125 2.25 -1.125 2.25 0 0 Z " fill="#D49738" transform="translate(145,0)"/>
<path d="M0 0 C1.9375 0.75 1.9375 0.75 4 2 C4.62890625 4.078125 4.62890625 4.078125 5 6 C3.76446724 7.20254524 2.51097661 8.38666232 1.25 9.5625 C0.55390625 10.22378906 -0.1421875 10.88507812 -0.859375 11.56640625 C-3 13 -3 13 -5.15625 12.84375 C-7.58413666 11.73268322 -8.57204506 10.21333016 -10 8 C-8.02 8.66 -6.04 9.32 -4 10 C-3.67 8.35 -3.34 6.7 -3 5 C-3.99 5.33 -4.98 5.66 -6 6 C-6 5.34 -6 4.68 -6 4 C-4.3125 3.3125 -4.3125 3.3125 -2 3 C0.75 4.4375 0.75 4.4375 3 6 C1.515 3.03 1.515 3.03 0 0 Z " fill="#494949" transform="translate(36,18)"/>
<path d="M0 0 C0.99 0.33 1.98 0.66 3 1 C3.75 2.9375 3.75 2.9375 4 5 C3 7 3 7 0.75 8.1875 C-2.30248582 9.08937081 -3.97734454 8.86361585 -7 8 C-8 5 -8 5 -7 2 C-7.66 2 -8.32 2 -9 2 C-9.33 2.99 -9.66 3.98 -10 5 C-10 3.68 -10 2.36 -10 1 C-8.02 1 -6.04 1 -4 1 C-3.67 1.99 -3.34 2.98 -3 4 C-2.34 3.67 -1.68 3.34 -1 3 C-0.34 3.33 0.32 3.66 1 4 C0.67 2.68 0.34 1.36 0 0 Z " fill="#A4641E" transform="translate(89,146)"/>
<path d="M0 0 C2 2 2 2 2 5 C2.31088368 6.67099977 2.64080332 8.33871537 3 10 C-1.10457614 12.98514628 -3.97745369 13.2954439 -9 13 C-9.33 11.68 -9.66 10.36 -10 9 C-7.525 10.485 -7.525 10.485 -5 12 C-5 11.34 -5 10.68 -5 10 C-4.34 10 -3.68 10 -3 10 C-2.67 9.34 -2.34 8.68 -2 8 C-2.66 7.67 -3.32 7.34 -4 7 C-4.33 6.34 -4.66 5.68 -5 5 C-4.360625 4.731875 -3.72125 4.46375 -3.0625 4.1875 C-0.66868314 3.11332248 -0.66868314 3.11332248 0 0 Z " fill="#84360E" transform="translate(84,100)"/>
<path d="M0 0 C4.875 1.75 4.875 1.75 6 4 C6.33 3.01 6.66 2.02 7 1 C7.33 1 7.66 1 8 1 C8.5 3.6875 8.5 3.6875 8 7 C6.08728821 8.57209188 4.13850243 9.68045841 1.9453125 10.82421875 C-0.30414164 11.99562872 -0.30414164 11.99562872 -2 15 C-3.32 15 -4.64 15 -6 15 C-6 14.01 -6 13.02 -6 12 C-4.02 11.01 -2.04 10.02 0 9 C0 6.03 0 3.06 0 0 Z " fill="#7B310C" transform="translate(87,102)"/>
<path d="M0 0 C0.66 0 1.32 0 2 0 C3.125 5.75 3.125 5.75 2 8 C-0.94496031 8.98165344 -2.62309894 9.10768602 -5.625 8.25 C-7.9207964 7.0416861 -9.39552853 6.0267008 -11 4 C-11 3.34 -11 2.68 -11 2 C-9.68 2.33 -8.36 2.66 -7 3 C-7 2.34 -7 1.68 -7 1 C-6.01 1.33 -5.02 1.66 -4 2 C-4.33 2.66 -4.66 3.32 -5 4 C-2.24358584 3.50243908 -2.24358584 3.50243908 0 2 C0 1.34 0 0.68 0 0 Z " fill="#A4631D" transform="translate(74,146)"/>
<path d="M0 0 C0 0.99 0 1.98 0 3 C0.66 3 1.32 3 2 3 C1.8125 5.3125 1.8125 5.3125 1 8 C-1.5625 9.8125 -1.5625 9.8125 -4 11 C-4 10.01 -4 9.02 -4 8 C-3.01 7.67 -2.02 7.34 -1 7 C-1.33 6.34 -1.66 5.68 -2 5 C-2.66 5 -3.32 5 -4 5 C-4 4.34 -4 3.68 -4 3 C-5.32 3.33 -6.64 3.66 -8 4 C-8 2.68 -8 1.36 -8 0 C-5.13822943 -1.43088528 -3.06624227 -0.59991697 0 0 Z " fill="#D0963A" transform="translate(120,12)"/>
<path d="M0 0 C1.98 0 3.96 0 6 0 C6 1.32 6 2.64 6 4 C4.3203125 5.4921875 4.3203125 5.4921875 2.125 6.875 C-1.63421316 9.47855399 -3.11792478 11.3691051 -4 16 C-4.66 15.67 -5.32 15.34 -6 15 C-6.625 11.9375 -6.625 11.9375 -7 9 C-6.030625 8.608125 -5.06125 8.21625 -4.0625 7.8125 C-0.79068959 6.32779236 -0.79068959 6.32779236 -0.125 3.375 C-0.03291539 1.688278 -0.03291539 1.688278 0 0 Z " fill="#2E2E2E" transform="translate(22,31)"/>
<path d="M0 0 C2 2 2 2 2.125 5.625 C2.08375 6.73875 2.0425 7.8525 2 9 C2.66 9 3.32 9 4 9 C4 7.35 4 5.7 4 4 C4.66 4.33 5.32 4.66 6 5 C6.33 12.26 6.66 19.52 7 27 C6.67 27 6.34 27 6 27 C5.08342019 21.61509359 4.88861841 16.45769811 5 11 C3.02 11.99 3.02 11.99 1 13 C0.67 8.71 0.34 4.42 0 0 Z " fill="#BE5520" transform="translate(95,81)"/>
<path d="M0 0 C3.63 0 7.26 0 11 0 C11 1.32 11 2.64 11 4 C10.34 4 9.68 4 9 4 C9 4.66 9 5.32 9 6 C7 6 5 6 3 6 C3 5.34 3 4.68 3 4 C2.01 3.67 1.02 3.34 0 3 C0 2.01 0 1.02 0 0 Z " fill="#A4651F" transform="translate(51,146)"/>
<path d="M0 0 C2.5 2.25 2.5 2.25 5 5 C5 6.32 5 7.64 5 9 C4.34 9 3.68 9 3 9 C2.67 9.99 2.34 10.98 2 12 C1.34 11.67 0.68 11.34 0 11 C-0.99 11.99 -1.98 12.98 -3 14 C-2.58846263 9.02906176 -2.20399168 4.55491614 0 0 Z " fill="#994115" transform="translate(69,87)"/>
<path d="M0 0 C0.66 0 1.32 0 2 0 C1.33333333 4 0.66666667 8 0 12 C2.31 12.33 4.62 12.66 7 13 C6.67 13.66 6.34 14.32 6 15 C4.02 14.34 2.04 13.68 0 13 C0 14.65 0 16.3 0 18 C-0.33 18 -0.66 18 -1 18 C-1.0825 17.21625 -1.165 16.4325 -1.25 15.625 C-1.73053006 12.93429328 -1.73053006 12.93429328 -3.6875 11.75 C-6.4362755 10.85850524 -9.13978281 10.39002962 -12 10 C-12 9.67 -12 9.34 -12 9 C-4.57142857 8.71428571 -4.57142857 8.71428571 -1 11 C-1.020625 10.113125 -1.04125 9.22625 -1.0625 8.3125 C-1.00713781 5.37830369 -0.6694266 2.84506304 0 0 Z " fill="#A76923" transform="translate(12,115)"/>
<path d="M0 0 C0.99 0.33 1.98 0.66 3 1 C2.67 2.32 2.34 3.64 2 5 C1.34 5 0.68 5 0 5 C0 5.99 0 6.98 0 8 C-0.66 8 -1.32 8 -2 8 C-1.79375 8.598125 -1.5875 9.19625 -1.375 9.8125 C-1 12 -1 12 -3 15 C-5.625 15.1875 -5.625 15.1875 -8 15 C-8 14.34 -8 13.68 -8 13 C-7.360625 12.896875 -6.72125 12.79375 -6.0625 12.6875 C-5.0415625 12.3471875 -5.0415625 12.3471875 -4 12 C-3.67 11.01 -3.34 10.02 -3 9 C-3.66 9 -4.32 9 -5 9 C-5 8.34 -5 7.68 -5 7 C-4.01 6.67 -3.02 6.34 -2 6 C-0.77479736 2.99152582 -0.77479736 2.99152582 0 0 Z " fill="#2F2E2E" transform="translate(57,4)"/>
<path d="M0 0 C0.33 0 0.66 0 1 0 C1 3.63 1 7.26 1 11 C-2.63 11 -6.26 11 -10 11 C-9.01 10.34 -8.02 9.68 -7 9 C-3.23729409 6.33857387 -1.35769621 4.44336943 0 0 Z " fill="#000000" transform="translate(159,149)"/>
<path d="M0 0 C2.13586678 3.20380017 2.23132175 4.01939967 2.125 7.6875 C2.10695313 8.49574219 2.08890625 9.30398437 2.0703125 10.13671875 C2.04710938 10.75160156 2.02390625 11.36648437 2 12 C2.66 12.33 3.32 12.66 4 13 C4.33 11.02 4.66 9.04 5 7 C5.33 7 5.66 7 6 7 C6 9.64 6 12.28 6 15 C5.01 15.33 4.02 15.66 3 16 C3 17.98 3 19.96 3 22 C2.67 22 2.34 22 2 22 C2 20.02 2 18.04 2 16 C1.01 15.67 0.02 15.34 -1 15 C-0.34 14.67 0.32 14.34 1 14 C0.67 9.38 0.34 4.76 0 0 Z " fill="#C85B23" transform="translate(88,87)"/>
<path d="M0 0 C0 0.66 0 1.32 0 2 C-0.66 2 -1.32 2 -2 2 C-2 2.66 -2 3.32 -2 4 C-1.01 4.33 -0.02 4.66 1 5 C0.67 5.66 0.34 6.32 0 7 C-1.9375 6.6875 -1.9375 6.6875 -4 6 C-4.33 5.01 -4.66 4.02 -5 3 C-6.65 3 -8.3 3 -10 3 C-9.67 2.01 -9.34 1.02 -9 0 C-5.52176885 -1.15941038 -3.54104422 -0.70820884 0 0 Z " fill="#AE7129" transform="translate(156,88)"/>
<path d="M0 0 C1.051875 1.1446875 1.051875 1.1446875 2.125 2.3125 C4.96352604 4.96590478 7.46949051 6.44000743 11 8 C11 8.33 11 8.66 11 9 C7.37 9 3.74 9 0 9 C0 6.03 0 3.06 0 0 Z " fill="#000000" transform="translate(0,151)"/>
<path d="M0 0 C0.33 0 0.66 0 1 0 C1.3125 2.3125 1.3125 2.3125 1 5 C-1.3832946 6.81883009 -2.95818337 8 -6 8 C-6 8.99 -6 9.98 -6 11 C-4.68 11.33 -3.36 11.66 -2 12 C-5.13349732 13.04449911 -5.98968256 12.93423645 -9 12 C-9 11.01 -9 10.02 -9 9 C-10.32 8.67 -11.64 8.34 -13 8 C-13 7.67 -13 7.34 -13 7 C-12.30132812 6.86722656 -11.60265625 6.73445313 -10.8828125 6.59765625 C-9.51769531 6.33275391 -9.51769531 6.33275391 -8.125 6.0625 C-7.22007813 5.88847656 -6.31515625 5.71445313 -5.3828125 5.53515625 C-3.00043683 5.10036299 -3.00043683 5.10036299 -1 4 C-0.34786708 1.97536745 -0.34786708 1.97536745 0 0 Z " fill="#BF5620" transform="translate(87,106)"/>
<path d="M0 0 C2.97 0 5.94 0 9 0 C9 3.63 9 7.26 9 11 C8.34 10.01 7.68 9.02 7 8 C4.77946888 5.13479856 2.56961072 2.56961072 0 0 Z " fill="#000000" transform="translate(151,0)"/>
<path d="M0 0 C1.67542976 0.28604898 3.34385343 0.61781233 5 1 C5 2.65 5 4.3 5 6 C2.625 6.625 2.625 6.625 0 7 C-0.66 6.34 -1.32 5.68 -2 5 C-1.46428571 1.46428571 -1.46428571 1.46428571 0 0 Z " fill="#CC6E38" transform="translate(100,121)"/>
<path d="M0 0 C1.65 1.65 3.3 3.3 5 5 C3.02 5.99 3.02 5.99 1 7 C1.33 6.01 1.66 5.02 2 4 C0.68 4 -0.64 4 -2 4 C-2 4.66 -2 5.32 -2 6 C-1.34 6 -0.68 6 0 6 C-0.33 6.99 -0.66 7.98 -1 9 C-1.66 9 -2.32 9 -3 9 C-4.625 7 -4.625 7 -6 5 C-4.02 3.35 -2.04 1.7 0 0 Z " fill="#7D320C" transform="translate(78,96)"/>
<path d="M0 0 C1.65 0 3.3 0 5 0 C5.625 2.375 5.625 2.375 6 5 C5.34 5.66 4.68 6.32 4 7 C1.875 6.625 1.875 6.625 0 6 C-1.125 2.25 -1.125 2.25 0 0 Z " fill="#C66B38" transform="translate(117,130)"/>
<path d="M0 0 C1.65 0 3.3 0 5 0 C5.625 2.375 5.625 2.375 6 5 C5.34 5.66 4.68 6.32 4 7 C1.875 6.625 1.875 6.625 0 6 C-1.125 2.25 -1.125 2.25 0 0 Z " fill="#C56A38" transform="translate(50,130)"/>
<path d="M0 0 C1.67542976 0.28604898 3.34385343 0.61781233 5 1 C5.625 2.875 5.625 2.875 6 5 C5.34 5.66 4.68 6.32 4 7 C1.375 6.625 1.375 6.625 -1 6 C-1.042721 4.33388095 -1.04063832 2.66617115 -1 1 C-0.67 0.67 -0.34 0.34 0 0 Z " fill="#CD6F39" transform="translate(68,121)"/>
<path d="M0 0 C2.97 0 5.94 0 9 0 C6 3 3 6 0 9 C0 6.03 0 3.06 0 0 Z " fill="#000000" transform="translate(0,0)"/>
<path d="M0 0 C1.9451 2.91765 2.45276317 4.62537285 3 8 C-0.3 8 -3.6 8 -7 8 C-5.68 7.01 -4.36 6.02 -3 5 C-1.98198643 4.01834406 -0.9753197 3.02408568 0 2 C-1.32 2.33 -2.64 2.66 -4 3 C-4 2.34 -4 1.68 -4 1 C-2.68 0.67 -1.36 0.34 0 0 Z " fill="#98500F" transform="translate(35,152)"/>
<path d="M0 0 C0.66 0.33 1.32 0.66 2 1 C2.33 1.99 2.66 2.98 3 4 C1.8125 5.5 1.8125 5.5 0 7 C-2.6875 7.1875 -2.6875 7.1875 -5 7 C-5 6.01 -5 5.02 -5 4 C-2.5 1.8125 -2.5 1.8125 0 0 Z " fill="#8B3A11" transform="translate(92,111)"/>
<path d="M0 0 C0 0.99 0 1.98 0 3 C-1.32 3 -2.64 3 -4 3 C-4 5.64 -4 8.28 -4 11 C-4.99 11 -5.98 11 -7 11 C-6.67 9.35 -6.34 7.7 -6 6 C-6.66 6 -7.32 6 -8 6 C-8.33 4.68 -8.66 3.36 -9 2 C-5.86501708 0.14223235 -3.62528568 -0.20140476 0 0 Z " fill="#772F0B" transform="translate(87,82)"/>
<path d="M0 0 C1.1446875 0.2475 1.1446875 0.2475 2.3125 0.5 C5.03596236 1.09145396 5.03596236 1.09145396 8 1 C7.67 1.99 7.34 2.98 7 4 C6.01 4.33 5.02 4.66 4 5 C2.62804426 6.29355827 1.28817344 7.62298702 0 9 C0 6 0 3 0 0 Z " fill="#9E5916" transform="translate(140,144)"/>
<path d="M0 0 C0.33 0.66 0.66 1.32 1 2 C1.99 2 2.98 2 4 2 C5.125 6.75 5.125 6.75 4 9 C3.34 9 2.68 9 2 9 C1.67 9.99 1.34 10.98 1 12 C0.67 12 0.34 12 0 12 C0 8.04 0 4.08 0 0 Z " fill="#A3611A" transform="translate(0,131)"/>
<path d="M0 0 C0.99 0 1.98 0 3 0 C3.98120464 3.05263664 3.98120464 4.94736336 3 8 C1.35 8.33 -0.3 8.66 -2 9 C-2 8.34 -2 7.68 -2 7 C-2.66 6.67 -3.32 6.34 -4 6 C-2.68 5.67 -1.36 5.34 0 5 C0 3.35 0 1.7 0 0 Z " fill="#D39637" transform="translate(14,0)"/>
<path d="M0 0 C0.33 0.99 0.66 1.98 1 3 C0.01 3.495 0.01 3.495 -1 4 C-1.73075648 6.3140622 -2.40138258 8.64828869 -3 11 C-3.33 10.01 -3.66 9.02 -4 8 C-5.98 8.33 -7.96 8.66 -10 9 C-6.83047153 5.73991357 -3.60062011 2.77762123 0 0 Z " fill="#C7903F" transform="translate(37,38)"/>
<path d="M0 0 C0.33 0.66 0.66 1.32 1 2 C3.31 2 5.62 2 8 2 C7.34 3.32 6.68 4.64 6 6 C6 5.01 6 4.02 6 3 C4.39536551 3.31008884 2.79130769 3.62316287 1.1875 3.9375 C-0.15248047 4.19853516 -0.15248047 4.19853516 -1.51953125 4.46484375 C-4.11397171 4.97741153 -4.11397171 4.97741153 -7 6 C-7 5.01 -7 4.02 -7 3 C-4.69 2.01 -2.38 1.02 0 0 Z " fill="#A24617" transform="translate(82,78)"/>
<path d="M0 0 C0.66 0 1.32 0 2 0 C2 0.66 2 1.32 2 2 C3.32 2 4.64 2 6 2 C6 2.99 6 3.98 6 5 C5.34 5 4.68 5 4 5 C3.67 5.99 3.34 6.98 3 8 C2.34 7.34 1.68 6.68 1 6 C-0.31747324 5.30251417 -1.64914193 4.63040043 -3 4 C-2.01 4 -1.02 4 0 4 C0 2.68 0 1.36 0 0 Z " fill="#B67625" transform="translate(133,56)"/>
<path d="M0 0 C0.99 0.33 1.98 0.66 3 1 C3.33 2.32 3.66 3.64 4 5 C0.7 5 -2.6 5 -6 5 C-5.195625 4.360625 -4.39125 3.72125 -3.5625 3.0625 C-1.7249496 1.59396498 -1.7249496 1.59396498 0 0 Z " fill="#9F5A17" transform="translate(61,155)"/>
<path d="M0 0 C2.0625 0.75 2.0625 0.75 4 2 C4.33 2.99 4.66 3.98 5 5 C2.03 5 -0.94 5 -4 5 C-2 1 -2 1 0 0 Z " fill="#95500F" transform="translate(17,155)"/>
<path d="M0 0 C1 4 1 4 0 7 C-1.875 7.8125 -1.875 7.8125 -4 8 C-4.99 7.34 -5.98 6.68 -7 6 C-4.69 4.02 -2.38 2.04 0 0 Z " fill="#D6A149" transform="translate(77,6)"/>
<path d="M0 0 C0.66 0.33 1.32 0.66 2 1 C0.71792641 3.86001033 -0.49151236 6.07039412 -3 8 C-4.32 8 -5.64 8 -7 8 C-6.6875 6.125 -6.6875 6.125 -6 4 C-5.01 3.34 -4.02 2.68 -3 2 C-3 2.99 -3 3.98 -3 5 C-2.67 4.34 -2.34 3.68 -2 3 C-1.34 3 -0.68 3 0 3 C0 2.01 0 1.02 0 0 Z " fill="#762F0B" transform="translate(74,93)"/>
<path d="M0 0 C-0.66 2.31 -1.32 4.62 -2 7 C-3.98 6.34 -5.96 5.68 -8 5 C-7 2 -7 2 -5.125 0.8125 C-3 0 -3 0 0 0 Z " fill="#CB8E31" transform="translate(61,23)"/>
<path d="M0 0 C1.32 0 2.64 0 4 0 C4 0.99 4 1.98 4 3 C4.66 3.33 5.32 3.66 6 4 C5.01 5.485 5.01 5.485 4 7 C2 6 2 6 1 3 C0.01 4.32 -0.98 5.64 -2 7 C-2.125 4.625 -2.125 4.625 -2 2 C-1.34 1.34 -0.68 0.68 0 0 Z " fill="#C99039" transform="translate(103,33)"/>
<path d="M0 0 C0.66 0.33 1.32 0.66 2 1 C2 1.66 2 2.32 2 3 C2.99 3 3.98 3 5 3 C5 3.66 5 4.32 5 5 C3.68 4.67 2.36 4.34 1 4 C1 4.99 1 5.98 1 7 C-0.32 7 -1.64 7 -3 7 C-1.125 1.125 -1.125 1.125 0 0 Z " fill="#CC8E30" transform="translate(67,17)"/>
<path d="M0 0 C4.75 0.875 4.75 0.875 7 2 C7 2.66 7 3.32 7 4 C4.69 4.33 2.38 4.66 0 5 C0 3.35 0 1.7 0 0 Z " fill="#CF8E31" transform="translate(147,0)"/>
<path d="M0 0 C2.97 0.33 5.94 0.66 9 1 C7.6875 3 7.6875 3 6 5 C5.01 5 4.02 5 3 5 C1.3125 2.5 1.3125 2.5 0 0 Z " fill="#BC802A" transform="translate(43,46)"/>
<path d="M0 0 C0 2.31 0 4.62 0 7 C-1.32 7.33 -2.64 7.66 -4 8 C-3.67 7.34 -3.34 6.68 -3 6 C-2.88457803 4.75923698 -2.88457803 4.75923698 -4.5 3.4375 C-4.995 2.963125 -5.49 2.48875 -6 2 C-3 0 -3 0 0 0 Z " fill="#985210" transform="translate(13,150)"/>
<path d="M0 0 C4.29 0 8.58 0 13 0 C13 0.33 13 0.66 13 1 C8.71 1.66 4.42 2.32 0 3 C0 2.01 0 1.02 0 0 Z " fill="#CD8C2E" transform="translate(124,0)"/>
<path d="M0 0 C-0.33 1.32 -0.66 2.64 -1 4 C-3.97 3.505 -3.97 3.505 -7 3 C-6.67 2.01 -6.34 1.02 -6 0 C-3 -1 -3 -1 0 0 Z " fill="#A26018" transform="translate(11,128)"/>
<path d="M0 0 C2 2 2 2 2.1953125 4.6015625 C2.17210938 5.59929687 2.14890625 6.59703125 2.125 7.625 C2.10695313 8.62789062 2.08890625 9.63078125 2.0703125 10.6640625 C2.03550781 11.82035156 2.03550781 11.82035156 2 13 C1.67 13 1.34 13 1 13 C0.87625 12.030625 0.7525 11.06125 0.625 10.0625 C0.41875 9.051875 0.2125 8.04125 0 7 C-0.66 6.67 -1.32 6.34 -2 6 C-2 5.34 -2 4.68 -2 4 C-1.34 4 -0.68 4 0 4 C0 2.68 0 1.36 0 0 Z " fill="#B6511D" transform="translate(91,80)"/>
<path d="M0 0 C1.98 0 3.96 0 6 0 C6 1.32 6 2.64 6 4 C4.35 4.33 2.7 4.66 1 5 C0.67 3.35 0.34 1.7 0 0 Z " fill="#424242" transform="translate(22,31)"/>
<path d="M0 0 C0.66 2.31 1.32 4.62 2 7 C1.01 6.67 0.02 6.34 -1 6 C-1 5.34 -1 4.68 -1 4 C-2.65 4 -4.3 4 -6 4 C-6 3.34 -6 2.68 -6 2 C-2.25 0 -2.25 0 0 0 Z " fill="#D49839" transform="translate(112,0)"/>
<path d="M0 0 C0.99 0 1.98 0 3 0 C3 1.65 3 3.3 3 5 C1.35 4.67 -0.3 4.34 -2 4 C-1.34 2.68 -0.68 1.36 0 0 Z " fill="#B17221" transform="translate(150,75)"/>
<path d="M0 0 C0.99 0.66 1.98 1.32 3 2 C0.69 3.65 -1.62 5.3 -4 7 C-4 5.35 -4 3.7 -4 2 C-2.68 2 -1.36 2 0 2 C0 1.34 0 0.68 0 0 Z " fill="#CC9440" transform="translate(11,26)"/>
<path d="M0 0 C0.99 0 1.98 0 3 0 C2.67 2.64 2.34 5.28 2 8 C1.34 8 0.68 8 0 8 C0 5.36 0 2.72 0 0 Z " fill="#A76822" transform="translate(141,116)"/>
<path d="M0 0 C0.99 0.99 1.98 1.98 3 3 C2.01 3.99 1.02 4.98 0 6 C-0.99 5.67 -1.98 5.34 -3 5 C-1.125 1.125 -1.125 1.125 0 0 Z " fill="#762F0B" transform="translate(71,103)"/>
<path d="M0 0 C0 0.66 0 1.32 0 2 C-0.66 2 -1.32 2 -2 2 C-1.67 2.99 -1.34 3.98 -1 5 C-1.99 5 -2.98 5 -4 5 C-4 4.01 -4 3.02 -4 2 C-4.66 1.67 -5.32 1.34 -6 1 C-4 0 -4 0 0 0 Z " fill="#A15E16" transform="translate(148,104)"/>
<path d="M0 0 C0.33 0.66 0.66 1.32 1 2 C1.66 2 2.32 2 3 2 C3.33 1.34 3.66 0.68 4 0 C3.67 1.65 3.34 3.3 3 5 C2.01 5 1.02 5 0 5 C-0.5625 3.0625 -0.5625 3.0625 -1 1 C-0.67 0.67 -0.34 0.34 0 0 Z " fill="#D09332" transform="translate(86,6)"/>
<path d="M0 0 C1.32 0 2.64 0 4 0 C4 2.31 4 4.62 4 7 C0 2.25 0 2.25 0 0 Z " fill="#78300B" transform="translate(97,101)"/>
<path d="M0 0 C0.66 0 1.32 0 2 0 C2.33 2.31 2.66 4.62 3 7 C2.01 7 1.02 7 0 7 C0 4.69 0 2.38 0 0 Z " fill="#78300B" transform="translate(94,92)"/>
<path d="M0 0 C0.66 0.33 1.32 0.66 2 1 C1.67 2.65 1.34 4.3 1 6 C0.01 6.33 -0.98 6.66 -2 7 C-2.6875 5.1875 -2.6875 5.1875 -3 3 C-1.5625 1.25 -1.5625 1.25 0 0 Z " fill="#C18838" transform="translate(23,49)"/>
<path d="M0 0 C0.66 0 1.32 0 2 0 C2 0.66 2 1.32 2 2 C2.66 2 3.32 2 4 2 C4 2.99 4 3.98 4 5 C2.35 5 0.7 5 -1 5 C-0.67 3.35 -0.34 1.7 0 0 Z " fill="#C6872D" transform="translate(126,24)"/>
<path d="M0 0 C0.66 0 1.32 0 2 0 C1.34 1.65 0.68 3.3 0 5 C-1.65 5 -3.3 5 -5 5 C-5 4.34 -5 3.68 -5 3 C-4.360625 2.87625 -3.72125 2.7525 -3.0625 2.625 C-2.0415625 2.315625 -2.0415625 2.315625 -1 2 C-0.67 1.34 -0.34 0.68 0 0 Z " fill="#535353" transform="translate(54,14)"/>
</svg>
